<?xml version="1.0" encoding="UTF-8" standalone="no"?>
<svg width="255px" height="164px" viewBox="0 0 255 164" version="1.1" xmlns="http://www.w3.org/2000/svg" xmlns:xlink="http://www.w3.org/1999/xlink">
    <!-- Generator: sketchtool 39.1 (31720) - http://www.bohemiancoding.com/sketch -->
    <title>B7755974-DD4B-44B0-9DC0-DC0021645851</title>
    <desc>Created with sketchtool.</desc>
    <defs></defs>
    <g id="Designs" stroke="none" stroke-width="1" fill="none" fill-rule="evenodd">
        <g id="Work" transform="translate(-883.000000, -1501.000000)">
            <g id="container" transform="translate(32.000000, 199.000000)">
                <g id="mercys-hope-logo" transform="translate(851.000000, 1302.000000)">
                    <path d="M44,112 C44,107.581722 47.5797154,104 51.99606,104 L119.00394,104 C123.420042,104 127,107.590712 127,112 C127,116.418278 123.420285,120 119.00394,120 L51.99606,120 C47.579958,120 44,116.409288 44,112 Z M62,105.023999 L62,118.986966 C62,118.986966 51.1980459,119.005679 51,119 C47.845197,118.909713 44.9987505,115.660261 45.0000005,112.000002 C45.0012504,108.206199 47.7202048,105.106254 51,105 C52.6643961,104.946002 62,105.023999 62,105.023999 Z M77,118.958031 L77,104.995064 C77,104.995064 87.8019541,104.976351 88,104.98203 C91.1548031,105.072318 94.0012495,108.321769 93.9999996,111.982029 C93.9987497,115.775832 91.2797952,118.875776 88,118.98203 C86.335604,119.036029 77,118.958031 77,118.958031 Z M63,105 L76,105 L76,119 L63,119 L63,105 Z" id="Rectangle-22" fill="#FFFFFF"></path>
                    <g id="Imported-Layers-Copy">
                        <path d="M14.2339131,69.1259464 C13.9704899,73.2908683 10.8878341,76.1386481 6.79911776,75.9947881 C2.89013967,75.8574059 0.0109065051,72.742149 0.00853806548,68.5750679 C-0.00251465299,48.250055 -0.00093569321,27.925042 0.00274854628,7.59975911 C0.00327486621,4.03645807 1.90907932,1.28179587 4.99147197,0.333075736 C8.15570737,-0.641015571 11.3209954,0.556558032 13.2536422,3.46587646 C13.4999599,3.83699742 13.7186458,4.22728172 13.9502266,4.60865911 C14.6473374,5.67046992 14.872076,6.84861028 14.8702338,8.11662939 C14.8602338,14.4130001 15.2152366,20.7342023 14.791549,27.0008833 C13.8633838,40.7361376 14.6557585,54.4713918 14.3449666,68.2012479 C14.3378612,68.5124497 14.3954933,68.833638 14.2339131,69.1259464" id="Fill-2" fill="#3F3F3F"></path>
                        <path d="M31.150095,48.7857808 L30.6670914,49.0518622 C30.6670914,49.0518622 30.6670914,49.0518622 30.6670914,49.0518622 L31.150095,48.7857808 C31.2024121,49.0157834 31.2681896,49.2433584 31.3470868,49.4672232 L36.0205791,46.8655459 L31.3470868,49.4672232 C32.1205618,50.5850834 32.8661278,51.5896963 34.046424,52.5261142 C36.9539343,54.8328611 42.9297171,54.8062189 45.6504711,49.7244962 C46.009675,48.282791 46.3984107,45.6881225 45.1153263,43.8802441 C43.1746372,41.1459764 41.0524546,38.5293782 38.8141272,36 C36.2062232,38.5848584 33.8457104,41.3609297 31.8893705,44.4069184 C31.0318484,45.7417648 30.8152076,47.3135092 31.150095,48.7857808 Z M30.1290917,48.3537719 C25.8594696,42.812837 17.6660741,32.1624453 16,30 L16,7 C18.2790316,9.47435618 32.1461489,27.1866901 38.2277099,35.1055318 C35.4885136,37.8039958 33.008546,40.7001724 30.9486619,43.8739694 C30.0618404,45.2400444 29.817604,46.8411729 30.1290917,48.3537719 Z M0,7.49433318 C0,3.35532726 3.36629279,0 7.5,0 C11.6421356,0 15,3.36737139 15,7.49433318 L15,74.5056668 C15,78.6446727 11.6337072,82 7.5,82 C3.35786438,82 0,78.6326286 0,74.5056668 L0,7.49433318 Z" id="Combined-Shape" fill="#FFFFFF"></path>
                        <path d="M113,121 L113,142.504834 C113,146.636312 116.357864,150 120.5,150 C124.633707,150 128,146.6443 128,142.504834 L128,81.4951664 C128,77.3636883 124.642136,74 120.5,74 C116.366293,74 113,77.3557003 113,81.4951664 L113,103 L120.003217,103 C124.419718,103 128,106.577742 128,110.999887 L128,113.000113 C128,117.418329 124.413779,121 120.003217,121 L113,121 Z" id="Rectangle-22" fill="#FFFFFF"></path>
                        <path d="M76,104 L63,104 C63,104 62.9532533,95.6016068 63.0432601,92.0320062 C63.1273206,88.6916265 66.0972761,85.998677 69.5051028,86.0000005 C73.0372633,86.0013239 75.9010736,88.5272757 76,92 C76.0502741,93.7623017 76,104 76,104 Z M62,7.50101429 C62,3.35831849 65.3662928,0 69.5,0 C73.6421356,0 77,3.36556285 77,7.50101429 L77,143.498986 C77,147.641682 73.6337072,151 69.5,151 C65.3578644,151 62,147.634437 62,143.498986 L62,7.50101429 Z M63,105 L76,105 L76,119 L63,119 L63,105 Z M75.974669,132.618996 C75.9752096,136.028984 75.8914037,139.441497 75.9962963,142.847839 C76.1303858,147.190552 72.5980998,150.035295 69.5343161,149.999669 C65.7849456,149.956189 63.0085353,146.899093 63.0042098,142.779673 C62.9971809,135.91341 63.000425,129.047428 63.0033988,122.181166 C63.0044802,120.106729 63.0861234,120.018085 65.0255555,120.014718 C68.1766596,120.009108 71.328034,120.043612 74.4783271,120.000412 C75.5724003,119.985264 76.0049472,120.385845 75.9906191,121.549438 C75.945472,125.238823 75.9741283,128.929049 75.974669,132.618996 Z" id="Rectangle-21" fill="#FFFFFF"></path>
                        <path d="M55.2460279,48.1820432 C55.2460279,48.1820432 55.2460279,48.1820432 55.2460279,48.1820432 L53.6670914,49.0518622 C53.6670914,49.0518622 53.6670914,49.0518622 53.6670914,49.0518622 L55.2460279,48.1820432 Z M53.1290917,48.3537719 C48.8594696,42.812837 40.6660741,32.1624453 39,30 L39,7 C41.2790316,9.47435618 55.1461489,27.1866901 61.2277099,35.1055318 C58.4885136,37.8039958 56.008546,40.7001724 53.9486619,43.8739694 C53.0618404,45.2400444 52.817604,46.8411729 53.1290917,48.3537719 Z" id="Fill-29" fill="#FFFFFF" transform="translate(50.113855, 28.025931) scale(-1, 1) translate(-50.113855, -28.025931) "></path>
                        <path d="" id="Fill-21" fill="#909090"></path>
                        <text id="ope" font-family="HelveticaNeue, Helvetica Neue" font-size="68" font-weight="normal" letter-spacing="2.5" fill="#FFFFFF">
                            <tspan x="134" y="150">op</tspan>
                            <tspan x="218.356" y="150">e</tspan>
                        </text>
                        <text id="ercys" font-family="HelveticaNeue, Helvetica Neue" font-size="68" font-weight="normal" letter-spacing="2.5" fill="#FFFFFF">
                            <tspan x="84" y="70">e</tspan>
                            <tspan x="123.016" y="70" letter-spacing="3.0999999">rc</tspan>
                            <tspan x="187.152" y="70">ys</tspan>
                        </text>
                    </g>
                </g>
            </g>
        </g>
    </g>
</svg>