<?xml version="1.0" encoding="UTF-8" standalone="no"?>
<svg width="320px" height="54px" viewBox="0 0 320 54" version="1.1" xmlns="http://www.w3.org/2000/svg" xmlns:xlink="http://www.w3.org/1999/xlink" xmlns:sketch="http://www.bohemiancoding.com/sketch/ns">
    <!-- Generator: Sketch 3.3.2 (12043) - http://www.bohemiancoding.com/sketch -->
    <title>Charitagoal</title>
    <desc>Created with Sketch.</desc>
    <defs></defs>
    <g id="Designs" stroke="none" stroke-width="1" fill="none" fill-rule="evenodd" sketch:type="MSPage">
        <g id="Work" sketch:type="MSArtboardGroup" transform="translate(-526.000000, -972.000000)" fill="#FFFFFF">
            <g id="container" sketch:type="MSLayerGroup" transform="translate(30.000000, 199.000000)">
                <g id="what-we-do-2" transform="translate(5.000000, 496.000000)" sketch:type="MSShapeGroup">
                    <g id="cg" transform="translate(441.000000, 95.000000)">
                        <path d="M71.33,224.696 C81.48,224.696 86.642,218.548 88.904,213.386 L78.812,208.746 C77.826,211.762 74.81,214.372 71.33,214.372 C65.704,214.372 61.934,210.08 61.934,204.686 C61.934,199.292 65.704,195 71.33,195 C74.81,195 77.826,197.61 78.812,200.626 L88.904,195.928 C86.584,190.592 81.48,184.676 71.33,184.676 C59.208,184.676 50.044,192.738 50.044,204.686 C50.044,216.576 59.208,224.696 71.33,224.696 L71.33,224.696 Z M122.29,224 L122.29,203.99 C122.29,199.118 119.448,195.29 112.952,195.29 C108.022,195.29 104.948,197.32 103.324,199.176 L103.324,185.314 L92.884,185.314 L92.884,224 L103.324,224 L103.324,206.716 C104.194,205.73 105.412,204.512 107.79,204.512 C110.284,204.512 111.85,205.498 111.85,208.398 L111.85,224 L122.29,224 Z M155.212,224 L155.212,207.064 C155.212,197.726 148.426,195.29 141.466,195.29 C137.232,195.29 132.012,196.508 128.242,199.524 L131.78,205.962 C133.984,204.28 136.942,203.236 139.552,203.236 C142.974,203.236 144.772,204.744 144.772,206.716 L144.772,209.616 C143.264,207.702 139.958,206.542 136.304,206.542 C132.128,206.542 126.676,208.514 126.676,215.474 C126.676,221.854 132.128,224.696 136.304,224.696 C139.784,224.696 143.206,223.304 144.772,221.332 L144.772,224 L155.212,224 Z M140.654,217.91 C138.914,217.91 137,217.388 137,215.648 C137,213.908 138.914,213.328 140.654,213.328 C142.278,213.328 144.076,213.85 144.772,214.836 L144.772,216.402 C144.076,217.388 142.278,217.91 140.654,217.91 L140.654,217.91 Z M171.952,224 L171.952,206.832 C173.112,205.44 175.954,204.86 178.158,204.86 C179.144,204.86 180.014,204.976 180.536,205.15 L180.536,195.174 C177.346,195.174 173.692,197.03 171.952,199.06 L171.952,195.986 L161.512,195.986 L161.512,224 L171.952,224 Z M189.852,193.956 C193.1,193.956 195.71,191.346 195.71,188.098 C195.71,184.85 193.1,182.24 189.852,182.24 C186.604,182.24 183.994,184.85 183.994,188.098 C183.994,191.346 186.604,193.956 189.852,193.956 L189.852,193.956 Z M195.072,224 L195.072,195.986 L184.632,195.986 L184.632,224 L195.072,224 Z M213.146,224.696 C216.684,224.696 219.12,223.826 220.222,222.84 L218.366,214.952 C218.134,215.184 217.206,215.474 216.278,215.474 C214.886,215.474 213.958,214.314 213.958,212.864 L213.958,205.034 L219.642,205.034 L219.642,195.986 L213.958,195.986 L213.958,188.33 L203.518,188.33 L203.518,195.986 L198.878,195.986 L198.878,205.034 L203.518,205.034 L203.518,215.88 C203.518,221.738 206.94,224.696 213.146,224.696 L213.146,224.696 Z M250.65,224 L250.65,207.064 C250.65,197.726 243.864,195.29 236.904,195.29 C232.67,195.29 227.45,196.508 223.68,199.524 L227.218,205.962 C229.422,204.28 232.38,203.236 234.99,203.236 C238.412,203.236 240.21,204.744 240.21,206.716 L240.21,209.616 C238.702,207.702 235.396,206.542 231.742,206.542 C227.566,206.542 222.114,208.514 222.114,215.474 C222.114,221.854 227.566,224.696 231.742,224.696 C235.222,224.696 238.644,223.304 240.21,221.332 L240.21,224 L250.65,224 Z M236.092,217.91 C234.352,217.91 232.438,217.388 232.438,215.648 C232.438,213.908 234.352,213.328 236.092,213.328 C237.716,213.328 239.514,213.85 240.21,214.836 L240.21,216.402 C239.514,217.388 237.716,217.91 236.092,217.91 L236.092,217.91 Z M268.724,235.368 C275.684,235.368 285.66,233.106 285.66,220.984 L285.66,195.986 L275.22,195.986 L275.22,198.944 C272.958,196.276 270.232,195.29 267.332,195.29 C260.43,195.29 255.036,199.93 255.036,209.268 C255.036,218.838 260.604,223.246 267.332,223.246 C270.232,223.246 272.842,222.202 275.22,219.476 L275.22,220.984 C275.22,225.914 271.16,226.842 268.724,226.842 C265.708,226.842 262.518,225.914 260.372,223.768 L255.964,231.192 C259.618,234.092 263.91,235.368 268.724,235.368 L268.724,235.368 Z M270.928,214.024 C268.086,214.024 265.708,212.69 265.708,209.268 C265.708,205.846 268.086,204.512 270.928,204.512 C272.262,204.512 274.234,205.15 275.22,206.31 L275.22,212.226 C274.234,213.386 272.262,214.024 270.928,214.024 L270.928,214.024 Z M305.764,224.696 C315.74,224.696 321.54,217.794 321.54,209.964 C321.54,202.134 315.74,195.29 305.764,195.29 C295.846,195.29 290.046,202.134 290.046,209.964 C290.046,217.794 295.846,224.696 305.764,224.696 L305.764,224.696 Z M305.764,215.474 C302.574,215.474 300.776,213.096 300.776,209.964 C300.776,206.89 302.574,204.512 305.764,204.512 C309.012,204.512 310.81,206.89 310.81,209.964 C310.81,213.096 309.012,215.474 305.764,215.474 L305.764,215.474 Z M352.548,224 L352.548,207.064 C352.548,197.726 345.762,195.29 338.802,195.29 C334.568,195.29 329.348,196.508 325.578,199.524 L329.116,205.962 C331.32,204.28 334.278,203.236 336.888,203.236 C340.31,203.236 342.108,204.744 342.108,206.716 L342.108,209.616 C340.6,207.702 337.294,206.542 333.64,206.542 C329.464,206.542 324.012,208.514 324.012,215.474 C324.012,221.854 329.464,224.696 333.64,224.696 C337.12,224.696 340.542,223.304 342.108,221.332 L342.108,224 L352.548,224 Z M337.99,217.91 C336.25,217.91 334.336,217.388 334.336,215.648 C334.336,213.908 336.25,213.328 337.99,213.328 C339.614,213.328 341.412,213.85 342.108,214.836 L342.108,216.402 C341.412,217.388 339.614,217.91 337.99,217.91 L337.99,217.91 Z M369.288,224 L369.288,185.314 L358.848,185.314 L358.848,224 L369.288,224 Z" id="Charitagoal"></path>
                    </g>
                </g>
            </g>
        </g>
    </g>
</svg>