<?xml version="1.0" encoding="UTF-8" standalone="no"?>
<svg width="102px" height="119px" viewBox="0 0 102 119" version="1.1" xmlns="http://www.w3.org/2000/svg" xmlns:xlink="http://www.w3.org/1999/xlink" xmlns:sketch="http://www.bohemiancoding.com/sketch/ns">
    <!-- Generator: Sketch 3.3.2 (12043) - http://www.bohemiancoding.com/sketch -->
    <title>Group</title>
    <desc>Created with Sketch.</desc>
    <defs></defs>
    <g id="Designs" stroke="none" stroke-width="1" fill="none" fill-rule="evenodd" sketch:type="MSPage">
        <g id="Work" sketch:type="MSArtboardGroup" transform="translate(-180.000000, -929.000000)" fill="#FFFFFF">
            <g id="container" sketch:type="MSLayerGroup" transform="translate(30.000000, 199.000000)">
                <g id="what-we-do-2" transform="translate(5.000000, 496.000000)" sketch:type="MSShapeGroup">
                    <g id="Project-+-Group" transform="translate(27.000000, 47.000000)">
                        <g id="Group" transform="translate(118.000000, 187.000000)">
                            <path d="M89.9594256,46.5652174 L101.318055,28.7099272 C102.118223,27.4543739 101.712737,25.8071992 100.409855,25.0329992 L91.588569,19.7979331 C90.2864067,19.0251243 88.5823601,19.4188325 87.7814726,20.6764726 L81.1251758,31.1389534 C85.0194191,35.5768649 88.0277887,40.7792381 89.9594256,46.5652174" id="Fill-1"></path>
                            <path d="M30.9048289,23.2826087 C36.2042017,20.3163239 41.8399444,18.5300967 47.5616712,17.9239272 L50.1583914,5.55161414 C50.4720615,4.06380888 49.5633814,2.59537234 48.1408602,2.26969076 L38.481061,0.0645251992 C37.0544126,-0.261873738 35.6463368,0.682172418 35.3340425,2.16997768 L30.9048289,23.2826087" id="Fill-2"></path>
                            <path d="M65.6447767,22.9473314 C39.4257276,14.0715369 11.7504929,31.9794538 2.57540241,67.0827393 C4.97831887,68.4192031 7.3931483,69.7249596 9.82619758,70.9972173 C9.95303569,70.2790861 10.0938891,69.5525802 10.2669775,68.7988565 C13.9452827,52.7857173 22.7181352,39.8956463 34.3388887,33.4387466 C43.1131427,28.5604793 53.0821977,27.616231 62.4128576,30.7755895 L62.4703202,30.7930368 L62.5186728,30.8167652 C71.4393863,34.9873696 77.9648917,42.5539181 80.8891759,52.1276049 C84.7615925,64.8069125 82.1085036,80.1549603 73.6054449,94.2300525 C73.2074115,94.8923523 72.8016697,95.5141743 72.3945263,96.119247 C75.0307969,96.8806475 77.6768781,97.6092471 80.3383762,98.3043478 C98.1798032,66.6814512 90.7110707,34.6628497 65.6447767,22.9473314" id="Fill-3"></path>
                            <path d="M45.1767769,109.061383 C41.6108296,108.575085 37.5315489,107.418996 33.0779772,105.634976 C29.1496769,104.062359 25.6750201,102.2902 23.450341,101.08248 C16.9757381,97.8653834 7.02366949,90.1732359 8.81436768,73.8707669 C6.29685669,72.5590901 3.79128368,71.2195052 1.30747994,69.8478261 C1.29975536,69.8750364 1.29273302,69.9050375 1.28851961,69.9287593 C-4.01405376,92.9542699 8.13530684,103.800024 17.9729112,108.693695 C23.7663465,111.845208 34.7275262,117.177034 44.7877389,118.557784 C54.9820784,120.19738 68.1861954,117.906131 78.5069371,100.858518 C78.5181728,100.834099 78.5350265,100.811075 78.5497734,100.78526 C75.8040362,100.062442 73.0660235,99.2977625 70.3392466,98.5051747 C62.1069505,109.122083 52.2960311,110.207007 45.1767769,109.061383" id="Fill-4"></path>
                            <path d="M53.8389832,96.928123 C54.4152138,97.1618841 55.0726534,96.8840708 55.3063941,96.3000234 L63.0000618,77.0953792 C63.2309778,76.5177265 62.9527487,75.8519693 62.3765181,75.6196293 L32.4075814,63.4633432 C31.8299384,63.2274505 31.173205,63.5130796 30.9401705,64.0900218 L23.2450904,83.2939554 C23.0106436,83.8765818 23.2931097,84.5373653 23.8693403,84.7718369 L53.8389832,96.928123 Z" id="Fill-5"></path>
                            <path d="M24.0873793,99.2254304 C26.2948371,100.427421 29.6923844,102.160913 33.5301594,103.699545 C37.831332,105.425355 41.7477441,106.534455 45.1768867,107.005892 C55.844862,108.728908 64.553227,104.135363 71.0787083,93.3446866 C79.3047185,79.7442442 81.8934262,64.9732404 78.1771176,52.8241265 C75.4213059,43.8144358 69.2826914,36.6863038 60.8909814,32.753469 C52.102575,29.7977317 42.7117517,30.6938118 34.4457207,35.2859604 C23.2981991,41.4754084 14.8622557,53.8983051 11.3046256,69.3712267 C7.30044876,86.7885652 16.0467281,95.2199594 24.0873793,99.2254304 L24.0873793,99.2254304 Z M32.9400895,61.0981687 L62.9756129,72.8897944 C65.1784256,73.7546469 66.2483429,76.2017314 65.3602832,78.3483572 L57.6507929,96.9726619 C56.7613179,99.1179095 54.2464461,100.159178 52.0443411,99.2922582 L22.0109405,87.5026998 C19.8095431,86.63578 18.7389181,84.1900737 19.6291007,82.0434479 L27.3385911,63.4191432 C28.2266508,61.2725174 30.7393997,60.2333162 32.9400895,61.0981687 Z" id="Fill-6"></path>
                        </g>
                    </g>
                </g>
            </g>
        </g>
    </g>
</svg>