<?xml version="1.0" encoding="UTF-8" standalone="no"?>
<svg width="329px" height="119px" viewBox="0 0 329 119" version="1.1" xmlns="http://www.w3.org/2000/svg" xmlns:xlink="http://www.w3.org/1999/xlink" xmlns:sketch="http://www.bohemiancoding.com/sketch/ns">
    <!-- Generator: Sketch 3.3.2 (12043) - http://www.bohemiancoding.com/sketch -->
    <title>Group + Fill 6 + Project</title>
    <desc>Created with Sketch.</desc>
    <defs></defs>
    <g id="Designs" stroke="none" stroke-width="1" fill="none" fill-rule="evenodd" sketch:type="MSPage">
        <g id="Work" sketch:type="MSArtboardGroup" transform="translate(-180.000000, -929.000000)" fill="#FFFFFF">
            <g id="container" sketch:type="MSLayerGroup" transform="translate(30.000000, 199.000000)">
                <g id="what-we-do-2" transform="translate(5.000000, 496.000000)" sketch:type="MSShapeGroup">
                    <g id="Project-+-Group" transform="translate(27.000000, 47.000000)">
                        <g id="Group-+-Fill-6-+-Project" transform="translate(118.000000, 187.000000)">
                            <g id="Group">
                                <path d="M89.9594256,46.5652174 L101.318055,28.7099272 C102.118223,27.4543739 101.712737,25.8071992 100.409855,25.0329992 L91.588569,19.7979331 C90.2864067,19.0251243 88.5823601,19.4188325 87.7814726,20.6764726 L81.1251758,31.1389534 C85.0194191,35.5768649 88.0277887,40.7792381 89.9594256,46.5652174" id="Fill-1"></path>
                                <path d="M30.9048289,23.2826087 C36.2042017,20.3163239 41.8399444,18.5300967 47.5616712,17.9239272 L50.1583914,5.55161414 C50.4720615,4.06380888 49.5633814,2.59537234 48.1408602,2.26969076 L38.481061,0.0645251992 C37.0544126,-0.261873738 35.6463368,0.682172418 35.3340425,2.16997768 L30.9048289,23.2826087" id="Fill-2"></path>
                                <path d="M65.6447767,22.9473314 C39.4257276,14.0715369 11.7504929,31.9794538 2.57540241,67.0827393 C4.97831887,68.4192031 7.3931483,69.7249596 9.82619758,70.9972173 C9.95303569,70.2790861 10.0938891,69.5525802 10.2669775,68.7988565 C13.9452827,52.7857173 22.7181352,39.8956463 34.3388887,33.4387466 C43.1131427,28.5604793 53.0821977,27.616231 62.4128576,30.7755895 L62.4703202,30.7930368 L62.5186728,30.8167652 C71.4393863,34.9873696 77.9648917,42.5539181 80.8891759,52.1276049 C84.7615925,64.8069125 82.1085036,80.1549603 73.6054449,94.2300525 C73.2074115,94.8923523 72.8016697,95.5141743 72.3945263,96.119247 C75.0307969,96.8806475 77.6768781,97.6092471 80.3383762,98.3043478 C98.1798032,66.6814512 90.7110707,34.6628497 65.6447767,22.9473314" id="Fill-3"></path>
                                <path d="M45.1767769,109.061383 C41.6108296,108.575085 37.5315489,107.418996 33.0779772,105.634976 C29.1496769,104.062359 25.6750201,102.2902 23.450341,101.08248 C16.9757381,97.8653834 7.02366949,90.1732359 8.81436768,73.8707669 C6.29685669,72.5590901 3.79128368,71.2195052 1.30747994,69.8478261 C1.29975536,69.8750364 1.29273302,69.9050375 1.28851961,69.9287593 C-4.01405376,92.9542699 8.13530684,103.800024 17.9729112,108.693695 C23.7663465,111.845208 34.7275262,117.177034 44.7877389,118.557784 C54.9820784,120.19738 68.1861954,117.906131 78.5069371,100.858518 C78.5181728,100.834099 78.5350265,100.811075 78.5497734,100.78526 C75.8040362,100.062442 73.0660235,99.2977625 70.3392466,98.5051747 C62.1069505,109.122083 52.2960311,110.207007 45.1767769,109.061383" id="Fill-4"></path>
                                <path d="M53.8389832,96.928123 C54.4152138,97.1618841 55.0726534,96.8840708 55.3063941,96.3000234 L63.0000618,77.0953792 C63.2309778,76.5177265 62.9527487,75.8519693 62.3765181,75.6196293 L32.4075814,63.4633432 C31.8299384,63.2274505 31.173205,63.5130796 30.9401705,64.0900218 L23.2450904,83.2939554 C23.0106436,83.8765818 23.2931097,84.5373653 23.8693403,84.7718369 L53.8389832,96.928123 Z" id="Fill-5"></path>
                            </g>
                            <path d="M24.0873793,99.2254304 C26.2948371,100.427421 29.6923844,102.160913 33.5301594,103.699545 C37.831332,105.425355 41.7477441,106.534455 45.1768867,107.005892 C55.844862,108.728908 64.553227,104.135363 71.0787083,93.3446866 C79.3047185,79.7442442 81.8934262,64.9732404 78.1771176,52.8241265 C75.4213059,43.8144358 69.2826914,36.6863038 60.8909814,32.753469 C52.102575,29.7977317 42.7117517,30.6938118 34.4457207,35.2859604 C23.2981991,41.4754084 14.8622557,53.8983051 11.3046256,69.3712267 C7.30044876,86.7885652 16.0467281,95.2199594 24.0873793,99.2254304 L24.0873793,99.2254304 Z M32.9400895,61.0981687 L62.9756129,72.8897944 C65.1784256,73.7546469 66.2483429,76.2017314 65.3602832,78.3483572 L57.6507929,96.9726619 C56.7613179,99.1179095 54.2464461,100.159178 52.0443411,99.2922582 L22.0109405,87.5026998 C19.8095431,86.63578 18.7389181,84.1900737 19.6291007,82.0434479 L27.3385911,63.4191432 C28.2266508,61.2725174 30.7393997,60.2333162 32.9400895,61.0981687 Z" id="Fill-6"></path>
                            <path d="M133.354581,54.036129 L133.354581,41.1922581 L142.773419,41.1922581 C152.314581,41.1922581 157.452129,34.8314839 157.452129,27.2474839 C157.452129,19.6023226 152.314581,13.2415484 142.773419,13.2415484 L121,13.2415484 L121,54.036129 L133.354581,54.036129 Z M141.183226,30.427871 L133.354581,30.427871 L133.354581,24.0059355 L141.183226,24.0059355 C143.26271,24.0059355 144.914065,25.0456774 144.914065,27.2474839 C144.914065,29.388129 143.26271,30.427871 141.183226,30.427871 L141.183226,30.427871 Z M172.853161,54.036129 L172.853161,35.9323871 C174.076387,34.4645161 177.07329,33.8529032 179.397419,33.8529032 C180.437161,33.8529032 181.354581,33.9752258 181.905032,34.1587097 L181.905032,23.6389677 C178.541161,23.6389677 174.688,25.596129 172.853161,27.7367742 L172.853161,24.4952258 L161.844129,24.4952258 L161.844129,54.036129 L172.853161,54.036129 Z M200.853419,54.7700645 C211.373161,54.7700645 217.48929,47.491871 217.48929,39.2350968 C217.48929,30.9783226 211.373161,23.7612903 200.853419,23.7612903 C190.394839,23.7612903 184.27871,30.9783226 184.27871,39.2350968 C184.27871,47.491871 190.394839,54.7700645 200.853419,54.7700645 L200.853419,54.7700645 Z M200.853419,45.0454194 C197.489548,45.0454194 195.593548,42.5378065 195.593548,39.2350968 C195.593548,35.9935484 197.489548,33.4859355 200.853419,33.4859355 C204.278452,33.4859355 206.174452,35.9935484 206.174452,39.2350968 C206.174452,42.5378065 204.278452,45.0454194 200.853419,45.0454194 L200.853419,45.0454194 Z M227.691613,22.3545806 C231.116645,22.3545806 233.868903,19.6023226 233.868903,16.1772903 C233.868903,12.7522581 231.116645,10 227.691613,10 C224.266581,10 221.514323,12.7522581 221.514323,16.1772903 C221.514323,19.6023226 224.266581,22.3545806 227.691613,22.3545806 L227.691613,22.3545806 Z M220.90271,66.0237419 C229.46529,66.0237419 233.196129,60.3357419 233.196129,52.7517419 L233.196129,24.4952258 L222.187097,24.4952258 L222.187097,52.7517419 C222.187097,55.5651613 220.963871,57.0330323 218.945548,57.0330323 C218.578581,57.0330323 218.08929,57.0330323 217.477677,56.9107097 L217.477677,65.7790968 C218.395097,65.9625806 219.496,66.0237419 220.90271,66.0237419 L220.90271,66.0237419 Z M254.346323,54.7700645 C258.749936,54.7700645 264.009807,53.608 266.945548,51.1003871 L262.419613,44.3114839 C260.951742,45.595871 257.282065,46.3909677 255.63071,46.3909677 C252.022194,46.3909677 249.881548,44.556129 249.269936,42.660129 L269.330839,42.660129 L269.330839,40.3971613 C269.330839,29.9997419 262.664258,23.7612903 253.979355,23.7612903 C244.438194,23.7612903 237.893936,30.6725161 237.893936,39.2350968 C237.893936,48.9597419 245.110968,54.7700645 254.346323,54.7700645 L254.346323,54.7700645 Z M258.872258,35.6877419 L249.147613,35.6877419 C249.514581,34.3421935 250.615484,32.1403871 253.979355,32.1403871 C257.52671,32.1403871 258.566452,34.4033548 258.872258,35.6877419 L258.872258,35.6877419 Z M288.279226,54.7700645 C295.006968,54.7700645 299.165936,51.6508387 300.81729,49.2043871 L293.722581,42.4766452 C292.805161,43.8221935 291.092645,45.0454194 288.768516,45.0454194 C285.64929,45.0454194 282.958194,43.0270968 282.958194,39.2350968 C282.958194,35.4430968 285.64929,33.4859355 288.768516,33.4859355 C291.092645,33.4859355 292.805161,34.5868387 293.722581,35.9935484 L300.81729,29.3269677 C299.165936,26.8193548 295.006968,23.7612903 288.279226,23.7612903 C278.921549,23.7612903 271.704516,29.8774194 271.704516,39.2350968 C271.704516,48.6539355 278.921549,54.7700645 288.279226,54.7700645 L288.279226,54.7700645 Z M317.441549,54.7700645 C321.172387,54.7700645 323.741161,53.8526452 324.903226,52.8129032 L322.946065,44.4949677 C322.701419,44.7396129 321.722839,45.0454194 320.744258,45.0454194 C319.276387,45.0454194 318.297807,43.8221935 318.297807,42.2931613 L318.297807,34.0363871 L324.291613,34.0363871 L324.291613,24.4952258 L318.297807,24.4952258 L318.297807,16.4219355 L307.288774,16.4219355 L307.288774,24.4952258 L302.395871,24.4952258 L302.395871,34.0363871 L307.288774,34.0363871 L307.288774,45.4735484 C307.288774,51.6508387 310.89729,54.7700645 317.441549,54.7700645 L317.441549,54.7700645 Z M135.54237,99.036129 C141.39241,99.036129 144.93193,95.644089 144.93193,90.1873291 C144.93193,86.3036891 142.03149,82.6658491 138.54113,82.1250891 C141.49073,81.5351691 144.29285,78.7330491 144.29285,74.6036091 C144.29285,69.4418091 140.75333,66.2464091 135.24741,66.2464091 L121.77757,66.2464091 L121.77757,99.036129 L135.54237,99.036129 Z M134.90329,80.9452491 L124.57969,80.9452491 L124.57969,68.8027291 L134.90329,68.8027291 C139.13105,68.8027291 141.34325,71.5556891 141.34325,74.8985691 C141.34325,78.2906091 139.13105,80.9452491 134.90329,80.9452491 L134.90329,80.9452491 Z M135.09993,96.479809 L124.57969,96.479809 L124.57969,83.5015691 L135.09993,83.5015691 C139.67181,83.5015691 141.98233,86.6478091 141.98233,89.9906891 C141.98233,93.972649 139.42601,96.479809 135.09993,96.479809 L135.09993,96.479809 Z M170.11193,99.036129 L170.11193,82.3217291 C170.11193,77.0124491 166.27745,74.7019291 161.45977,74.7019291 C157.52697,74.7019291 154.77401,76.0292491 152.31601,78.6838891 L153.74165,80.4536491 C155.90469,77.9956491 158.21521,76.9632891 161.16481,76.9632891 C164.70433,76.9632891 167.55561,78.8805291 167.55561,82.4200491 L167.55561,87.2377291 C165.49089,84.9272091 162.78709,83.8456891 159.49337,83.8456891 C155.36393,83.8456891 151.18533,86.5494891 151.18533,91.7112891 C151.18533,96.823929 155.41309,99.626049 159.49337,99.626049 C162.78709,99.626049 165.44173,98.544529 167.55561,96.234009 L167.55561,99.036129 L170.11193,99.036129 Z M160.37825,97.610489 C156.44545,97.610489 153.88913,95.103329 153.88913,91.7604491 C153.88913,88.3684091 156.44545,85.8612491 160.37825,85.8612491 C163.22953,85.8612491 165.88417,86.9919291 167.55561,89.1549691 L167.55561,94.365929 C165.88417,96.528969 163.22953,97.610489 160.37825,97.610489 L160.37825,97.610489 Z M188.85197,99.626049 C192.98141,99.626049 195.34109,98.003769 197.25833,95.545769 L195.48857,93.972649 C193.76797,96.332329 191.60493,97.315529 188.99945,97.315529 C183.44437,97.315529 180.05233,92.8419691 180.05233,87.1394091 C180.05233,81.4368491 183.44437,77.0124491 188.99945,77.0124491 C191.60493,77.0124491 193.76797,77.9464891 195.48857,80.3061691 L197.25833,78.7330491 C195.34109,76.3242091 192.98141,74.7019291 188.85197,74.7019291 C181.87125,74.7019291 177.29937,80.2078491 177.29937,87.1394091 C177.29937,94.070969 181.87125,99.626049 188.85197,99.626049 L188.85197,99.626049 Z M223.47069,99.036129 L212.45885,86.0087291 L223.51985,75.2918491 L220.12781,75.2918491 L206.11721,88.8600091 L206.11721,66.2464091 L203.56089,66.2464091 L203.56089,99.036129 L206.11721,99.036129 L206.11721,91.9079291 L210.54161,87.7293291 L220.02949,99.036129 L223.47069,99.036129 Z M239.80189,99.626049 C246.14353,99.626049 250.42045,94.710049 250.42045,87.1394091 C250.42045,79.5196091 246.14353,74.7019291 239.80189,74.7019291 C236.26237,74.7019291 233.21445,76.6191691 231.54301,79.0280091 L231.54301,75.2918491 L228.98669,75.2918491 L228.98669,108.081569 L231.54301,108.081569 L231.54301,95.201649 C233.46025,97.905449 236.45901,99.626049 239.80189,99.626049 L239.80189,99.626049 Z M239.35945,97.315529 C236.06573,97.315529 232.91949,95.250809 231.54301,92.9894491 L231.54301,81.2402091 C232.91949,78.9788491 236.06573,77.0124491 239.35945,77.0124491 C244.66873,77.0124491 247.66749,81.3876891 247.66749,87.1394091 C247.66749,92.8911291 244.66873,97.315529 239.35945,97.315529 L239.35945,97.315529 Z M275.10885,99.036129 L275.10885,82.3217291 C275.10885,77.0124491 271.27437,74.7019291 266.45669,74.7019291 C262.52389,74.7019291 259.77093,76.0292491 257.31293,78.6838891 L258.73857,80.4536491 C260.90161,77.9956491 263.21213,76.9632891 266.16173,76.9632891 C269.70125,76.9632891 272.55253,78.8805291 272.55253,82.4200491 L272.55253,87.2377291 C270.48781,84.9272091 267.78401,83.8456891 264.49029,83.8456891 C260.36085,83.8456891 256.18225,86.5494891 256.18225,91.7112891 C256.18225,96.823929 260.41001,99.626049 264.49029,99.626049 C267.78401,99.626049 270.43865,98.544529 272.55253,96.234009 L272.55253,99.036129 L275.10885,99.036129 Z M265.37517,97.610489 C261.44237,97.610489 258.88605,95.103329 258.88605,91.7604491 C258.88605,88.3684091 261.44237,85.8612491 265.37517,85.8612491 C268.22645,85.8612491 270.88109,86.9919291 272.55253,89.1549691 L272.55253,94.365929 C270.88109,96.528969 268.22645,97.610489 265.37517,97.610489 L265.37517,97.610489 Z M293.84889,99.626049 C297.97833,99.626049 300.33801,98.003769 302.25525,95.545769 L300.48549,93.972649 C298.76489,96.332329 296.60185,97.315529 293.99637,97.315529 C288.44129,97.315529 285.04925,92.8419691 285.04925,87.1394091 C285.04925,81.4368491 288.44129,77.0124491 293.99637,77.0124491 C296.60185,77.0124491 298.76489,77.9464891 300.48549,80.3061691 L302.25525,78.7330491 C300.33801,76.3242091 297.97833,74.7019291 293.84889,74.7019291 C286.86817,74.7019291 282.29629,80.2078491 282.29629,87.1394091 C282.29629,94.070969 286.86817,99.626049 293.84889,99.626049 L293.84889,99.626049 Z M328.46761,99.036129 L317.45577,86.0087291 L328.51677,75.2918491 L325.12473,75.2918491 L311.11413,88.8600091 L311.11413,66.2464091 L308.55781,66.2464091 L308.55781,99.036129 L311.11413,99.036129 L311.11413,91.9079291 L315.53853,87.7293291 L325.02641,99.036129 L328.46761,99.036129 Z" id="Project"></path>
                        </g>
                    </g>
                </g>
            </g>
        </g>
    </g>
</svg>