<?xml version="1.0" encoding="UTF-8" standalone="no"?>
<svg width="28px" height="34px" viewBox="0 0 28 34" version="1.1" xmlns="http://www.w3.org/2000/svg" xmlns:xlink="http://www.w3.org/1999/xlink" xmlns:sketch="http://www.bohemiancoding.com/sketch/ns">
    <!-- Generator: Sketch 3.2.2 (9983) - http://www.bohemiancoding.com/sketch -->
    <title>Imported-Layers_1_</title>
    <desc>Created with Sketch.</desc>
    <defs></defs>
    <g id="Page-1" stroke="none" stroke-width="1" fill="none" fill-rule="evenodd" sketch:type="MSPage">
        <g id="anchor" sketch:type="MSLayerGroup" fill="#494949">
            <g id="Designs" sketch:type="MSShapeGroup">
                <g id="About-Us" transform="translate(0.454054, 0.000000)">
                    <g id="navigation">
                        <g id="LOGO">
                            <g id="Group">
                                <path d="M0.381639697,24.179518 C0.418764065,24.1047745 0.418764065,24.0487169 0.437326249,23.9739734 C0.437326249,23.8805441 0.455888432,23.8244865 0.455888432,23.7310571 C0.474450616,23.4133973 0.530136714,23.1331092 0.567261081,22.8341353 C0.67863373,22.1801297 0.864255114,21.5261242 1.10556305,20.8721187 C1.45824318,19.9378251 1.90373423,19.0595892 2.47916011,18.2374108 C2.66478149,17.9571228 2.86896506,17.6955205 3.09171036,17.4339183 C3.11027254,17.4152325 3.12883472,17.3965466 3.16595909,17.3591749 C3.29589392,17.8263216 3.40726657,18.218725 3.53720141,18.6111283 C3.75994716,19.1717044 4.01981682,19.7135947 4.31681085,20.2367991 C4.63236707,20.7786894 4.94792329,21.2832079 5.31916605,21.7690406 C5.54191135,22.0680145 5.7646571,22.3483026 6.00596458,22.6285907 C5.72753274,22.7033342 5.4305387,22.7033342 5.13354467,22.6846483 C4.57668052,22.6659624 4.33537304,22.6659624 4.22400039,22.6846483 C4.24256257,22.72202 4.26112476,22.7593918 4.27968649,22.7780776 C4.63236707,23.4133973 5.07785812,23.9739734 5.653284,24.478492 C6.00596458,24.8148377 6.41433126,25.0951257 6.84126013,25.3380421 C7.02688151,25.4501573 7.2125029,25.5622725 7.41668646,25.6557019 C7.97355016,25.8799324 8.54897604,25.9546758 9.14296411,25.8051889 C9.99682184,25.6183302 10.6279343,25.1511833 11.0548631,24.4224344 C11.2961711,23.9926593 11.4632303,23.5255125 11.5931651,23.0583657 C11.7045378,22.572533 11.7787865,22.0680145 11.8344726,21.5821819 C11.871597,21.2271503 11.8901591,20.834747 11.9087213,20.4797154 C11.9087213,20.3489143 11.9087213,20.1807415 11.9272835,20.0499404 C11.9458457,19.7883382 11.9458457,19.5454218 11.9644074,19.2838196 C11.9644074,19.1156468 11.9644074,18.9287881 11.9829696,18.7419293 C12.0015318,18.4616413 12.0015318,18.2000391 12.020094,17.9384369 C12.0386562,17.6768346 12.0386562,17.3965466 12.0386562,17.1349444 C12.0386562,16.8546563 12.0572183,16.5743682 12.0572183,16.312766 C12.0757805,16.0137921 12.0757805,15.733504 12.0757805,15.4158442 C12.0757805,15.1916137 12.0943427,14.9860691 12.0943427,14.7618387 C12.0943427,14.5376082 12.1129044,14.2946919 12.1129044,14.0704614 C12.1129044,13.8462309 12.1314666,13.6033146 12.1314666,13.3790842 C12.1314666,13.1361678 12.1500288,12.8745656 12.1500288,12.6316493 C12.1500288,12.3513612 12.168591,12.0710731 12.168591,11.8094709 C12.1871532,11.4918111 12.1871532,11.211523 12.2057154,10.8938632 L12.2057154,10.7070045 C11.6302895,10.7070045 11.1291119,10.6883187 10.6464965,10.6883187 L10.2938163,10.6883187 C10.0525084,10.6883187 9.81120091,10.6696328 9.56989297,10.6696328 C9.21721284,10.6696328 8.88309444,10.6509469 8.53041386,10.6509469 C8.19629546,10.6509469 7.86217751,10.632261 7.52805911,10.632261 L7.08256806,10.632261 L6.93407105,10.632261 C6.91550886,10.5948893 6.89694668,10.5762034 6.85982231,10.5388317 C6.56282828,10.1090566 6.26583425,9.67928157 5.96884022,9.24950652 C5.7646571,8.95053255 5.56047354,8.67024448 5.35628997,8.35258466 C5.35628997,8.27784119 5.39341434,8.27784119 5.4305387,8.27784119 L6.08021286,8.27784119 L7.58374566,8.27784119 L8.40047903,8.27784119 L9.60701734,8.27784119 L11.6117273,8.27784119 L12.2428397,8.27784119 C12.317088,8.25915529 12.3356502,8.25915529 12.3356502,8.24046943 C12.3727746,7.58646393 12.3913367,6.93245842 12.4284606,6.27845292 C12.3913367,6.16633769 12.3356502,6.14765179 12.317088,6.12896594 C12.0015318,5.99816481 11.7230999,5.79262026 11.4632303,5.56838976 C10.8692422,5.02649948 10.4979994,4.37249399 10.405189,3.60637325 C10.3495024,3.25134168 10.3680646,2.87762425 10.4794373,2.52259269 C10.6279343,1.88727305 10.9806149,1.3266969 11.5189164,0.878235971 C11.9087213,0.523204408 12.3542124,0.298973948 12.8739517,0.149486974 C13.0966974,0.074743487 13.3380049,0.0373717435 13.5607507,0.0186858717 C13.5793129,0.0186858717 14.2104248,0 14.2104248,0 C14.228987,0.0373717435 14.2661114,0.0186858717 14.3032358,0.0186858717 C14.6559163,0.0560576151 14.9529104,0.130801102 15.2870283,0.242916332 C16.1037621,0.560576151 16.7163124,1.08378056 17.1061169,1.81252956 C17.4216731,2.39179158 17.514484,3.00842535 17.4402353,3.64374499 C17.3845487,4.07352004 17.2360517,4.46592335 17.0133064,4.85832664 C16.6606258,5.43758867 16.1408865,5.88604958 15.4912119,6.16633769 C15.4169632,6.31582463 15.3984014,6.409254 15.3984014,6.50268337 L15.3984014,6.83902905 C15.3984014,7.15668888 15.3984014,7.45566285 15.4169632,7.75463677 C15.4169632,7.92280961 15.4169632,8.10966835 15.4355253,8.29652705 C15.4912119,8.35258466 15.4912119,8.35258466 15.5097741,8.35258466 L22.4148856,8.35258466 L22.507696,8.35258466 C21.9322701,9.1934489 21.4125308,9.95956963 20.8556667,10.7256904 C20.8371045,10.7443763 20.6886075,10.7630621 20.6886075,10.7630621 L15.8624547,10.7630621 L15.7510816,10.7630621 C15.6768333,10.8564915 15.6768333,10.9125491 15.6768333,11.0059785 C15.6768333,11.3049524 15.6953955,11.5852405 15.6953955,11.8655285 L15.6953955,12.1458166 C15.6953955,12.4074189 15.7139576,12.6877069 15.7139576,12.9493091 C15.7139576,13.2482831 15.7325194,13.5285711 15.7325194,13.8088592 C15.7325194,14.1638908 15.7510816,14.5189224 15.7696437,14.8739539 C15.7696437,15.1729279 15.7882059,15.4532159 15.7882059,15.733504 L15.7882059,16.0137921 C15.7882059,16.2753943 15.8067681,16.5556824 15.8067681,16.8172845 C15.8067681,17.1162585 15.8253303,17.3965466 15.8253303,17.6768346 L15.8253303,17.9571228 C15.8253303,18.2374108 15.8438925,18.499013 15.8438925,18.7606152 C15.8438925,19.0595892 15.8624547,19.3398772 15.8624547,19.6201653 L15.8624547,19.9004534 C15.8624547,20.1620556 15.8810164,20.4423437 15.8810164,20.7039459 C15.8810164,21.0029198 15.8995786,21.2832079 15.8995786,21.563496 C15.8995786,21.8437841 15.9181408,22.1240721 15.9181408,22.4043602 C15.9181408,22.6285907 15.9367029,22.8341353 15.9738273,23.0583657 C16.0109517,23.3573397 16.0852,23.6563136 16.1780104,23.9552876 C16.2893835,24.3103191 16.4564427,24.627979 16.6606258,24.9269529 C16.8648094,25.207241 17.1246791,25.4314715 17.4402353,25.5996443 C17.8300398,25.8238748 18.2569691,25.93599 18.7210223,25.9546758 C19.0737025,25.9733617 19.4449452,25.9546758 19.7790636,25.8799324 C20.0203711,25.8238748 20.2616786,25.7678171 20.5029865,25.6930736 C20.744294,25.6183302 20.9856015,25.5249008 21.1897851,25.3940997 C21.6352761,25.1511833 22.0065189,24.8522094 22.359199,24.5158637 C22.8046901,24.0674028 23.1573706,23.5815701 23.4729269,23.0396799 C23.491489,23.0023081 23.5100512,22.9649364 23.5286134,22.9275646 C23.4172403,22.8901929 23.3058677,22.871507 23.1759328,22.8528212 C23.0645602,22.8341353 22.9531871,22.8154494 22.8232522,22.7967635 C22.7118796,22.7780776 22.6005069,22.7593918 22.4891343,22.7407059 C22.3777612,22.72202 22.2663885,22.7033342 22.1364537,22.6846483 C22.0250811,22.6659624 21.913708,22.6472766 21.7837731,22.6285907 C21.6724005,22.6099048 21.5610278,22.5912189 21.431093,22.5538472 C21.4682169,22.5351613 21.4867791,22.4977896 21.5239035,22.4791037 C21.8394597,22.2735591 22.0993293,22.0306428 22.359199,21.7877265 C22.7304418,21.4326949 23.0645602,21.0029198 23.3801164,20.5731448 C23.8256074,19.956511 24.1782876,19.3025055 24.512406,18.6111283 C24.6794652,18.2374108 24.8650866,17.8636934 24.9950214,17.4712901 C25.0135836,17.4526042 25.0135836,17.4152325 25.0321458,17.3778607 C25.0692697,17.4152325 25.0878318,17.4339183 25.106394,17.4526042 C25.9045657,18.3308402 26.4985537,19.3398772 26.8326721,20.4423437 C26.9811691,20.9655481 27.111104,21.4887525 27.111104,22.0493287 C27.111104,22.0867004 27.1296662,23.0957375 27.1296662,23.0957375 C27.111104,23.2639103 27.111104,23.3573397 27.0925418,23.450769 C27.0739796,23.6563136 27.0368552,23.8805441 26.9811691,24.0860887 C26.9811691,24.1234604 26.962607,24.1608322 26.9440448,24.1982039 C26.4428672,23.9739734 25.94169,23.7310571 25.4405124,23.5068267 C25.3848259,23.7871147 25.347702,23.9739734 25.3105776,24.179518 C25.1435184,24.8895811 24.8650866,25.5435867 24.4752816,26.1602204 C24.1040393,26.7394825 23.6399861,27.2813727 23.1016841,27.7485196 C22.749004,28.0474935 22.3963234,28.3277815 22.0250811,28.5706979 C21.4682169,28.9257294 20.8742288,29.2433893 20.2616786,29.5236774 C19.5563179,29.8413371 18.832395,30.0842535 18.0899099,30.2524263 C18.0527855,30.2524263 17.997099,30.2711122 17.9785368,30.2897981 C17.7929159,30.3645416 17.6072945,30.4392851 17.4031109,30.5327144 C16.7163124,30.8503742 16.1223243,31.2801493 15.5654602,31.7659819 C15.21278,32.1023277 14.8786616,32.4386734 14.5816676,32.8123908 C14.3589223,33.1113647 14.1361766,33.3916528 13.9691174,33.7279985 L13.8020582,33.7279985 C13.6721233,33.3916528 13.5050641,33.1113647 13.3380049,32.8684484 C13.003887,32.3639298 12.5955198,31.9341548 12.1314666,31.5417515 C11.6488517,31.1306623 11.1291119,30.7756308 10.5722482,30.4953427 C10.4794373,30.4579709 10.405189,30.4205992 10.3123781,30.3832275 C10.2010054,30.3458557 10.0525084,30.308484 9.94113574,30.2711122 C8.92021881,29.9347665 7.95498798,29.5236774 7.02688151,29.0191588 C6.00596458,28.4585827 5.0964203,27.8045772 4.31681085,27.0197705 C3.61145014,26.3097074 3.01746208,25.5249008 2.57197103,24.6653507 C2.34922528,24.2355756 2.16360435,23.7871147 2.03366906,23.3012821 C1.97798296,23.2452244 1.95942078,23.2452244 1.94085859,23.2639103 C1.84804813,23.3199679 1.75523721,23.3760255 1.66242675,23.4320831 C1.25406006,23.6936854 0.84569293,23.9739734 0.418764065,24.2355756 C0.474450616,24.2916332 0.437326249,24.329005 0.381639697,24.329005 L0.381639697,24.179518 L0.381639697,24.179518 Z M15.7696437,3.15791233 C15.7696437,2.16756112 14.8972238,1.42012625 13.8948691,1.42012625 C12.8925139,1.42012625 12.0015318,2.16756112 12.0015318,3.15791233 C12.0015318,4.14826353 12.8739517,4.8956984 13.8577447,4.8956984 C14.8600995,4.91438425 15.7696437,4.1669494 15.7696437,3.15791233 L15.7696437,3.15791233 L15.7696437,3.15791233 Z" id="Imported-Layers_1_"></path>
                            </g>
                        </g>
                    </g>
                </g>
            </g>
        </g>
    </g>
</svg>