<?xml version="1.0" encoding="utf-8"?>
<!-- Generator: Adobe Illustrator 18.0.0, SVG Export Plug-In . SVG Version: 6.00 Build 0)  -->
<!DOCTYPE svg PUBLIC "-//W3C//DTD SVG 1.1//EN" "http://www.w3.org/Graphics/SVG/1.1/DTD/svg11.dtd">
<svg version="1.1" id="Layer_1" xmlns:sketch="http://www.bohemiancoding.com/sketch/ns"
	 xmlns="http://www.w3.org/2000/svg" xmlns:xlink="http://www.w3.org/1999/xlink" x="0px" y="0px"
	 viewBox="105.6 215.1 455.2 334.7" enable-background="new 105.6 215.1 455.2 334.7" xml:space="preserve">
<title>Desktop</title>
<desc>Created with Sketch.</desc>
<g id="Page-1" sketch:type="MSPage">
	<g id="Desktop" sketch:type="MSArtboardGroup">
		
			<rect id="Rectangle-6" x="-308.6" y="174.8" sketch:type="MSShapeGroup" display="none" fill="#4BD0FF" width="1417.1" height="607.7">
		</rect>
		<g id="water-splash" transform="translate(361.000000, 231.000000)" sketch:type="MSLayerGroup">
			<g id="Layer-1">
			</g>
		</g>
		<g id="Imported-Layers" transform="translate(-443.000000, 442.000000)" sketch:type="MSLayerGroup" display="none">
			<g id="Fill-1-_x2B_-Fill-2" sketch:type="MSShapeGroup" display="inline">
				<path id="Fill-11" fill="#30AEDB" d="M137,186.9v-40.8c17.5,13,23.3,13,44.3,0.4c19,12.8,24.4,12.8,44.2-0.4
					c16.8,13.1,25.6,13.1,43.9-0.1c0.1,0.1,0.2,0.1,0.2,0.2l0,0v-0.1c17.5,13,23.3,13,44.3,0.4c19.1,12.8,24.5,12.8,44.2-0.4
					c16.6,13,25.4,13.1,43.2,0.4v-0.4c0.1,0.1,0.2,0.2,0.3,0.2c0.2-0.1,0.3-0.2,0.5-0.3c1.3,1,2.5,2.1,3.6,3.2
					c14.2,9.7,20.4,8.6,39.5-2.9c19.1,12.8,25,13,44.7-0.2c16.8,13,25.7,13,43.9-0.2c0.1,0.1,0.2,0.1,0.2,0.2l0,0v-0.1
					c17.5,13,23.3,13,44.3,0.4c19.1,12.8,24.5,12.8,44.2-0.4c16.6,13,25.4,13.1,43.2,0.4v-0.4c0.1,0.1,0.2,0.2,0.3,0.2
					c0.2-0.1,0.3-0.2,0.5-0.3c1.3,1,2.5,2,3.6,3.2c14.2,9.8,20.8,8.8,40-2.7c19.1,12.7,24.5,12.7,44.3-0.5
					c16.7,13.1,25.6,13.1,43.9-0.1c0.1,0.1,0.2,0.1,0.2,0.2l0,0v-0.1c17.5,13,23.3,13,44.3,0.4c19.1,12.8,24.4,12.8,44.2-0.4
					c16.6,13,25.4,13.1,43.2,0.4v-0.4c0.1,0.1,0.2,0.2,0.3,0.2c0.2-0.1,0.3-0.2,0.5-0.3c1.3,1,2.5,2,3.6,3.2
					c14.2,9.8,20.8,8.8,40-2.7c19.1,12.8,24.5,12.8,44.2-0.4c16.8,13.2,25.7,13.1,43.9-0.1c0.1,0.1,0.2,0.1,0.2,0.2l0,0v-0.2
					c17.5,13,23.7,12.9,44.7,0.2c19.1,12.8,24.1,13,43.8-0.2c16.8,13.2,25.7,13.1,43.9-0.1c0.1,0.1,0.2,0.1,0.2,0.2v-0.1
					c17.5,13,23.3,13,44.3,0.4c19.1,12.8,24.5,12.8,44.2-0.4c16.8,13.2,25.7,13.1,43.9-0.1c0.1,0.1,0.2,0.1,0.2,0.2l0,0v-0.1
					c17.5,13,23.3,13,44.3,0.4c19.1,12.8,24.5,12.8,44.2-0.4c16.6,13,25.4,13.1,43.2,0.4v-0.4c0.1,0.1,0.2,0.2,0.3,0.2
					c0.2-0.1,0.3-0.2,0.5-0.3c1.3,1,2.5,2,3.6,3.2c14.2,9.8,20.8,8.8,40-2.7c19.1,12.8,24.5,12.8,44.2-0.4
					c16.8,13.2,25.7,13.1,43.9-0.1c0.1,0.1,0.2,0.1,0.2,0.2v-0.2c17.5,13,23.3,13,44.3,0.4c19.1,12.8,24.5,12.8,44.2-0.4
					c16.6,13,25.4,13.1,43.2,0.4l0,0v-0.4c0.1,0.1,0.2,0.2,0.3,0.2c0.2-0.1,0.3-0.2,0.5-0.3c1.3,1,2.5,2,3.6,3.2
					c14.2,9.8,20.8,8.8,40-2.7c19.1,12.8,24.5,12.8,44.2-0.4c16.8,13.2,25.7,13.1,43.9-0.1c0.1,0.1,0.2,0.1,0.2,0.2v-0.2
					c17.5,13,23.3,13,44.3,0.4c19.1,12.8,24.5,12.8,44.2-0.4c16.6,13,25.4,13.1,43.2,0.4l0,0v-0.4c0.1,0.1,0.2,0.2,0.3,0.2
					c0.2-0.1,0.3-0.2,0.5-0.3c1.3,1,2.5,2,3.6,3.2c14.2,9.8,20.8,8.8,40-2.7c19.1,12.8,24.5,12.8,44.2-0.4
					c16.8,13.2,25.7,13.1,43.9-0.1c0.1,0.1,0.2,0.1,0.2,0.2v-0.2c17.5,13,23.3,13,44.3,0.4c19.1,12.8,24.5,12.8,44.2-0.4
					c16.8,13.2,25.7,13.1,43.9-0.1c16.9,13.2,21.2,39.8,39.6,26.6c0,0-5.6,73.4-4.6,39.7s33.2-7.9,33.2-7.9l-164.3,5
					c-1.1,11.6-1.9,17.9-1.6,2.9c0-1,0.1-1.9,0.2-2.9l-35,1v-4.1l0,0l-95.2,3c-1.1,11.7-1.9,17.9-1.6,2.9c0-1,0.1-1.9,0.2-2.9
					l-35.9,1.1v-4l-95.4,2.9c-1.1,11.6-1.9,17.9-1.6,2.9c0-1,0.1-1.9,0.2-2.9l-35,1v-4l0,0l-95.4,2.9c-1.1,11.7-1.9,17.9-1.6,2.9
					c0-1,0.1-1.9,0.2-2.9l-35.9,1.1v-4l-95.4,2.9c-1.1,11.6-1.9,17.9-1.6,2.9c0-1,0.1-1.9,0.2-2.9l-35,1v-3.9l-85.9,2.6v387.4H35.4
					V186.9H137z"/>
			</g>
		</g>
		<g id="Group" transform="translate(107.000000, 39.000000)" sketch:type="MSLayerGroup">
			<g sketch:type="MSShapeGroup">
				<path id="svg_9" fill="#30AEDB" d="M220.3,372.4c33.8-14.1,42.6,22,43.8,20c0.6-1-7.6-38.4-34.5-46.5
					c-12.1-3.6-22.8,0.2-26.6,9.7C200.2,362.8,201.1,380.3,220.3,372.4z"/>
				<path id="svg_23" fill="#49BBE4" d="M355.1,329.4c3.4,3.1,6.8,14.2-6.8,18.1c-23.9,6.9-21,32.9-22.2,32.2
					c-0.6-0.4-4.2-26.8,10.5-44.1C343.2,328,350.6,325.4,355.1,329.4L355.1,329.4z"/>
				<path id="svg_15" fill="#30AEDB" d="M371.7,359.6c2.6,5.7,2.9,19.4-11.7,12.8c-25.8-11.7-30.2,16.5-31.2,14.8
					c-0.6-0.8,3.3-29.9,22.8-35.7C360.3,348.9,368.3,352,371.7,359.6L371.7,359.6z"/>
				<path id="svg_3" fill="#49BBE4" d="M224.3,326.4c-3.4,4.3-5.4,18.3,11.7,20.4c29.9,3.6,31.5,35.2,32.9,34.1
					c0.6-0.6-0.4-32.8-21.3-50.7C238.3,322.3,228.9,320.7,224.3,326.4L224.3,326.4z"/>
				<path id="Imported-Layers_1_" fill="#494949" d="M220.7,306.1v-0.8c0.2-0.4,0.2-0.7,0.3-1.1c0-0.5,0.1-0.8,0.1-1.3
					c0.1-1.7,0.4-3.2,0.6-4.8c0.6-3.5,1.6-7,2.9-10.5c1.9-5,4.3-9.7,7.4-14.1c1-1.5,2.1-2.9,3.3-4.3c0.1-0.1,0.2-0.2,0.4-0.4
					c0.1,0.2,0.1,0.3,0.1,0.4c0.6,2.1,1.2,4.2,1.9,6.3c1.2,3,2.6,5.9,4.2,8.7c1.7,2.9,3.4,5.6,5.4,8.2c1.2,1.6,2.4,3.1,3.7,4.6
					c0.1,0.1,0.2,0.2,0.1,0.4c-1.6,0-3.2,0-4.8-0.1c-3-0.1-4.3-0.1-4.9,0c0.1,0.2,0.2,0.4,0.3,0.5c1.9,3.4,4.3,6.4,7.4,9.1
					c1.9,1.8,4.1,3.3,6.4,4.6c1,0.6,2,1.2,3.1,1.7c3,1.2,6.1,1.6,9.3,0.8c4.6-1,8-3.5,10.3-7.4c1.3-2.3,2.2-4.8,2.9-7.3
					c0.6-2.6,1-5.3,1.3-7.9c0.2-1.9,0.3-4,0.4-5.9c0-0.7,0-1.6,0.1-2.3c0.1-1.4,0.1-2.7,0.2-4.1c0-0.9,0-1.9,0.1-2.9
					c0.1-1.5,0.1-2.9,0.2-4.3c0.1-1.4,0.1-2.9,0.1-4.3c0-1.5,0.1-3,0.1-4.4c0.1-1.6,0.1-3.1,0.1-4.8c0-1.2,0.1-2.3,0.1-3.5
					c0-1.2,0.1-2.5,0.1-3.7s0.1-2.5,0.1-3.7c0-1.3,0.1-2.7,0.1-4c0-1.5,0.1-3,0.1-4.4c0.1-1.7,0.1-3.2,0.2-4.9c0-0.4,0-0.6,0-1
					c-0.2,0-0.3,0-0.4,0c-2.7,0-5.4-0.1-8-0.1c-0.6,0-1.3,0-1.9,0c-1.3,0-2.6-0.1-3.9-0.1c-1.9,0-3.7-0.1-5.6-0.1
					c-1.8,0-3.6-0.1-5.4-0.1c-0.8,0-1.7,0-2.4,0c-0.3,0-0.6,0-0.8,0c-0.1-0.2-0.2-0.3-0.4-0.5c-1.6-2.3-3.2-4.6-4.8-6.9
					c-1.1-1.6-2.2-3.1-3.3-4.8c-0.1-0.1-0.2-0.2-0.1-0.4c0.1,0,0.3,0,0.5,0c1.2,0,2.3,0,3.5,0c2.7,0,5.5,0,8.1,0c1.5,0,3,0,4.4,0
					c2.1,0,4.3,0,6.5,0c3.6,0,7.2,0,10.8,0c1.1,0,2.3,0,3.4,0c0.1,0,0.3,0,0.4,0c0-0.1,0.1-0.1,0.1-0.2c0.2-3.5,0.3-7,0.5-10.5
					c0-0.2,0-0.3,0-0.5c-0.2-0.1-0.5-0.2-0.6-0.3c-1.7-0.7-3.2-1.8-4.6-3c-3.2-2.9-5.2-6.4-5.7-10.5c-0.3-1.9-0.2-3.9,0.4-5.8
					c0.8-3.4,2.7-6.4,5.6-8.8c2.1-1.9,4.5-3.1,7.3-3.9c1.2-0.4,2.5-0.6,3.7-0.7c0.1,0,0.3,0,0.4-0.1h3.1c0.1,0.2,0.3,0.1,0.5,0.1
					c1.9,0.2,3.5,0.6,5.3,1.2c4.4,1.7,7.7,4.5,9.8,8.4c1.7,3.1,2.2,6.4,1.8,9.8c-0.3,2.3-1.1,4.4-2.3,6.5c-1.9,3.1-4.7,5.5-8.2,7
					c-0.1,0.1-0.3,0.1-0.4,0.2c0,0.6-0.1,1.1-0.1,1.6c0,0.6,0,1.2,0,1.8c0,1.7,0,3.3,0.1,4.9c0,0.9,0,1.9,0.1,2.9
					c0,0.1,0.1,0.2,0.1,0.3c0.1,0,0.1,0,0.1,0s0,0,0.1,0c0,0,0,0,0.1,0c0,0,0,0,0.1,0h0.1c12.3,0,24.6,0,37,0h0.1h0.1c0,0,0,0,0.1,0
					s0,0,0.1,0c0,0,0,0,0.1,0l0,0c0,0,0,0,0,0.1v0.1c0,0.1-0.1,0.1-0.1,0.2c-3,4.1-5.8,8.2-8.8,12.3l-0.1,0.1l0,0c0,0,0,0-0.1,0.1
					h-0.7h-26c-0.2,0-0.4,0-0.6,0c-0.1,0-0.2,0-0.4,0.1c0,0.4,0,0.7,0,1.2c0,1.6,0.1,3.1,0.1,4.6c0,0.5,0,1,0,1.5
					c0,1.4,0.1,2.9,0.1,4.3c0,1.6,0.1,3.1,0.1,4.6c0,1.9,0.1,3.8,0.2,5.7c0,1.6,0.1,3.1,0.1,4.6c0,0.5,0,1,0,1.5
					c0,1.4,0.1,2.9,0.1,4.3c0,1.6,0.1,3.1,0.1,4.6c0,0.5,0,1,0,1.5c0,1.5,0.1,2.9,0.1,4.3c0,1.6,0.1,3.1,0.1,4.6c0,0.5,0,1,0,1.5
					c0,1.4,0.1,2.9,0.1,4.3c0,1.6,0.1,3.1,0.1,4.6c0,1.5,0.1,3,0.1,4.5c0,1.2,0.1,2.3,0.3,3.5c0.2,1.6,0.6,3.2,1.1,4.8
					c0.6,1.9,1.5,3.6,2.6,5.2c1.1,1.5,2.5,2.7,4.2,3.6c2.1,1.2,4.4,1.8,6.9,1.9c1.9,0.1,3.9,0,5.7-0.4c1.3-0.3,2.6-0.6,3.9-1
					c1.3-0.4,2.6-0.9,3.7-1.6c2.4-1.3,4.4-2.9,6.3-4.7c2.4-2.4,4.3-5,6-7.9c0.1-0.2,0.2-0.4,0.3-0.6c-0.6-0.2-1.2-0.3-1.9-0.4
					c-0.6-0.1-1.2-0.2-1.9-0.3c-0.6-0.1-1.2-0.2-1.8-0.3c-0.6-0.1-1.2-0.2-1.9-0.3c-0.6-0.1-1.2-0.2-1.9-0.3
					c-0.6-0.1-1.2-0.2-1.9-0.4c0.2-0.1,0.3-0.3,0.5-0.4c1.7-1.1,3.1-2.4,4.5-3.7c2-1.9,3.8-4.2,5.5-6.5c2.4-3.3,4.3-6.8,6.1-10.5
					c0.9-2,1.9-4,2.6-6.1c0.1-0.1,0.1-0.3,0.2-0.5c0.2,0.2,0.3,0.3,0.4,0.4c4.3,4.7,7.5,10.1,9.3,16c0.8,2.8,1.5,5.6,1.5,8.6
					c0,0.2,0.1,0.3,0.1,0.5v5.1c-0.1,0.1-0.1,0.3-0.1,0.4c0,0.5,0,1-0.1,1.5c-0.1,1.1-0.3,2.3-0.6,3.4c0,0.2-0.1,0.4-0.2,0.6
					c-2.7-1.2-5.4-2.5-8.1-3.7c-0.1,0.2-0.1,0.4-0.1,0.5c-0.2,1-0.4,2-0.6,3.1c-0.9,3.8-2.4,7.3-4.5,10.6c-2,3.1-4.5,6-7.4,8.5
					c-1.9,1.6-3.8,3.1-5.8,4.4c-3,1.9-6.2,3.6-9.5,5.1c-3.8,1.7-7.7,3-11.7,3.9c-0.2,0-0.5,0.1-0.6,0.2c-1,0.4-2,0.8-3.1,1.3
					c-3.7,1.7-6.9,4-9.9,6.6c-1.9,1.8-3.7,3.6-5.3,5.6c-1.2,1.6-2.4,3.1-3.3,4.9H293c0-0.1,0-0.2-0.1-0.3c-0.6-1.5-1.5-3-2.4-4.3
					c-1.8-2.7-4-5-6.5-7.1c-2.6-2.2-5.4-4.1-8.4-5.6c-0.5-0.2-0.9-0.4-1.4-0.6c-0.6-0.2-1.4-0.4-2-0.6c-5.5-1.8-10.7-4-15.7-6.7
					c-5.5-3-10.4-6.5-14.6-10.7c-3.8-3.8-7-8-9.4-12.6c-1.2-2.3-2.2-4.7-2.9-7.3c0-0.1-0.1-0.3-0.1-0.4c-0.2,0.1-0.3,0.1-0.4,0.2
					c-0.5,0.3-1,0.6-1.5,0.9c-2.2,1.4-4.4,2.9-6.7,4.3C221.2,305.9,221,306.1,220.7,306.1L220.7,306.1z M303.6,192.8
					c0-5.3-4.7-9.3-10.1-9.3c-5.4,0-10.2,4-10.2,9.3s4.7,9.3,10,9.3C298.7,202.2,303.6,198.2,303.6,192.8L303.6,192.8z"/>
				<g id="Imported-Layers_2_" transform="translate(4.765178, 191.723010)">
					<path id="Fill-1" fill="#FFFFFF" d="M74.9,232.2c-0.6,0.6-1.5,1.3-2.5,2.1c-1,0.7-2.1,1.6-3.4,2.4c-1.3,0.8-2.6,1.6-4.1,2.3
						c-1.5,0.7-3,1.4-4.4,2c-1.5,0.6-3.1,1-4.6,1.4c-1.6,0.4-3.1,0.6-4.4,0.6c-1,0-2-0.2-3-0.5c-1-0.3-1.9-0.8-2.8-1.7
						c-0.8-0.8-1.5-1.9-2-3.4c-0.6-1.5-0.8-3.3-0.8-5.6c0-1,0.1-2,0.3-3.1c0.2-1.1,0.4-2.3,0.6-3.7c-1.8,3.1-3.7,5.9-5.9,8.3
						c-2.2,2.4-4.5,4.4-6.9,6.1c-2.5,1.7-5,2.9-7.7,3.7c-2.6,0.8-5.3,1.3-7.9,1.3c-2.9,0-5.6-0.5-8.2-1.4s-4.9-2.2-6.8-4.1
						c-1.9-1.8-3.5-4.1-4.7-6.8c-1.2-2.8-1.8-5.9-1.8-9.5c0-2.7,0.4-5.6,1-8.5c0.7-3,1.8-5.9,3.1-9s3-6,4.8-9s4.1-5.7,6.5-8.4
						s5.1-5.2,8-7.4c2.9-2.3,5.9-4.3,9.2-5.9s6.7-3,10.3-3.9c3.6-0.9,7.3-1.4,11.2-1.4c1,0,1.9,0.1,2.5,0.2c0.6,0.2,1.1,0.4,1.5,0.6
						c0.4,0.3,0.6,0.5,0.6,0.7c0.1,0.3,0.2,0.5,0.2,0.6c0,0.2,0,0.3,0,0.4c0,0.1,0,0.2,0,0.3v0.2c0.8,0.5,1.7,0.7,2.6,0.8
						c0.8,0.1,1.8,0.2,2.6,0.3c0.8,0.1,1.7,0.2,2.4,0.5c0.7,0.2,1.4,0.6,1.9,1.3c0.6,0.6,1,1.6,1.3,2.9c0.4,1.3,0.5,3,0.5,5.1
						c0,1.7-0.2,3.5-0.6,5.6c-0.4,2.1-0.8,4.3-1.4,6.6c-0.6,2.3-1.2,4.6-1.9,6.9c-0.7,2.3-1.5,4.6-2.2,6.8c-0.7,2.2-1.5,4.3-2.1,6.2
						c-0.6,1.9-1.3,3.7-1.8,5.1c-0.1,1.2-0.2,2.4-0.3,3.4c-0.1,1-0.1,2.1-0.1,3.3c0,0.9,0,1.7,0.1,2.2c0.1,0.6,0.1,1,0.3,1.4
						c0.1,0.4,0.3,0.6,0.6,0.6c0.2,0.1,0.5,0.2,0.8,0.2c0.6,0,1.4-0.2,2.3-0.5s1.9-0.6,3.1-1.1c1.1-0.5,2.2-1,3.3-1.6
						c1.2-0.6,2.3-1.1,3.3-1.8c1.1-0.6,2-1.1,3-1.6c0.9-0.5,1.7-0.8,2.3-1.2L74.9,232.2L74.9,232.2z M52.9,177.9
						c-1.1-0.3-2.2-0.5-3.4-0.6c-1.2-0.1-2.3-0.2-3.4-0.2c-2.5,0-5,0.5-7.5,1.3c-2.5,0.8-4.8,2-7.1,3.5s-4.5,3.2-6.7,5.3
						s-4.1,4.2-5.9,6.5c-1.9,2.3-3.4,4.7-4.9,7.2s-2.7,5-3.8,7.5c-1,2.5-1.9,4.9-2.4,7.2s-0.8,4.5-0.8,6.5c0,3.9,0.8,6.9,2.6,9.1
						c1.9,2.3,4.6,3.4,8.3,3.4c2.3,0,4.4-0.5,6.6-1.3c2-0.8,4-2,5.7-3.4c1.8-1.4,3.4-3,4.9-4.7c1.5-1.8,2.8-3.5,3.9-5.4
						c1.1-1.9,2-3.5,2.7-5.3c0.7-1.7,1.2-3.1,1.6-4.3L52.9,177.9L52.9,177.9z"/>
					<path id="Fill-2" fill="#FFFFFF" d="M69.6,232.7c0-1.9,0.1-4,0.4-6.5c0.3-2.4,0.6-4.9,0.9-7.4c0.4-2.5,0.7-5,1.2-7.3
						s0.9-4.3,1.3-6c0.4-1.3,1-2.4,1.9-3.2c0.9-0.8,2.3-1.3,4-1.3c1.7,0,2.8,0.5,3.4,1.4s0.9,2.1,0.9,3.7c0,0.5,0,1-0.1,1.8
						c-0.1,0.7-0.2,1.5-0.4,2.4c-0.1,0.8-0.3,1.8-0.5,2.7s-0.3,1.8-0.5,2.5c-0.1,0.7-0.3,1.5-0.4,2c-0.1,0.6-0.1,0.9-0.1,1.2h0.9
						c0.2-0.3,0.5-0.8,0.8-1.5c0.4-0.6,0.8-1.5,1.4-2.4c0.6-0.9,1.1-1.9,1.7-2.9c0.6-1,1.2-1.9,1.7-2.9c0.6-0.9,1-1.8,1.4-2.4
						c0.5-0.7,0.7-1.2,0.9-1.6c1-1.5,2.1-2.6,3.3-3.1c1.3-0.6,2.7-0.8,4.2-0.8s2.8,0.6,3.7,1.8c0.9,1.2,1.4,2.8,1.4,4.9
						c0,0.3-0.1,0.8-0.2,1.6c-0.1,0.7-0.3,1.6-0.6,2.6c-0.2,1-0.5,2.1-0.7,3.3s-0.5,2.5-0.7,3.7c-0.2,1.3-0.4,2.5-0.6,3.8
						c-0.1,1.2-0.2,2.4-0.2,3.4c0,1.8,0.3,3.1,0.7,4.3c0.5,1.1,1.2,1.7,2.2,1.7c0.5,0,1-0.1,1.6-0.4s1.2-0.6,1.9-1
						c0.6-0.4,1.4-0.9,2.1-1.4c0.7-0.6,1.5-1.1,2.1-1.7c1.7-1.3,3.3-2.8,5.1-4.4l0.7,9.4l-2.3,1.6c-1.3,0.8-2.5,1.8-3.9,2.6
						c-1.3,0.8-2.7,1.7-4.1,2.3c-1.4,0.6-2.9,1.3-4.4,1.7c-1.6,0.5-3.1,0.6-4.8,0.6c-1.7,0-3.1-1.1-4.3-3.3
						c-1.1-2.2-1.8-5.6-1.8-9.8c0-1.7,0.1-3.5,0.4-5.5c0.3-1.9,0.6-4.1,0.9-6.3h-0.7l-11.7,21.9c-0.6,1.1-1.3,1.9-2,2.4
						c-0.7,0.5-1.7,0.6-2.7,0.6c-1.3,0-2.3-0.3-3.1-0.7c-0.7-0.5-1.4-1.1-1.8-1.9c-0.4-0.8-0.6-1.8-0.8-2.9
						C69.6,235,69.6,233.9,69.6,232.7"/>
					<path id="Fill-3" fill="#FFFFFF" d="M126.6,241.5c-2.9,0-5.4-0.5-7.5-1.5c-2.1-0.9-4-2.2-5.5-3.9c-1.5-1.6-2.6-3.4-3.3-5.6
						c-0.7-2.1-1.1-4.3-1.1-6.6c0-1.7,0.2-3.3,0.6-5.1c0.4-1.8,0.9-3.5,1.7-5.2c0.7-1.7,1.7-3.3,2.7-4.9c1.1-1.6,2.3-2.9,3.7-4.1
						c1.4-1.2,3-2.1,4.7-2.8c1.8-0.6,3.6-1,5.7-1c1.8,0,3.4,0.3,4.9,0.7c1.5,0.5,2.8,1.2,3.9,2c1.1,0.8,1.9,1.9,2.5,3.1
						c0.6,1.2,0.9,2.5,0.9,3.9c0,0.9-0.2,1.9-0.5,2.9c-0.3,0.9-0.6,1.8-1.2,2.5s-1.2,1.4-1.9,1.8c-0.7,0.5-1.7,0.6-2.6,0.6
						c-1.5,0-2.4-0.4-2.9-1c-0.5-0.7-0.6-1.7-0.6-3c0-0.5,0-1,0.1-1.6c0.1-0.6,0.1-1.1,0.1-1.5c0-0.6-0.1-1.2-0.3-1.7
						c-0.2-0.5-0.5-0.6-1-0.6c-1.3,0-2.3,0.3-3.2,0.8c-0.9,0.6-1.7,1.3-2.3,2.1c-0.6,0.9-1.1,1.9-1.5,3c-0.4,1.1-0.6,2.2-0.9,3.3
						c-0.2,1.1-0.4,2.1-0.5,3.1c-0.1,1-0.1,1.9-0.1,2.5c0,1,0.1,2,0.3,3.1c0.2,1.1,0.6,2.1,1.1,3.1c0.6,0.9,1.3,1.7,2.3,2.3
						c0.9,0.6,2.2,0.9,3.7,0.9c1.5,0,3.1-0.4,4.9-1.2c1.8-0.8,3.6-1.9,5.5-3.1c1.9-1.3,3.5-2.7,5.2-4.2c1.7-1.5,3.1-3,4.3-4.3
						l3.2,4.9c-2.3,3.1-4.8,5.7-7.5,8c-1.1,1-2.4,2-3.7,3c-1.4,0.9-2.8,1.9-4.3,2.6s-3.1,1.4-4.6,1.9
						C129.9,241.3,128.3,241.5,126.6,241.5"/>
					<path id="Fill-4" fill="#FFFFFF" d="M162.7,215.5c1.3-1.5,2.7-3.1,4.3-4.8c1.6-1.8,3.2-3.3,4.9-4.8c1.7-1.5,3.3-2.8,5.1-3.7
						c1.7-1,3.2-1.5,4.7-1.5c0.4,0,0.7,0.1,1.2,0.2c0.5,0.1,0.9,0.4,1.3,0.6c0.4,0.4,0.7,0.8,1,1.4c0.3,0.6,0.4,1.4,0.4,2.3
						c0,1.9-0.3,3.7-0.8,5.6c-0.6,1.8-1.2,3.6-1.9,5.4c-0.6,1.8-1.3,3.6-1.9,5.5c-0.6,1.9-0.8,3.8-0.8,5.8c0,1.1,0.2,2,0.6,2.7
						s0.8,1,1.4,1c0.7,0,1.5-0.2,2.3-0.5c0.8-0.3,1.7-0.6,2.5-1.1c0.8-0.5,1.7-0.9,2.4-1.5c0.8-0.6,1.6-1.2,2.2-1.8
						c1.7-1.4,3.3-3.1,5-4.8l0.7,11.1c-0.6,0.4-1.3,0.8-2.1,1.5c-0.8,0.6-1.8,1.2-2.8,1.9c-1,0.6-2.1,1.3-3.3,1.9
						c-1.2,0.6-2.4,1.3-3.6,1.8c-1.2,0.5-2.4,0.9-3.6,1.3c-1.2,0.4-2.4,0.5-3.5,0.5c-1.7,0-3.1-0.4-4.4-1.2
						c-1.2-0.8-2.3-1.9-3.1-3.1c-0.8-1.3-1.4-2.7-1.8-4.2c-0.4-1.5-0.6-3-0.6-4.3c0-0.9,0.1-1.9,0.4-3c0.3-1.1,0.6-2.2,0.9-3.3
						c0.4-1.1,0.8-2.2,1.3-3.2c0.5-1,0.9-2,1.3-2.9c0.4-0.8,0.7-1.5,1.1-2c0.3-0.6,0.5-0.8,0.6-0.9l-0.9-0.1
						c-0.6,0.3-1.4,1.1-2.7,2.3c-1.2,1.3-2.7,2.9-4.3,4.7c-1.6,1.9-3.2,4.1-4.9,6.5s-3.2,4.8-4.5,7.4c-0.6,1.3-1.2,2.3-1.7,3.2
						c-0.5,0.9-0.8,1.7-1.3,2.3c-0.4,0.6-0.8,1-1.4,1.4c-0.5,0.3-1.1,0.5-1.9,0.5c-1,0-1.9-0.3-2.4-0.8c-0.6-0.6-1-1.2-1.3-2.1
						c-0.3-0.8-0.5-1.9-0.6-3s-0.1-2.2-0.1-3.4c0-1.9,0-4.3,0.1-7.3c0-3.1,0.2-6.4,0.5-10.1s0.6-7.6,1-11.7c0.5-4.1,1.1-8,1.9-12
						c0.8-4,1.9-7.8,3.1-11.4c1.3-3.6,2.9-6.8,4.6-9.5c1.9-2.8,4-4.9,6.5-6.6c2.5-1.6,5.3-2.4,8.5-2.4c1.7,0,3.1,0.2,4.1,0.6
						c1,0.5,1.9,1.1,2.5,1.9c0.6,0.8,1.1,1.8,1.3,2.9c0.2,1.1,0.4,2.4,0.4,3.8c0,2-0.3,4.3-0.9,6.8c-0.6,2.5-1.5,5.1-2.6,7.9
						c-1,2.7-2.3,5.5-3.6,8.2c-1.4,2.8-2.8,5.5-4.2,8c-1.4,2.6-2.8,5.1-4.2,7.4s-2.6,4.3-3.6,6.1L162.7,215.5L162.7,215.5z
						 M166.6,189.5c1.9-4.3,3.1-7.8,4-10.7c0.8-2.9,1.2-5.1,1.2-6.5c0-2.1-0.3-3.1-0.9-3.1c-0.8,0-2,1.2-3.6,3.5
						c-1.6,2.3-3.5,5.7-5.6,10.3c-0.6,1.5-1,3.1-1.5,4.7c-0.5,1.7-0.8,3.2-1.2,4.9c-0.4,1.7-0.6,3.2-1,4.8c-0.3,1.6-0.6,3.1-0.7,4.4
						c-0.6,3.3-0.9,6.6-1.2,9.7c0.8-1.8,1.8-3.6,2.8-5.7c1-2,1.9-4.1,3-6.1c0.9-2,1.9-3.9,2.8-5.7
						C165.3,192.3,166,190.7,166.6,189.5L166.6,189.5z"/>
					<path id="Fill-5" fill="#FFFFFF" d="M222.7,209.9c0.9,1.7,1.6,3.3,2,5.2s0.6,3.5,0.6,5.2c0,1.7-0.2,3.3-0.6,5
						c-0.4,1.7-1,3.3-1.8,4.9c-0.7,1.6-1.7,3.1-2.8,4.4s-2.3,2.6-3.8,3.6c-1.4,1-3,1.9-4.6,2.4c-1.7,0.6-3.4,0.9-5.4,0.9
						c-2.7,0-5.1-0.6-7-1.7s-3.5-2.5-4.7-4.3c-1.2-1.8-2.1-3.7-2.7-5.9c-0.6-2.2-0.8-4.4-0.8-6.7c0-3.1,0.6-6,1.6-8.7
						c1-2.7,2.5-5,4.3-7c1.9-1.9,4.3-3.5,7-4.7c2.8-1.1,5.8-1.8,9.3-1.8c3,0,5.7,0.4,8.2,1.2c2.6,0.8,5,1.9,7.2,3.3s4.3,3,6.3,4.8
						c1.9,1.8,3.7,3.7,5.4,5.6l-0.9,5.9c-0.8-1-1.9-2.1-3.4-3.3c-1.4-1.2-3-2.3-4.5-3.4c-1.6-1.1-3.1-2.2-4.7-3.2s-2.9-1.9-4-2.5
						L222.7,209.9L222.7,209.9z M208.7,233.6c1,0,2.1-0.5,3.1-1.5c1-1,1.9-2.2,2.6-3.7c0.7-1.5,1.4-3.1,1.8-5
						c0.5-1.9,0.6-3.5,0.6-5.2c0-1.3-0.1-2.5-0.4-3.7c-0.2-1.1-0.6-2.1-1-3c-0.5-0.8-1-1.5-1.7-1.9c-0.6-0.5-1.5-0.7-2.5-0.7
						c-1.3,0-2.5,0.5-3.6,1.5s-2.1,2.3-3.1,3.9c-0.8,1.6-1.6,3.2-2,5.2c-0.5,1.9-0.7,3.7-0.7,5.5c0,1.2,0.1,2.3,0.4,3.4
						c0.3,1,0.6,1.9,1.2,2.8c0.6,0.8,1.2,1.4,2.1,1.9C206.4,233.4,207.4,233.6,208.7,233.6L208.7,233.6z"/>
					<path id="Fill-6" fill="#FFFFFF" d="M234.5,232.7c0-1.2,0.1-2.7,0.2-4.3c0.1-1.7,0.4-3.4,0.6-5.2c0.3-1.9,0.6-3.7,0.9-5.6
						s0.7-3.7,1.1-5.5c0.4-1.8,0.8-3.3,1.2-4.7c0.4-1.5,0.8-2.6,1.2-3.5c0.3-0.6,0.5-1.1,0.7-1.5c0.3-0.4,0.6-0.6,0.8-0.8
						c0.3-0.2,0.7-0.4,1.2-0.5c0.5-0.1,1.1-0.1,1.8-0.1c0.8,0,1.4,0,1.9,0.1c0.5,0.1,0.7,0.3,1,0.5c0.2,0.3,0.4,0.6,0.4,1.2
						c0.1,0.5,0.1,1.2,0.1,2v3.8c0,1.5,0,3,0.1,4.3h0.5c0.6-1.1,1.3-2.4,2-3.8c0.7-1.4,1.7-2.7,2.7-3.9c1-1.2,2.1-2.2,3.4-3.1
						c1.3-0.8,2.8-1.2,4.4-1.2c0.6,0,1.1,0.1,1.7,0.3c0.6,0.2,1,0.5,1.5,0.7c0.4,0.4,0.7,0.7,1,1.2c0.3,0.5,0.4,1,0.4,1.7
						c0,0.5-0.1,1.1-0.2,2c-0.2,0.8-0.3,1.8-0.5,2.7c-0.2,0.9-0.4,1.9-0.5,2.8c-0.2,0.9-0.2,1.7-0.2,2.2c0,1,0.1,1.9,0.3,2.5
						c0.2,0.6,0.5,1.2,0.8,1.7c0.4,0.4,0.7,0.7,1.2,0.8c0.5,0.2,0.9,0.3,1.4,0.3c1.4,0,2.8-0.3,4.3-0.8c1.5-0.6,2.9-1.2,4.1-1.9
						c1.5-0.8,2.9-1.8,4.3-2.8l-0.6,9.9c-0.8,0.5-1.7,1-2.7,1.6c-1,0.6-2.1,1.1-3.2,1.7s-2.3,0.9-3.6,1.3c-1.2,0.4-2.5,0.6-3.8,0.6
						c-2.3,0-4.2-0.5-5.6-1.3c-1.4-0.8-2.5-1.9-3.3-3.4c-0.8-1.4-1.5-3-1.9-4.7c-0.4-1.8-0.7-3.5-0.9-5.3h-0.9l-8.2,21.1
						c-0.5,1.1-0.8,2-1.2,2.7c-0.4,0.7-0.7,1.3-1.2,1.8c-0.4,0.5-0.8,0.7-1.3,0.9c-0.5,0.2-0.9,0.3-1.5,0.3c-1.3,0-2.3-0.3-3.1-0.7
						c-0.7-0.5-1.4-1.1-1.8-1.9c-0.4-0.8-0.6-1.8-0.8-2.9C234.6,235,234.5,233.9,234.5,232.7"/>
					<path id="Fill-7" fill="#FFFFFF" d="M303.2,232.6c-1.1,0.9-2.5,1.9-4.2,3s-3.5,2-5.4,3c-1.9,0.9-3.9,1.7-5.9,2.2
						c-2,0.6-3.9,0.9-5.7,0.9c-1.7,0-3-0.2-4.1-0.6c-1.1-0.4-2-1-2.7-1.8c-0.6-0.7-1.2-1.7-1.5-2.7c-0.3-1-0.5-2.2-0.5-3.5
						c0-1.8,0.2-3.9,0.6-6.2s1-4.8,1.7-7.3c0.6-2.5,1.4-5,2.1-7.6c0.7-2.5,1.4-4.8,1.9-6.9c0.2-0.7,0.6-1.4,1.3-1.9
						c0.6-0.6,1.4-0.9,2.2-1.3s1.7-0.6,2.6-0.7c0.9-0.2,1.7-0.3,2.4-0.3c1.3,0,2.2,0.2,2.7,0.6c0.5,0.5,0.7,1,0.7,1.8
						c0,0.6-0.2,1.5-0.5,2.7s-0.7,2.5-1.2,4c-0.5,1.5-0.9,3.1-1.5,4.8c-0.6,1.7-1,3.4-1.5,5.1s-0.8,3.3-1.2,5
						c-0.3,1.7-0.5,3.1-0.5,4.3c0,1.3,0.2,2.3,0.5,3.1c0.3,0.7,0.9,1.1,1.9,1.1c1.1,0,2.4-0.4,3.7-1c1.4-0.7,2.8-1.6,4.2-2.6
						c1.4-1,2.8-2,4.2-3.1c1.4-1.1,2.5-1.9,3.5-2.8L303.2,232.6L303.2,232.6z M282,189.4c0-0.6,0.2-1.4,0.5-2.1
						c0.3-0.8,0.8-1.6,1.5-2.2c0.6-0.7,1.6-1.3,2.8-1.8c1.1-0.5,2.6-0.7,4.3-0.7c1.1,0,2,0.1,3.1,0.4c0.9,0.2,1.8,0.6,2.5,1
						c0.7,0.5,1.3,1,1.7,1.9c0.4,0.7,0.6,1.7,0.6,2.7c0,0.9-0.2,1.9-0.5,2.8c-0.4,0.9-0.8,1.7-1.6,2.4c-0.7,0.6-1.7,1.3-2.8,1.7
						c-1.1,0.5-2.4,0.6-4,0.6c-2.7,0-4.6-0.6-5.9-1.8C282.9,193,282,191.3,282,189.4L282,189.4z"/>
					<path id="Fill-8" fill="#FFFFFF" d="M318.3,233.9c3.1,0,6-0.3,8.6-0.8c2.6-0.6,4.9-1.3,7-2.3c2.1-0.9,4-2,5.6-3.3
						c1.7-1.3,3.2-2.7,4.6-4.1l0.6,9.6c-1,1.1-2.2,2.1-3.6,3.1s-3,1.9-4.6,2.7c-1.7,0.7-3.4,1.4-5.3,1.9c-1.9,0.5-3.7,0.7-5.5,0.7
						c-0.2,0-0.5,0-0.8-0.1c-0.4-0.1-0.9-0.2-1.7-0.3c-0.7-0.1-1.9-0.4-3.4-0.6c-1.5-0.3-3.5-0.6-6.1-0.8v0.7c0,5.1-0.5,9.7-1.4,14
						c-0.9,4.2-2.2,7.8-3.8,10.6c-1.6,3-3.4,5.2-5.5,6.8c-2,1.6-4.2,2.4-6.4,2.4c-1.8,0-3.2-0.4-4.4-1.2c-1.2-0.8-2.1-1.9-2.8-3.1
						c-0.7-1.3-1.2-2.9-1.5-4.7c-0.3-1.8-0.5-3.7-0.5-5.6c0-1.1,0.2-2.4,0.6-3.9c0.4-1.5,0.9-3,1.7-4.5c0.6-1.6,1.5-3.2,2.3-4.8
						c0.8-1.7,1.8-3.2,2.6-4.8c2.1-3.6,4.5-7.3,7.2-11.1c0.4-2.2,0.6-4.4,1-6.8c0.4-2.3,0.8-4.5,1.4-6.7c0.6-2.1,1.2-4.3,2-6.2
						c0.8-1.9,1.9-3.6,3.1-5.1c1.3-1.4,2.9-2.6,4.6-3.4c1.8-0.8,4-1.3,6.5-1.3c1.9,0,3.7,0.3,5.3,0.7c1.7,0.5,3.1,1.2,4.3,2.2
						c1.2,1,2.2,2.4,3,4.1s1.1,3.7,1.1,6c0,1.9-0.3,3.8-0.9,5.6c-0.6,1.8-1.6,3.5-2.9,5.1c-1.3,1.7-3,3.1-5,4.5s-4.4,2.7-7.2,3.8
						L318.3,233.9L318.3,233.9z M296.2,259.9c0,0.2,0.1,0.6,0.2,1.1c0.1,0.5,0.3,1,0.6,1.5c0.3,0.5,0.6,0.9,1,1.3
						c0.5,0.4,0.9,0.6,1.6,0.6c0.6,0,1-0.3,1.4-0.7c0.4-0.6,0.6-1.2,0.9-2c0.2-0.8,0.4-1.9,0.5-3c0.1-1.1,0.2-2.2,0.3-3.3
						s0.1-2.2,0.1-3.3s0.1-2,0.1-3c0.1-1.5,0.2-2.8,0.2-3.8c0.1-1,0.1-1.9,0.1-2.6c0-0.7,0.1-1.5,0.1-1.9c-0.6,0.9-1.2,1.9-1.9,3.2
						c-0.6,1.2-1.1,2.5-1.7,3.8c-0.6,1.3-1,2.6-1.4,4c-0.5,1.3-0.8,2.5-1.1,3.7c-0.3,1.1-0.6,2.1-0.7,3
						C296.3,259,296.2,259.7,296.2,259.9L296.2,259.9z M312,230.1c1.9-0.8,3.4-1.9,4.7-2.9c1.3-1,2.5-2.2,3.4-3.4
						c0.9-1.2,1.8-2.4,2.4-3.7s1.1-2.6,1.5-4c0.2-0.6,0.3-1.4,0.3-2.2c0-0.8-0.1-1.7-0.3-2.4s-0.6-1.4-1.2-1.9
						c-0.6-0.6-1.4-0.8-2.4-0.8c-1.1,0-2.1,0.3-3,0.8s-1.6,1.4-2.2,2.4s-1.1,2.2-1.6,3.5c-0.4,1.4-0.7,2.9-1,4.4
						c-0.3,1.6-0.5,3.2-0.6,4.9C312.1,226.7,312,228.4,312,230.1L312,230.1z"/>
					<path id="Fill-9" fill="#FFFFFF" d="M358,233.9c3.1,0,6-0.3,8.6-0.8c2.6-0.6,4.9-1.3,7-2.3c2.1-0.9,4-2,5.6-3.3
						c1.7-1.3,3.2-2.7,4.6-4.1l0.6,9.6c-1,1.1-2.2,2.1-3.6,3.1s-3,1.9-4.6,2.7c-1.7,0.7-3.4,1.4-5.3,1.9c-1.9,0.5-3.7,0.7-5.5,0.7
						c-0.2,0-0.5,0-0.8-0.1c-0.4-0.1-0.9-0.2-1.7-0.3c-0.7-0.1-1.9-0.4-3.4-0.6c-1.5-0.2-3.5-0.6-6.1-0.8v0.7c0,5.1-0.5,9.7-1.4,14
						c-0.9,4.2-2.2,7.8-3.8,10.6c-1.6,3-3.4,5.2-5.5,6.8c-2,1.6-4.2,2.4-6.4,2.4c-1.8,0-3.2-0.4-4.4-1.2c-1.2-0.8-2.1-1.9-2.8-3.1
						c-0.7-1.3-1.2-2.9-1.5-4.7c-0.3-1.8-0.5-3.7-0.5-5.6c0-1.1,0.2-2.4,0.6-3.9c0.4-1.5,0.9-3,1.7-4.5c0.6-1.6,1.5-3.2,2.3-4.8
						c0.8-1.7,1.8-3.2,2.6-4.8c2.1-3.6,4.5-7.3,7.2-11.1c0.4-2.2,0.6-4.4,1-6.8c0.4-2.3,0.8-4.5,1.4-6.7c0.6-2.1,1.2-4.3,2-6.2
						c0.8-1.9,1.9-3.6,3.1-5.1c1.3-1.4,2.9-2.6,4.6-3.4c1.8-0.8,4-1.3,6.5-1.3c1.9,0,3.7,0.3,5.3,0.7c1.7,0.5,3.1,1.2,4.3,2.2
						c1.2,1,2.2,2.4,3,4.1c0.7,1.7,1.1,3.7,1.1,6c0,1.9-0.3,3.8-0.9,5.6c-0.6,1.8-1.6,3.5-2.9,5.1c-1.3,1.7-3,3.1-5,4.5
						c-2,1.4-4.4,2.7-7.2,3.8L358,233.9L358,233.9z M335.9,259.9c0,0.2,0.1,0.6,0.2,1.1c0.1,0.5,0.3,1,0.6,1.5
						c0.3,0.5,0.6,0.9,1,1.3c0.5,0.4,0.9,0.6,1.6,0.6c0.6,0,1-0.3,1.4-0.7c0.4-0.6,0.6-1.2,0.9-2c0.2-0.8,0.4-1.9,0.5-3
						c0.1-1.1,0.2-2.2,0.3-3.3c0.1-1.1,0.1-2.2,0.1-3.3s0.1-2,0.1-3c0.1-1.5,0.2-2.8,0.2-3.8c0.1-1,0.1-1.9,0.1-2.6
						c0-0.7,0.1-1.5,0.1-1.9c-0.6,0.9-1.2,1.9-1.9,3.2c-0.6,1.2-1.1,2.5-1.7,3.8c-0.6,1.3-1,2.6-1.4,4c-0.5,1.3-0.8,2.5-1.1,3.7
						c-0.3,1.1-0.6,2.1-0.7,3C336,259,335.9,259.7,335.9,259.9L335.9,259.9z M351.7,230.1c1.9-0.8,3.4-1.9,4.7-2.9
						c1.3-1,2.5-2.2,3.4-3.4c0.9-1.2,1.8-2.4,2.4-3.7c0.6-1.3,1.1-2.6,1.5-4c0.2-0.6,0.3-1.4,0.3-2.2c0-0.8-0.1-1.7-0.3-2.4
						c-0.2-0.7-0.6-1.4-1.2-1.9c-0.6-0.6-1.4-0.8-2.4-0.8c-1.1,0-2.1,0.3-3,0.8c-0.8,0.6-1.6,1.4-2.2,2.4c-0.6,1-1.1,2.2-1.6,3.5
						c-0.4,1.4-0.7,2.9-1,4.4c-0.3,1.6-0.5,3.2-0.6,4.9C351.8,226.7,351.7,228.4,351.7,230.1L351.7,230.1z"/>
					<path id="Fill-10" fill="#FFFFFF" d="M389.2,241.5c-1.7,0-3.2-0.6-4.7-1.9c-1.5-1.3-2.7-3.1-3.8-5.4s-1.9-4.8-2.5-7.8
						c-0.6-3-0.9-6-0.9-9.3c0-2.5,0.2-5.2,0.6-8c0.4-2.9,1-5.9,1.8-9c0.7-3.1,1.7-6.2,2.8-9.3c1.1-3.1,2.3-6.1,3.6-9
						c1.4-2.9,2.9-5.6,4.4-8c1.6-2.5,3.2-4.6,5-6.6c1.8-1.9,3.5-3.3,5.5-4.3c1.9-1,3.8-1.6,5.8-1.6c1.3,0,2.4,0.3,3.3,0.8
						c0.8,0.6,1.6,1.3,2,2.1c0.5,0.9,0.8,1.9,1,3.1c0.2,1.1,0.3,2.3,0.3,3.4c0,2.6-0.4,5.3-1,8c-0.6,2.7-1.6,5.5-2.7,8.2
						c-1.1,2.8-2.4,5.5-4,8.2c-1.5,2.8-3.1,5.5-4.6,8.2c-1.6,2.7-3.2,5.4-4.9,8c-1.7,2.6-3.1,5.2-4.6,7.7c-0.2,0.3-0.3,0.6-0.5,1.1
						c-0.2,0.5-0.4,0.9-0.5,1.5c-0.1,0.6-0.3,1.1-0.5,1.7c-0.2,0.6-0.3,1.2-0.4,1.8v0.6c0,0.7,0.1,1.4,0.3,2.1
						c0.2,0.6,0.4,1.3,0.6,1.9c0.3,0.6,0.6,1,0.8,1.3s0.6,0.5,0.8,0.5c0.6,0,1.3-0.1,2-0.4c0.7-0.2,1.6-0.6,2.4-0.9s1.8-0.8,2.6-1.3
						c0.9-0.5,1.8-1,2.6-1.5c1.9-1.2,4-2.5,6.2-4.1l3.8,8.8c-2.8,1.8-5.6,3.3-8.2,4.8c-1.2,0.6-2.4,1.2-3.7,1.8
						c-1.3,0.6-2.5,1.1-3.8,1.5c-1.3,0.5-2.5,0.8-3.7,1.1C391.4,241.4,390.3,241.5,389.2,241.5L389.2,241.5z M389.6,208
						c1.4-2.2,2.8-4.7,4.3-7.5c1.6-2.8,3-5.6,4.3-8.6s2.5-5.9,3.5-8.9c1-3,1.7-5.6,1.9-8.2c0-0.8,0-1.5-0.1-2c0-0.6-0.2-0.8-0.5-0.8
						c-0.8,0-1.9,0.6-2.9,1.6c-1,1-2,2.5-3.1,4.3c-1,1.8-1.9,3.9-2.9,6.2c-0.9,2.4-1.8,4.9-2.5,7.6c-0.7,2.7-1.3,5.5-1.8,8.2
						C389.8,202.6,389.6,205.4,389.6,208L389.6,208z"/>
					<path id="Fill-11_1_" fill="#FFFFFF" d="M420.2,242.5c-2.9,0-5.5-0.5-7.6-1.5c-2.2-0.9-4-2.2-5.5-3.9c-1.5-1.7-2.5-3.5-3.2-5.6
						c-0.7-2.1-1.1-4.3-1.1-6.8c0-1.6,0.2-3.2,0.5-5c0.4-1.8,0.8-3.5,1.6-5.2c0.7-1.7,1.6-3.3,2.6-4.8c1-1.6,2.3-2.9,3.7-4.1
						s3-2.1,4.7-2.8c1.8-0.6,3.7-1,5.8-1c1.8,0,3.3,0.3,4.8,0.7c1.5,0.5,2.8,1.2,3.9,2.1s1.9,2,2.6,3.3c0.6,1.3,0.9,2.8,0.9,4.3
						c0,1.8-0.5,3.5-1.4,5.3c-0.9,1.8-2.2,3.4-3.9,5c-1.7,1.6-3.6,3-5.9,4.2c-2.3,1.2-4.8,2.1-7.5,2.9c0.5,0.7,0.9,1.4,1.4,1.9
						c0.5,0.5,0.9,0.9,1.4,1.2c0.5,0.3,0.9,0.5,1.5,0.6s1,0.2,1.7,0.2c1.9,0,3.8-0.4,5.8-1c2-0.6,4.1-1.5,6-2.5s3.8-2.1,5.6-3.3
						c1.8-1.2,3.2-2.3,4.4-3.4l6,5.6c-2.7,2.6-5.6,4.8-8.7,6.8c-1.3,0.8-2.8,1.7-4.3,2.5c-1.5,0.8-3.1,1.6-4.8,2.2
						c-1.7,0.6-3.4,1.1-5.3,1.5C423.9,242.3,422.1,242.5,420.2,242.5L420.2,242.5z M414.3,222.1c1.1,0,2.3-0.3,3.7-0.7
						c1.3-0.6,2.6-1.2,3.7-1.9c1.1-0.8,2.1-1.7,2.9-2.6c0.7-0.9,1.2-1.9,1.2-2.8c0-1.2-0.3-2.2-0.7-3.1c-0.6-0.8-1.1-1.2-1.9-1.2
						c-1.4,0-2.5,0.2-3.4,0.6c-0.9,0.5-1.8,1-2.4,1.8c-0.6,0.7-1.2,1.5-1.6,2.4s-0.6,1.8-0.9,2.7c-0.2,0.9-0.4,1.8-0.4,2.7
						C414.3,220.8,414.3,221.6,414.3,222.1L414.3,222.1z"/>
				</g>
			</g>
		</g>
		
			<g id="STAY-TUNED.--WE-ARE--_x2B_-EMPOWERING-NON-PROFI-_x2B_-Cant-wait_x3F_--Contact--2" transform="translate(29.000000, 328.000000)" sketch:type="MSLayerGroup">
			
				<path id="STAY-TUNED.--WE-ARE--3" sketch:type="MSShapeGroup" display="none" fill="#277D9C" stroke="#277D9C" stroke-width="0.5" d="
				M9.2,302.8v3.3c-1-0.7-1.9-1.1-2.8-1.1c-0.9,0-1.6,0.3-2.2,0.9c-0.6,0.6-0.8,1.4-0.8,2.4c0,0.8,0.2,1.7,0.6,2.2
				c0.2,0.4,0.6,0.7,1,1.3c0.5,0.6,1.1,1.2,1.9,1.9c1.4,1.4,2.3,2.6,2.8,3.6c0.5,1,0.7,2.2,0.7,3.6c0,1.9-0.6,3.5-1.7,4.8
				c-1.1,1.2-2.5,1.9-4.3,1.9c-1.5,0-2.7-0.4-3.7-1.2v-3.3c1.2,0.8,2.3,1.3,3.3,1.3c0.9,0,1.7-0.3,2.1-0.9s0.7-1.5,0.7-2.5
				c0-0.9-0.2-1.8-0.6-2.5c-0.2-0.4-0.5-0.7-0.8-1.2s-0.8-0.9-1.4-1.5c-0.8-0.8-1.6-1.6-2.1-2.2s-1-1.2-1.3-1.7
				c-0.6-0.9-0.7-2.1-0.7-3.6c0-1.9,0.6-3.5,1.6-4.6c1-1.2,2.4-1.8,4.2-1.8C6.8,302,8,302.2,9.2,302.8L9.2,302.8z M11.6,302.3h11v3
				h-3.8v22.1h-3.3v-22.1h-3.9C11.6,305.3,11.6,302.3,11.6,302.3z M27.6,302.3h2.6l5.4,25.1h-3.3l-0.9-4.9h-5l-0.9,4.9h-3.2
				L27.6,302.3z M30.8,319.9l-0.7-4c-0.5-2.7-0.9-5.6-1.2-8.7c-0.2,1.5-0.4,3.1-0.6,4.5s-0.6,3.1-0.8,4.9l-0.6,3.2H30.8z
				 M34.4,302.3h3.5l1.7,5.5c0.1,0.2,0.1,0.4,0.2,0.6c0.1,0.2,0.1,0.4,0.2,0.6c0.6,1.9,1,3.6,1.3,5c0.2-1.4,0.4-2.3,0.5-2.8l0.6-2.2
				l0.2-0.8l1.4-5.6h3.5L43,316.8v10.8h-3.4v-10.8L34.4,302.3z M54.1,302.3h11v3h-3.8v22.1H58v-22.1h-3.9
				C54.1,305.3,54.1,302.3,54.1,302.3z M67.1,302.3h3.2v17.8c0,1.9,0.2,3.1,0.5,3.6c0.4,0.6,1,0.9,1.9,0.9c0.9,0,1.7-0.3,1.9-0.7
				c0.4-0.6,0.5-1.6,0.5-3.2v-18.2h3.3v18.2c0,2.8-0.5,4.6-1.3,5.6c-1,1.1-2.5,1.7-4.5,1.7c-2.2,0-3.9-0.7-4.8-2.1
				c-0.6-0.9-0.9-2.8-0.9-5.6v-17.9H67.1z M82.4,302.3h3.1l3.3,10c1,2.9,1.9,5.8,2.6,9.1c-0.3-1.9-0.5-3.7-0.6-5.3
				c-0.2-1.6-0.2-3.1-0.2-4.4v-9.3h3.4v25.1h-3.1l-3.8-11.3c-0.4-1-0.6-2.1-1-3.2c-0.4-1.1-0.6-2.2-0.8-3.5c0-0.2-0.1-0.4-0.1-0.6
				c0-0.2-0.1-0.5-0.2-0.7c0,0.3,0.1,0.6,0.1,0.7c0,0.2,0,0.4,0.1,0.6l0.2,2.6l0.2,3.1c0,0.2,0,0.4,0,0.6c0,0.3,0,0.6,0,0.8
				l0.2,10.9h-3.3V302.3z M98.1,302.3h9v2.9h-5.6v8h5v2.9h-5v8.6h5.6v2.9h-9V302.3z M110.1,302.3h4.2c1.3,0,2.3,0.2,3.2,0.5
				c0.8,0.3,1.5,0.7,2.1,1.5c0.9,1,1.6,2.4,2,4.1c0.4,1.6,0.6,3.9,0.6,6.9c0,2.8-0.2,5-0.6,6.8c-0.5,1.7-1.1,3-2.1,3.8
				c-1.2,1.1-3.4,1.7-6.6,1.7h-2.8L110.1,302.3L110.1,302.3z M113.5,324.4c2,0,3.4-0.6,4.2-1.9c0.7-1.2,1.1-3.7,1.1-7.3
				c0-3.9-0.4-6.6-1-8c-0.6-1.5-1.9-2.2-3.8-2.2h-0.5V324.4z M127.2,323.6c0.6,0,1,0.2,1.4,0.6c0.4,0.4,0.6,0.8,0.6,1.4
				s-0.2,1-0.6,1.4c-0.4,0.4-0.9,0.6-1.4,0.6c-0.3,0-0.6-0.1-0.8-0.2c-0.3-0.1-0.5-0.3-0.6-0.5s-0.4-0.4-0.5-0.6
				c-0.1-0.3-0.2-0.5-0.2-0.8c0-0.6,0.2-1,0.6-1.4C126.1,323.8,126.6,323.6,127.2,323.6L127.2,323.6z M144.4,302.3h3.2l1.7,11.7
				l0.3,1.8c0.1,0.9,0.2,1.8,0.3,2.6l0.2,2.1c0,0.1,0,0.2,0,0.3c0,0.1,0,0.3,0.1,0.6l0.1-0.8c0.1-1.4,0.3-2.7,0.4-3.9
				c0.1-1.2,0.3-2.3,0.5-3.3l1.9-10.8h2.6l1.7,10.5c0.3,1.6,0.5,3.1,0.6,4.3c0.2,1.3,0.3,2.6,0.4,3.8c0.1-1.3,0.2-2.5,0.4-3.7
				c0.2-1.2,0.3-2.4,0.5-3.5l0.3-1.7l1.5-9.8h3.2l-4.4,25.1H157l-1.8-10.8c0,0,0-0.2-0.1-0.6c-0.1-0.4-0.1-0.7-0.2-1.4l-0.4-2.5
				c0-0.2-0.1-0.5-0.1-0.8s-0.1-0.9-0.2-1.5l-0.1-1c0,0.3,0,0.5-0.1,0.6c-0.1,0.2,0,0.4-0.1,0.5c-0.1,0.7-0.1,1.3-0.1,1.7
				s-0.1,0.6-0.1,0.7l-0.4,2.4c-0.1,0.6-0.1,1-0.2,1.3s-0.1,0.6-0.1,0.6l-1.9,10.8h-2.7L144.4,302.3z M166,302.3h9v2.9h-5.6v8h5v2.9
				h-5v8.6h5.6v2.9h-9V302.3z M188.6,302.3h2.6l5.4,25.1h-3.3l-0.9-4.9h-5l-0.9,4.9h-3.2L188.6,302.3z M191.9,319.9l-0.7-4
				c-0.5-2.7-0.9-5.6-1.2-8.7c-0.2,1.5-0.4,3.1-0.6,4.5s-0.6,3.1-0.8,4.9l-0.6,3.2H191.9z M198.6,302.3h4.4c1.9,0,3.2,0.5,4.1,1.3
				c1.1,1.1,1.7,2.9,1.7,5.2c0,1.8-0.3,3.2-0.9,4.3c-0.6,1.1-1.5,1.8-2.6,2l4.6,12.2h-3.4l-4.6-12.3v12.3h-3.4v-25.1H198.6z
				 M202,313.4c1.3,0,2.2-0.3,2.8-0.9s0.8-1.7,0.8-3.1c0-0.7-0.1-1.5-0.2-2c-0.1-0.6-0.3-1-0.6-1.4c-0.3-0.4-0.6-0.6-0.9-0.7
				c-0.4-0.1-0.8-0.3-1.4-0.3H202L202,313.4L202,313.4z M212.7,302.3h9v2.9H216v8h5v2.9h-5v8.6h5.6v2.9h-9V302.3z M229.8,302.3h3.2
				l1.7,11.7l0.3,1.8c0.1,0.9,0.2,1.8,0.3,2.6l0.2,2.1c0,0.1,0,0.2,0,0.3c0,0.1,0,0.3,0.1,0.6l0.1-0.8c0.1-1.4,0.3-2.7,0.4-3.9
				c0.1-1.2,0.3-2.3,0.5-3.3l1.9-10.8h2.6l1.7,10.5c0.3,1.6,0.5,3.1,0.6,4.3c0.2,1.3,0.3,2.6,0.4,3.8c0.1-1.3,0.2-2.5,0.4-3.7
				c0.2-1.2,0.3-2.4,0.5-3.5l0.3-1.7l1.5-9.8h3.2l-4.4,25.1h-2.6l-1.8-10.8c0,0,0-0.2-0.1-0.6s-0.1-0.7-0.2-1.4l-0.4-2.5
				c0-0.2-0.1-0.5-0.1-0.8s-0.1-0.9-0.2-1.5l-0.1-1c0,0.3,0,0.5-0.1,0.6c-0.1,0.2,0,0.4-0.1,0.5c-0.1,0.7-0.1,1.3-0.1,1.7
				s-0.1,0.6-0.1,0.7l-0.4,2.4c-0.1,0.6-0.1,1-0.2,1.3c-0.1,0.3-0.1,0.6-0.1,0.6l-1.9,10.8H234L229.8,302.3z M264,315.5
				c0,4.4-0.5,7.6-1.5,9.4s-2.7,2.8-5,2.8c-2.4,0-4.2-1-5.2-3.1c-1-1.9-1.5-5.5-1.5-10.5c0-4.4,0.5-7.6,1.5-9.4c1-1.9,2.7-2.8,5-2.8
				c2.1,0,3.7,0.7,4.7,2.1c0.6,0.9,1.2,2.3,1.5,4.1C263.8,309.9,264,312.3,264,315.5L264,315.5z M260.4,315.8c0-4.3-0.2-7.2-0.6-8.7
				c-0.4-1.4-1.2-2.1-2.4-2.1s-2,0.6-2.4,1.9c-0.4,1.3-0.6,4-0.6,8c0,3.7,0.2,6.2,0.6,7.7c0.5,1.4,1.2,2,2.4,2
				c1.1,0,1.9-0.6,2.3-1.9C260.2,321.5,260.4,319.2,260.4,315.8L260.4,315.8z M267.3,302.3h4.4c1.9,0,3.2,0.5,4.1,1.3
				c1.1,1.1,1.7,2.9,1.7,5.2c0,1.8-0.3,3.2-0.9,4.3c-0.6,1.1-1.5,1.8-2.6,2l4.6,12.2h-3.4l-4.6-12.3v12.3h-3.2V302.3z M270.7,313.4
				c1.3,0,2.2-0.3,2.8-0.9s0.8-1.7,0.8-3.1c0-0.7-0.1-1.5-0.2-2c-0.1-0.6-0.3-1-0.6-1.4c-0.3-0.4-0.6-0.6-0.9-0.7
				c-0.4-0.1-0.8-0.3-1.4-0.3h-0.6L270.7,313.4L270.7,313.4z M281.4,302.3h3.4v12.1l4.7-12.1h3.4l-4.9,12.1l5.4,13h-3.8l-4.7-13v13
				h-3.4L281.4,302.3L281.4,302.3z M295.4,302.3h3.4v25.1h-3.4V302.3z M302.6,302.3h3.1l3.3,10c1,2.9,1.9,5.8,2.6,9.1
				c-0.3-1.9-0.5-3.7-0.6-5.3c-0.2-1.6-0.2-3.1-0.2-4.4v-9.3h3.4v25.1h-3.1l-3.8-11.3c-0.4-1-0.6-2.1-1-3.2
				c-0.4-1.1-0.6-2.2-0.8-3.5c0-0.2-0.1-0.4-0.1-0.6c0-0.2-0.1-0.5-0.2-0.7c0,0.3,0.1,0.6,0.1,0.7c0,0.2,0,0.4,0.1,0.6l0.2,2.6
				l0.2,3.1c0,0.2,0,0.4,0,0.6c0,0.3,0,0.6,0,0.8l0.2,10.9h-3.3V302.3z M324.2,314.2h6.1v1c0,4.9-0.5,8.2-1.3,9.9
				c-0.8,1.8-2.4,2.6-4.7,2.6c-2.4,0-4.1-1-5.1-3c-1-1.9-1.5-5.3-1.5-9.8c0-5.3,0.6-8.8,1.7-10.5c1-1.7,2.7-2.5,4.8-2.5
				c1.7,0,3,0.4,3.9,1.2c0.9,0.8,1.7,2.1,2.2,4l-3.1,1.3c-0.2-0.6-0.3-1.2-0.5-1.7c-0.2-0.5-0.4-0.8-0.6-1c-0.4-0.6-1-0.7-1.9-0.7
				c-1.1,0-1.9,0.6-2.3,2c-0.4,1.5-0.6,4.1-0.6,7.9s0.2,6.4,0.6,7.7s1.2,2,2.4,2c1.1,0,1.9-0.5,2.2-1.4c0.5-1,0.6-2.7,0.6-4.9v-0.6
				v-0.5h-3L324.2,314.2L324.2,314.2z M353.2,315.5c0,4.4-0.5,7.6-1.5,9.4s-2.7,2.8-5,2.8c-2.4,0-4.2-1-5.2-3.1
				c-1-1.9-1.5-5.5-1.5-10.5c0-4.4,0.5-7.6,1.5-9.4c1-1.9,2.7-2.8,5-2.8c2.1,0,3.7,0.7,4.7,2.1c0.6,0.9,1.2,2.3,1.5,4.1
				C353.1,309.9,353.2,312.3,353.2,315.5L353.2,315.5z M349.7,315.8c0-4.3-0.2-7.2-0.6-8.7c-0.4-1.4-1.2-2.1-2.4-2.1
				c-1.2,0-2,0.6-2.4,1.9c-0.4,1.3-0.6,4-0.6,8c0,3.7,0.2,6.2,0.6,7.7c0.5,1.4,1.2,2,2.4,2c1.1,0,1.9-0.6,2.3-1.9
				C349.5,321.5,349.7,319.2,349.7,315.8L349.7,315.8z M356.5,302.3h3.1l3.3,10c1,2.9,1.9,5.8,2.6,9.1c-0.3-1.9-0.5-3.7-0.6-5.3
				c-0.2-1.6-0.2-3.1-0.2-4.4v-9.3h3.4v25.1H365l-3.8-11.3c-0.4-1-0.6-2.1-1-3.2s-0.6-2.2-0.8-3.5c0-0.2-0.1-0.4-0.1-0.6
				c0-0.2-0.1-0.5-0.2-0.7c0,0.3,0.1,0.6,0.1,0.7c0,0.2,0,0.4,0.1,0.6l0.2,2.6l0.2,3.1c0,0.2,0,0.4,0,0.6c0,0.3,0,0.6,0,0.8
				l0.2,10.9h-3.3V302.3z M387.4,302.8v3.3c-1-0.7-1.9-1.1-2.8-1.1c-0.9,0-1.6,0.3-2.2,0.9c-0.6,0.6-0.8,1.4-0.8,2.4
				c0,0.8,0.2,1.7,0.6,2.2c0.2,0.4,0.6,0.7,1,1.3c0.5,0.6,1.1,1.2,1.9,1.9c1.4,1.4,2.3,2.6,2.8,3.6c0.5,1,0.7,2.2,0.7,3.6
				c0,1.9-0.6,3.5-1.7,4.8c-1.1,1.2-2.5,1.9-4.3,1.9c-1.5,0-2.7-0.4-3.7-1.2v-3.3c1.2,0.8,2.3,1.3,3.3,1.3c0.9,0,1.7-0.3,2.1-0.9
				s0.7-1.5,0.7-2.5c0-0.9-0.2-1.8-0.6-2.5c-0.2-0.4-0.5-0.7-0.8-1.2c-0.4-0.5-0.8-0.9-1.4-1.5c-0.8-0.8-1.6-1.6-2.1-2.2
				s-1-1.2-1.3-1.7c-0.6-0.9-0.7-2.1-0.7-3.6c0-1.9,0.6-3.5,1.6-4.6c1-1.2,2.4-1.8,4.2-1.8C385.2,302,386.3,302.2,387.4,302.8
				L387.4,302.8z M404,315.5c0,4.4-0.5,7.6-1.5,9.4s-2.7,2.8-5,2.8c-2.4,0-4.2-1-5.2-3.1c-1-1.9-1.5-5.5-1.5-10.5
				c0-4.4,0.5-7.6,1.5-9.4c1-1.9,2.7-2.8,5-2.8c2.1,0,3.7,0.7,4.7,2.1c0.6,0.9,1.2,2.3,1.5,4.1C403.9,309.9,404,312.3,404,315.5
				L404,315.5z M400.4,315.8c0-4.3-0.2-7.2-0.6-8.7c-0.4-1.4-1.2-2.1-2.4-2.1c-1.2,0-2,0.6-2.4,1.9s-0.6,4-0.6,8
				c0,3.7,0.2,6.2,0.6,7.7c0.5,1.4,1.2,2,2.4,2c1.1,0,1.9-0.6,2.3-1.9C400.3,321.5,400.4,319.2,400.4,315.8L400.4,315.8z
				 M408.6,302.3h2.9l2.2,10.3c0.3,1.3,0.6,2.6,0.7,3.9s0.5,2.6,0.6,4.1c0-0.2,0-0.4,0.1-0.5c0.1-0.1,0-0.2,0-0.2l0.5-2.9l0.5-2.8
				l0.4-1.9l1.9-10.1h3l2.3,25.1h-3.2l-0.6-8.5c0-0.5,0-0.8-0.1-1.1c-0.1-0.3,0-0.6,0-0.7l-0.2-3.3l-0.1-3.1v-0.1c0,0,0-0.2,0-0.3
				l-0.1,0.5c-0.1,0.6-0.2,1.1-0.3,1.6c-0.1,0.5-0.1,0.8-0.2,1.1l-0.5,2.3l-0.2,0.8l-2.1,10.9h-2.3l-1.9-9.4
				c-0.3-1.2-0.6-2.5-0.7-3.8s-0.4-2.6-0.6-4.1l-1,17.3h-3.1L408.6,302.3z M426.3,302.3h9v2.9h-5.6v8h5v2.9h-5v8.6h5.6v2.9h-9V302.3
				z M436.4,302.3h11v3h-3.8v22.1h-3.3v-22.1h-3.9V302.3z M449.3,302.3h3.4v9.8h5v-9.8h3.4v25.1h-3.4V315h-5v12.4h-3.4V302.3z
				 M464.9,302.3h3.4v25.1h-3.4V302.3z M472.1,302.3h3.1l3.3,10c1,2.9,1.9,5.8,2.6,9.1c-0.3-1.9-0.5-3.7-0.6-5.3
				c-0.2-1.6-0.2-3.1-0.2-4.4v-9.3h3.4v25.1h-3.1l-3.8-11.3c-0.4-1-0.6-2.1-1-3.2c-0.4-1.1-0.6-2.2-0.8-3.5c0-0.2-0.1-0.4-0.1-0.6
				c0-0.2-0.1-0.5-0.2-0.7c0,0.3,0.1,0.6,0.1,0.7c0,0.2,0,0.4,0.1,0.6l0.2,2.6l0.2,3.1c0,0.2,0,0.4,0,0.6c0,0.3,0,0.6,0,0.8
				l0.2,10.9h-3.3L472.1,302.3L472.1,302.3z M493.8,314.2h6.1v1c0,4.9-0.5,8.2-1.3,9.9c-0.8,1.8-2.4,2.6-4.7,2.6c-2.4,0-4.1-1-5.1-3
				c-1-1.9-1.5-5.3-1.5-9.8c0-5.3,0.6-8.8,1.7-10.5c1-1.7,2.7-2.5,4.8-2.5c1.7,0,3,0.4,3.9,1.2c0.9,0.8,1.7,2.1,2.2,4l-3.1,1.3
				c-0.2-0.6-0.3-1.2-0.5-1.7c-0.2-0.5-0.4-0.8-0.6-1c-0.4-0.6-1-0.7-1.9-0.7c-1.1,0-1.9,0.6-2.3,2c-0.4,1.5-0.6,4.1-0.6,7.9
				s0.2,6.4,0.6,7.7c0.5,1.3,1.2,2,2.4,2c1.1,0,1.9-0.5,2.2-1.4c0.5-1,0.6-2.7,0.6-4.9v-0.6v-0.5h-3L493.8,314.2L493.8,314.2z
				 M513.8,302.3h2.6l5.4,25.1h-3.3l-0.9-4.9h-5l-0.9,4.9h-3.2L513.8,302.3z M517,319.9l-0.7-4c-0.5-2.7-0.9-5.6-1.2-8.7
				c-0.2,1.5-0.4,3.1-0.6,4.5c-0.2,1.5-0.6,3.1-0.8,4.9l-0.6,3.2H517z M525,302.3h2.9l2.2,10.3c0.3,1.3,0.6,2.6,0.7,3.9
				c0.2,1.3,0.5,2.6,0.6,4.1c0-0.2,0-0.4,0.1-0.5c0.1-0.1,0-0.2,0-0.2l0.5-2.9l0.5-2.8l0.4-1.9l1.9-10.1h3l2.3,25.1h-3.2l-0.6-8.5
				c0-0.5,0-0.8-0.1-1.1c-0.1-0.3,0-0.6,0-0.7l-0.2-3.3l-0.1-3.1v-0.1c0,0,0-0.2,0-0.3l-0.1,0.5c-0.1,0.6-0.2,1.1-0.3,1.6
				c-0.1,0.5-0.1,0.8-0.2,1.1l-0.5,2.3l-0.2,0.8l-2.1,10.9h-2.3l-1.9-9.4c-0.3-1.2-0.6-2.5-0.7-3.8c-0.2-1.3-0.4-2.6-0.6-4.1
				l-1,17.3h-3.1L525,302.3z M546.3,302.3h2.6l5.4,25.1h-3.3l-0.9-4.9h-5l-0.9,4.9h-3.2L546.3,302.3z M549.6,319.9l-0.7-4
				c-0.5-2.7-0.9-5.6-1.2-8.7c-0.2,1.5-0.4,3.1-0.6,4.5c-0.2,1.5-0.6,3.1-0.8,4.9l-0.6,3.2H549.6z M555.7,302.3h11.1l-7.6,22.1h7.1
				v3h-11.6l7.6-22.2h-6.8L555.7,302.3L555.7,302.3z M568.9,302.3h3.4v25.1h-3.4V302.3z M576.1,302.3h3.1l3.3,10
				c1,2.9,1.9,5.8,2.6,9.1c-0.3-1.9-0.5-3.7-0.6-5.3s-0.2-3.1-0.2-4.4v-9.3h3.4v25.1h-3.1l-3.8-11.3c-0.4-1-0.6-2.1-1-3.2
				s-0.6-2.2-0.8-3.5c0-0.2-0.1-0.4-0.1-0.6c0-0.2-0.1-0.5-0.2-0.7c0,0.3,0.1,0.6,0.1,0.7c0,0.2,0,0.4,0.1,0.6l0.2,2.6l0.2,3.1
				c0,0.2,0,0.4,0,0.6c0,0.3,0,0.6,0,0.8l0.2,10.9h-3.3V302.3z M597.8,314.2h6.1v1c0,4.9-0.5,8.2-1.3,9.9c-0.8,1.8-2.4,2.6-4.7,2.6
				c-2.4,0-4.1-1-5.1-3s-1.5-5.3-1.5-9.8c0-5.3,0.6-8.8,1.7-10.5c1-1.7,2.7-2.5,4.8-2.5c1.7,0,3,0.4,3.9,1.2c0.9,0.8,1.7,2.1,2.2,4
				l-3.1,1.3c-0.2-0.6-0.3-1.2-0.5-1.7c-0.2-0.5-0.4-0.8-0.6-1c-0.4-0.6-1-0.7-1.9-0.7c-1.1,0-1.9,0.6-2.3,2
				c-0.4,1.5-0.6,4.1-0.6,7.9s0.2,6.4,0.6,7.7s1.2,2,2.4,2c1.1,0,1.9-0.5,2.2-1.4c0.5-1,0.6-2.7,0.6-4.9v-0.6v-0.5h-3L597.8,314.2
				L597.8,314.2z M608.8,323.6c0.6,0,1,0.2,1.4,0.6c0.4,0.4,0.6,0.8,0.6,1.4s-0.2,1-0.6,1.4c-0.4,0.4-0.9,0.6-1.4,0.6
				c-0.3,0-0.6-0.1-0.8-0.2c-0.3-0.1-0.5-0.3-0.6-0.5c-0.2-0.2-0.4-0.4-0.5-0.6c-0.1-0.3-0.2-0.5-0.2-0.8c0-0.6,0.2-1,0.6-1.4
				C607.7,323.8,608.2,323.6,608.8,323.6L608.8,323.6z"/>
			
				<path id="STAY-TUNED.--WE-ARE--2" sketch:type="MSShapeGroup" display="none" fill="#FFFFFF" stroke="#FFFFFF" stroke-width="0.5" d="
				M10.3,301.4v3.3c-1-0.7-1.9-1.1-2.8-1.1c-0.9,0-1.6,0.3-2.2,0.9c-0.6,0.6-0.8,1.4-0.8,2.4c0,0.8,0.2,1.7,0.6,2.2
				c0.2,0.4,0.6,0.7,1,1.3c0.5,0.6,1.1,1.2,1.9,1.9c1.4,1.4,2.3,2.6,2.8,3.6c0.5,1,0.7,2.2,0.7,3.6c0,1.9-0.6,3.5-1.7,4.8
				c-1.1,1.2-2.5,1.9-4.3,1.9c-1.5,0-2.7-0.4-3.7-1.2v-3.3c1.2,0.8,2.3,1.3,3.3,1.3c0.9,0,1.7-0.3,2.1-0.9c0.5-0.6,0.7-1.5,0.7-2.5
				c0-0.9-0.2-1.8-0.6-2.5c-0.2-0.4-0.5-0.7-0.8-1.2c-0.4-0.5-0.8-0.9-1.4-1.5c-0.8-0.8-1.6-1.6-2.1-2.2s-1-1.2-1.3-1.7
				c-0.6-0.9-0.7-2.1-0.7-3.6c0-1.9,0.6-3.5,1.6-4.6c1-1.2,2.4-1.8,4.2-1.8C8,300.6,9.3,300.8,10.3,301.4L10.3,301.4z M12.8,300.9
				h11v3H20V326h-3.3v-22.1h-3.9V300.9z M28.8,300.9h2.6l5.4,25.1h-3.3l-0.9-4.9h-5l-0.9,4.9h-3.2L28.8,300.9z M32,318.5l-0.7-4
				c-0.5-2.7-0.9-5.6-1.2-8.7c-0.2,1.5-0.4,3.1-0.6,4.5c-0.3,1.6-0.6,3.1-0.8,4.9l-0.6,3.2H32z M35.6,300.9h3.6l1.7,5.5
				c0.1,0.2,0.1,0.4,0.2,0.6c0.1,0.2,0.1,0.4,0.2,0.6c0.6,1.9,1,3.6,1.3,5c0.2-1.4,0.4-2.3,0.5-2.8l0.6-2.2l0.2-0.8l1.4-5.6h3.5
				l-4.3,14.3V326h-3.4v-10.8L35.6,300.9z M55.3,300.9h11v3h-3.8V326h-3.3v-22.1h-3.9V300.9z M68.2,300.9h3.3v17.7
				c0,1.9,0.2,3.1,0.5,3.6c0.4,0.6,1,0.9,1.9,0.9c0.9,0,1.7-0.3,1.9-0.7c0.4-0.6,0.5-1.6,0.5-3.2v-18.2h3.3v18.2
				c0,2.8-0.5,4.6-1.3,5.6c-1,1.1-2.5,1.7-4.5,1.7c-2.2,0-3.9-0.7-4.8-2.1c-0.6-0.9-0.9-2.8-0.9-5.6L68.2,300.9L68.2,300.9z
				 M83.6,300.9h3.1l3.3,10c1,2.9,1.9,5.8,2.6,9.1c-0.3-1.9-0.5-3.7-0.6-5.3c-0.2-1.6-0.2-3.1-0.2-4.4v-9.3h3.4V326h-3.1l-3.8-11.3
				c-0.4-1-0.6-2.1-1-3.2c-0.4-1.1-0.6-2.2-0.8-3.5c0-0.2-0.1-0.4-0.1-0.6c0-0.2-0.1-0.5-0.2-0.7c0,0.3,0.1,0.6,0.1,0.7
				c0,0.2,0,0.4,0.1,0.6l0.2,2.6l0.2,3.1c0,0.2,0,0.4,0,0.6c0,0.3,0,0.6,0,0.8L87,326h-3.3V300.9z M99.2,300.9h9v2.9h-5.6v8h5v2.9
				h-5v8.6h5.6v2.9h-9V300.9z M111.3,300.9h4.2c1.3,0,2.3,0.2,3.2,0.5c0.8,0.3,1.5,0.7,2.1,1.5c0.9,1,1.6,2.4,2,4.1
				c0.4,1.6,0.6,3.9,0.6,6.9c0,2.8-0.2,5-0.6,6.8c-0.5,1.7-1.1,3-2.1,3.8c-1.2,1.1-3.4,1.7-6.6,1.7h-2.8L111.3,300.9L111.3,300.9z
				 M114.7,323c2,0,3.4-0.6,4.2-1.9c0.7-1.2,1.1-3.7,1.1-7.3c0-3.9-0.4-6.6-1-8c-0.6-1.4-1.9-2.2-3.8-2.2h-0.5V323z M128.4,322.2
				c0.6,0,1,0.2,1.4,0.6c0.4,0.4,0.6,0.8,0.6,1.4s-0.2,1-0.6,1.4c-0.4,0.4-0.9,0.6-1.4,0.6c-0.3,0-0.6-0.1-0.8-0.2s-0.5-0.3-0.6-0.5
				c-0.2-0.2-0.4-0.4-0.5-0.6c-0.1-0.3-0.2-0.5-0.2-0.8c0-0.6,0.2-1,0.6-1.4C127.3,322.4,127.7,322.2,128.4,322.2L128.4,322.2z
				 M145.6,300.9h3.2l1.7,11.7l0.3,1.8c0.1,0.9,0.2,1.8,0.3,2.6l0.2,2.1c0,0.1,0,0.2,0,0.3c0,0.1,0,0.3,0.1,0.6l0.1-0.8
				c0.1-1.4,0.3-2.7,0.4-3.9c0.1-1.2,0.3-2.3,0.5-3.3l1.9-10.8h2.6l1.7,10.5c0.3,1.6,0.5,3.1,0.6,4.3c0.2,1.3,0.3,2.6,0.4,3.8
				c0.1-1.3,0.2-2.5,0.4-3.7c0.2-1.2,0.3-2.4,0.5-3.5l0.3-1.7l1.5-9.8h3.2l-4.4,25.1h-2.6l-1.8-10.8c0,0,0-0.2-0.1-0.6
				c-0.1-0.4-0.1-0.7-0.2-1.4l-0.4-2.5c0-0.2-0.1-0.5-0.1-0.8s-0.1-0.9-0.2-1.5l-0.1-1c0,0.3,0,0.5-0.1,0.6c-0.1,0.2,0,0.4-0.1,0.5
				c-0.1,0.7-0.1,1.3-0.1,1.7s-0.1,0.6-0.1,0.7l-0.4,2.4c-0.1,0.6-0.1,1-0.2,1.3s-0.1,0.6-0.1,0.6l-1.9,10.8h-2.7L145.6,300.9z
				 M167.2,300.9h9v2.9h-5.6v8h5v2.9h-5v8.6h5.6v2.9h-9V300.9z M189.8,300.9h2.6l5.4,25.1h-3.3l-0.9-4.9h-5l-0.9,4.9h-3.2
				L189.8,300.9z M193.1,318.5l-0.7-4c-0.5-2.7-0.9-5.6-1.2-8.7c-0.2,1.5-0.4,3.1-0.6,4.5c-0.2,1.5-0.6,3.1-0.8,4.9l-0.6,3.2H193.1z
				 M199.8,300.9h4.4c1.9,0,3.2,0.5,4.1,1.3c1.1,1.1,1.7,2.9,1.7,5.2c0,1.8-0.3,3.2-0.9,4.3c-0.6,1.1-1.5,1.8-2.6,2l4.6,12.2h-3.4
				l-4.6-12.3V326h-3.2V300.9z M203.1,312c1.3,0,2.2-0.3,2.8-0.9s0.8-1.7,0.8-3.1c0-0.7-0.1-1.5-0.2-2c-0.1-0.6-0.3-1-0.6-1.4
				c-0.3-0.4-0.6-0.6-0.9-0.7s-0.8-0.3-1.4-0.3h-0.6L203.1,312L203.1,312z M213.9,300.9h9v2.9h-5.6v8h5v2.9h-5v8.6h5.6v2.9h-9V300.9
				z M230.9,300.9h3.2l1.7,11.7l0.3,1.8c0.1,0.9,0.2,1.8,0.3,2.6l0.2,2.1c0,0.1,0,0.2,0,0.3c0,0.1,0,0.3,0.1,0.6l0.1-0.8
				c0.1-1.4,0.3-2.7,0.4-3.9c0.1-1.2,0.3-2.3,0.5-3.3l1.9-10.8h2.6l1.7,10.5c0.3,1.6,0.5,3.1,0.6,4.3c0.2,1.3,0.3,2.6,0.4,3.8
				c0.1-1.3,0.2-2.5,0.4-3.7c0.2-1.2,0.3-2.4,0.5-3.5l0.3-1.7l1.5-9.8h3.2l-4.4,25.1h-2.6l-1.8-10.8c0,0,0-0.2-0.1-0.6
				s-0.1-0.7-0.2-1.4l-0.4-2.5c0-0.2-0.1-0.5-0.1-0.8s-0.1-0.9-0.2-1.5l-0.1-1c0,0.3,0,0.5-0.1,0.6c-0.1,0.2,0,0.4-0.1,0.5
				c-0.1,0.7-0.1,1.3-0.1,1.7s-0.1,0.6-0.1,0.7l-0.4,2.4c-0.1,0.6-0.1,1-0.2,1.3c-0.1,0.3-0.1,0.6-0.1,0.6l-1.9,10.8h-2.7
				L230.9,300.9z M265.1,314.1c0,4.4-0.5,7.6-1.5,9.4s-2.7,2.8-5,2.8c-2.4,0-4.2-1-5.2-3.1c-1-1.9-1.5-5.5-1.5-10.5
				c0-4.4,0.5-7.6,1.5-9.4c1-1.9,2.7-2.8,5-2.8c2.1,0,3.7,0.7,4.7,2.1c0.6,0.9,1.2,2.3,1.5,4.1C265,308.5,265.1,310.9,265.1,314.1
				L265.1,314.1z M261.6,314.4c0-4.3-0.2-7.2-0.6-8.7c-0.4-1.4-1.2-2.1-2.4-2.1c-1.2,0-2,0.6-2.4,1.9c-0.4,1.3-0.6,4-0.6,8
				c0,3.7,0.2,6.2,0.6,7.7c0.5,1.4,1.2,2,2.4,2c1.1,0,1.9-0.6,2.3-1.9C261.4,320.1,261.6,317.8,261.6,314.4L261.6,314.4z
				 M268.5,300.9h4.4c1.9,0,3.2,0.5,4.1,1.3c1.1,1.1,1.7,2.9,1.7,5.2c0,1.8-0.3,3.2-0.9,4.3c-0.6,1.1-1.5,1.8-2.6,2l4.6,12.2h-3.4
				l-4.6-12.3V326h-3.4v-25.1H268.5z M271.9,312c1.3,0,2.2-0.3,2.8-0.9s0.8-1.7,0.8-3.1c0-0.7-0.1-1.5-0.2-2c-0.1-0.6-0.3-1-0.6-1.4
				c-0.3-0.4-0.6-0.6-0.9-0.7c-0.4-0.1-0.8-0.3-1.4-0.3h-0.6L271.9,312L271.9,312z M282.5,300.9h3.4v12.1l4.7-12.1h3.4l-4.9,12.1
				l5.4,13h-3.8l-4.7-13v13h-3.4L282.5,300.9L282.5,300.9z M296.6,300.9h3.4V326h-3.4V300.9z M303.8,300.9h3.1l3.3,10
				c1,2.9,1.9,5.8,2.6,9.1c-0.3-1.9-0.5-3.7-0.6-5.3c-0.2-1.6-0.2-3.1-0.2-4.4v-9.3h3.4V326h-3.1l-3.8-11.3c-0.4-1-0.6-2.1-1-3.2
				c-0.4-1.1-0.6-2.2-0.8-3.5c0-0.2-0.1-0.4-0.1-0.6c0-0.2-0.1-0.5-0.2-0.7c0,0.3,0.1,0.6,0.1,0.7c0,0.2,0,0.4,0.1,0.6l0.2,2.6
				l0.2,3.1c0,0.2,0,0.4,0,0.6c0,0.3,0,0.6,0,0.8l0.2,10.8h-3.3V300.9z M325.4,312.8h6.1v1c0,4.9-0.5,8.2-1.3,9.9
				c-0.8,1.8-2.4,2.6-4.7,2.6c-2.4,0-4.1-1-5.1-3c-1-1.9-1.5-5.3-1.5-9.8c0-5.3,0.6-8.8,1.7-10.5c1-1.7,2.7-2.5,4.8-2.5
				c1.7,0,3,0.4,3.9,1.2c0.9,0.8,1.7,2.1,2.2,4l-3.1,1.3c-0.2-0.6-0.3-1.2-0.5-1.7c-0.2-0.5-0.4-0.8-0.6-1c-0.4-0.6-1-0.7-1.9-0.7
				c-1.1,0-1.9,0.7-2.3,2c-0.4,1.5-0.6,4.1-0.6,7.9c0,3.8,0.2,6.4,0.6,7.7c0.5,1.3,1.2,2,2.4,2c1.1,0,1.9-0.5,2.2-1.4
				c0.5-1,0.6-2.7,0.6-4.9v-0.6v-0.5h-3L325.4,312.8L325.4,312.8z M354.4,314.1c0,4.4-0.5,7.6-1.5,9.4s-2.7,2.8-5,2.8
				c-2.4,0-4.2-1-5.2-3.1c-1-1.9-1.5-5.5-1.5-10.5c0-4.4,0.5-7.6,1.5-9.4c1-1.9,2.7-2.8,5-2.8c2.1,0,3.7,0.7,4.7,2.1
				c0.6,0.9,1.2,2.3,1.5,4.1C354.2,308.5,354.4,310.9,354.4,314.1L354.4,314.1z M350.9,314.4c0-4.3-0.2-7.2-0.6-8.7
				c-0.4-1.4-1.2-2.1-2.4-2.1s-2,0.6-2.4,1.9c-0.4,1.3-0.6,4-0.6,8c0,3.7,0.2,6.2,0.6,7.7c0.5,1.4,1.2,2,2.4,2
				c1.1,0,1.9-0.6,2.3-1.9C350.6,320.1,350.9,317.8,350.9,314.4L350.9,314.4z M357.7,300.9h3.1l3.3,10c1,2.9,1.9,5.8,2.6,9.1
				c-0.3-1.9-0.5-3.7-0.6-5.3c-0.2-1.6-0.2-3.1-0.2-4.4v-9.3h3.4V326h-3.1l-3.8-11.3c-0.4-1-0.6-2.1-1-3.2c-0.4-1.1-0.6-2.2-0.8-3.5
				c0-0.2-0.1-0.4-0.1-0.6c0-0.2-0.1-0.5-0.2-0.7c0,0.3,0.1,0.6,0.1,0.7c0,0.2,0,0.4,0.1,0.6l0.2,2.6l0.2,3.1c0,0.2,0,0.4,0,0.6
				c0,0.3,0,0.6,0,0.8l0.2,10.9h-3.3V300.9z M388.6,301.4v3.3c-1-0.7-1.9-1.1-2.8-1.1c-0.9,0-1.6,0.3-2.2,0.9
				c-0.6,0.6-0.8,1.4-0.8,2.4c0,0.8,0.2,1.7,0.6,2.2c0.2,0.4,0.6,0.7,1,1.3c0.5,0.6,1.1,1.2,1.9,1.9c1.4,1.4,2.3,2.6,2.8,3.6
				c0.5,1,0.7,2.2,0.7,3.6c0,1.9-0.6,3.5-1.7,4.8c-1.1,1.2-2.5,1.9-4.3,1.9c-1.5,0-2.7-0.4-3.7-1.2v-3.3c1.2,0.8,2.3,1.3,3.3,1.3
				c0.9,0,1.7-0.3,2.1-0.9c0.5-0.6,0.7-1.5,0.7-2.5c0-0.9-0.2-1.8-0.6-2.5c-0.2-0.4-0.5-0.7-0.8-1.2c-0.4-0.5-0.8-0.9-1.4-1.5
				c-0.8-0.8-1.6-1.6-2.1-2.2s-1-1.2-1.3-1.7c-0.6-0.9-0.7-2.1-0.7-3.6c0-1.9,0.6-3.5,1.6-4.6c1-1.2,2.4-1.8,4.2-1.8
				C386.3,300.6,387.5,300.8,388.6,301.4L388.6,301.4z M405.2,314.1c0,4.4-0.5,7.6-1.5,9.4c-1,1.9-2.7,2.8-5,2.8
				c-2.4,0-4.2-1-5.2-3.1c-1-1.9-1.5-5.5-1.5-10.5c0-4.4,0.5-7.6,1.5-9.4c1-1.9,2.7-2.8,5-2.8c2.1,0,3.7,0.7,4.7,2.1
				c0.6,0.9,1.2,2.3,1.5,4.1C405.1,308.5,405.2,310.9,405.2,314.1L405.2,314.1z M401.6,314.4c0-4.3-0.2-7.2-0.6-8.7
				c-0.4-1.4-1.2-2.1-2.4-2.1c-1.2,0-2,0.6-2.4,1.9c-0.4,1.3-0.6,4-0.6,8c0,3.7,0.2,6.2,0.6,7.7c0.5,1.4,1.2,2,2.4,2
				c1.1,0,1.9-0.6,2.3-1.9C401.5,320.1,401.6,317.8,401.6,314.4L401.6,314.4z M409.7,300.9h2.9l2.2,10.3c0.3,1.3,0.6,2.6,0.7,3.9
				s0.5,2.6,0.6,4.1c0-0.2,0-0.4,0.1-0.5c0.1-0.1,0-0.2,0-0.2l0.5-2.9l0.5-2.8l0.4-1.9l1.9-10.1h3l2.3,25.1h-3.2l-0.6-8.5
				c0-0.5,0-0.8-0.1-1.1c-0.1-0.3,0-0.6,0-0.7l-0.2-3.3l-0.1-3.1v-0.1c0,0,0-0.2,0-0.3l-0.1,0.5c-0.1,0.6-0.2,1.1-0.3,1.6
				c-0.1,0.5-0.1,0.8-0.2,1.1l-0.5,2.3l-0.2,0.8l-2.1,10.9H415l-1.9-9.4c-0.3-1.2-0.6-2.5-0.7-3.8s-0.4-2.6-0.6-4.1l-1,17.3h-3.1
				L409.7,300.9z M427.5,300.9h9v2.9h-5.6v8h5v2.9h-5v8.6h5.6v2.9h-9V300.9z M437.6,300.9h11v3h-3.8V326h-3.3v-22.1h-3.9
				L437.6,300.9L437.6,300.9z M450.5,300.9h3.4v9.8h5v-9.8h3.4V326h-3.5v-12.4h-5V326h-3.3V300.9z M466.1,300.9h3.4V326h-3.4V300.9z
				 M473.3,300.9h3.1l3.3,10c1,2.9,1.9,5.8,2.6,9.1c-0.3-1.9-0.5-3.7-0.6-5.3c-0.2-1.6-0.2-3.1-0.2-4.4v-9.3h3.4V326h-3.1l-3.8-11.3
				c-0.4-1-0.6-2.1-1-3.2c-0.4-1.1-0.6-2.2-0.8-3.5c0-0.2-0.1-0.4-0.1-0.6c0-0.2-0.1-0.5-0.2-0.7c0,0.3,0.1,0.6,0.1,0.7
				c0,0.2,0,0.4,0.1,0.6l0.2,2.6l0.2,3.1c0,0.2,0,0.4,0,0.6c0,0.3,0,0.6,0,0.8l0.2,10.9h-3.3L473.3,300.9L473.3,300.9z M495,312.8
				h6.1v1c0,4.9-0.5,8.2-1.3,9.9c-0.8,1.8-2.4,2.6-4.7,2.6c-2.4,0-4.1-1-5.1-3c-1-1.9-1.5-5.3-1.5-9.8c0-5.3,0.6-8.8,1.7-10.5
				c1-1.7,2.7-2.5,4.8-2.5c1.7,0,3,0.4,3.9,1.2c0.9,0.8,1.7,2.1,2.2,4l-3.1,1.3c-0.2-0.6-0.3-1.2-0.5-1.7c-0.2-0.5-0.4-0.8-0.6-1
				c-0.4-0.6-1-0.7-1.9-0.7c-1.1,0-1.9,0.7-2.3,2c-0.4,1.5-0.6,4.1-0.6,7.9c0,3.8,0.2,6.4,0.6,7.7s1.2,2,2.4,2
				c1.1,0,1.9-0.5,2.2-1.4c0.5-1,0.6-2.7,0.6-4.9v-0.6v-0.5h-3L495,312.8L495,312.8z M515,300.9h2.6l5.4,25.1h-3.3l-0.9-4.9h-5
				l-0.9,4.9h-3.2L515,300.9z M518.2,318.5l-0.7-4c-0.5-2.7-0.9-5.6-1.2-8.7c-0.2,1.5-0.4,3.1-0.6,4.5c-0.2,1.5-0.6,3.1-0.8,4.9
				l-0.6,3.2H518.2z M526.2,300.9h2.9l2.2,10.3c0.3,1.3,0.6,2.6,0.7,3.9c0.2,1.3,0.5,2.6,0.6,4.1c0-0.2,0-0.4,0.1-0.5
				c0.1-0.1,0-0.2,0-0.2l0.5-2.9l0.5-2.8l0.4-1.9l1.9-10.1h3l2.2,25.1h-3.2l-0.6-8.5c0-0.5,0-0.8-0.1-1.1c-0.1-0.3,0-0.6,0-0.7
				l-0.2-3.3l-0.1-3.1v-0.1c0,0,0-0.2,0-0.3l-0.1,0.5c-0.1,0.6-0.2,1.1-0.3,1.6c-0.1,0.5-0.1,0.8-0.2,1.1l-0.5,2.3l-0.2,0.8l-2,10.8
				h-2.3l-1.9-9.4c-0.3-1.2-0.6-2.5-0.7-3.8c-0.2-1.3-0.4-2.6-0.6-4.1l-0.9,17.3h-3.1L526.2,300.9z M547.5,300.9h2.6l5.4,25.1h-3.3
				l-0.9-4.9h-5l-0.9,4.9h-3.2L547.5,300.9z M550.8,318.5l-0.7-4c-0.5-2.7-0.9-5.6-1.2-8.7c-0.2,1.5-0.4,3.1-0.6,4.5
				c-0.2,1.5-0.6,3.1-0.8,4.9l-0.6,3.2H550.8z M556.9,300.9H568l-7.6,22.1h7.1v3h-11.6l7.6-22.2h-6.7V300.9z M570.1,300.9h3.4V326
				h-3.4V300.9z M577.3,300.9h3.1l3.3,10c1,2.9,1.9,5.8,2.6,9.1c-0.3-1.9-0.5-3.7-0.6-5.3c-0.2-1.6-0.2-3.1-0.2-4.4v-9.3h3.4V326
				h-3.1l-3.8-11.3c-0.4-1-0.6-2.1-1-3.2c-0.4-1.1-0.6-2.2-0.8-3.5c0-0.2-0.1-0.4-0.1-0.6c0-0.2-0.1-0.5-0.2-0.7
				c0,0.3,0.1,0.6,0.1,0.7c0,0.2,0,0.4,0.1,0.6l0.2,2.6l0.2,3.1c0,0.2,0,0.4,0,0.6c0,0.3,0,0.6,0,0.8l0.2,10.9h-3.3V300.9z
				 M599,312.8h6.1v1c0,4.9-0.5,8.2-1.3,9.9c-0.8,1.8-2.4,2.6-4.7,2.6c-2.4,0-4.1-1-5.1-3c-1-1.9-1.5-5.3-1.5-9.8
				c0-5.3,0.6-8.8,1.7-10.5c1-1.7,2.7-2.5,4.8-2.5c1.7,0,3,0.4,3.9,1.2c0.9,0.8,1.7,2.1,2.2,4l-3.1,1.3c-0.2-0.6-0.3-1.2-0.5-1.7
				c-0.2-0.5-0.4-0.8-0.6-1c-0.4-0.6-1-0.7-1.9-0.7c-1.1,0-1.9,0.7-2.3,2c-0.4,1.5-0.6,4.1-0.6,7.9c0,3.8,0.2,6.4,0.6,7.7
				s1.2,2,2.4,2c1.1,0,1.9-0.5,2.2-1.4c0.5-1,0.6-2.7,0.6-4.9v-0.6v-0.5h-3L599,312.8L599,312.8z M610,322.2c0.6,0,1,0.2,1.4,0.6
				c0.4,0.4,0.6,0.8,0.6,1.4s-0.2,1-0.6,1.4c-0.4,0.4-0.9,0.6-1.4,0.6c-0.3,0-0.6-0.1-0.8-0.2s-0.5-0.3-0.6-0.5
				c-0.2-0.2-0.4-0.4-0.5-0.6c-0.1-0.3-0.2-0.5-0.2-0.8c0-0.6,0.2-1,0.6-1.4C608.9,322.4,609.4,322.2,610,322.2L610,322.2z"/>
			<path id="EMPOWERING-NON-PROFI" sketch:type="MSShapeGroup" fill="#FFFFFF" d="M92.1,202h7v2.2h-4.3v6.2h3.9v2.2h-3.9v6.7h4.3
				v2.2h-7V202z M102.5,202h2.2l1.8,8c0.2,1,0.4,2,0.6,3c0.2,1,0.4,2,0.5,3.1c0-0.2,0-0.3,0-0.4s0-0.1,0-0.2l0.4-2.2l0.4-2.1
				l0.3-1.4l1.6-7.9h2.3l1.8,19.5h-2.5l-0.5-6.7c0-0.4,0-0.6,0-0.8s0-0.5,0-0.6l-0.1-2.6l-0.1-2.4v-0.1c0,0,0-0.1,0-0.2l-0.1,0.4
				c-0.1,0.5-0.1,0.8-0.2,1.2s-0.1,0.6-0.2,0.8l-0.4,1.8l-0.1,0.6l-1.7,8.5h-1.8l-1.6-7.4c-0.2-0.9-0.4-1.9-0.6-3
				c-0.2-1-0.3-2-0.5-3.1l-0.7,13.7h-2.5L102.5,202z M116.4,202h3.4c1.7,0,2.9,0.5,3.6,1.3c0.7,0.8,1.1,2.2,1.1,4.1
				c0,2.6-0.7,4.3-2.3,5c-0.7,0.4-1.9,0.6-3.3,0.6v8.6h-2.6L116.4,202L116.4,202z M119,210.6c1.1,0,1.9-0.2,2.2-0.6
				c0.5-0.5,0.6-1.2,0.6-2.4c0-1.2-0.2-2-0.6-2.6c-0.5-0.6-1-0.8-1.9-0.8h-0.4L119,210.6L119,210.6z M136.3,212.2
				c0,3.4-0.4,5.9-1.1,7.3c-0.7,1.4-2,2.2-3.9,2.2c-1.9,0-3.2-0.7-4-2.3c-0.7-1.5-1.1-4.3-1.1-8.1c0-3.5,0.4-5.9,1.1-7.4
				c0.7-1.5,2-2.2,3.9-2.2c1.7,0,2.9,0.6,3.6,1.7c0.6,0.7,0.9,1.9,1.1,3.2C136.3,207.9,136.3,209.7,136.3,212.2L136.3,212.2z
				 M133.7,212.5c0-3.4-0.2-5.6-0.5-6.8c-0.3-1.1-0.9-1.7-1.9-1.7c-0.9,0-1.6,0.6-1.9,1.6s-0.5,3.1-0.5,6.2c0,2.9,0.2,4.8,0.5,5.9
				c0.4,1,0.9,1.6,1.9,1.6c0.9,0,1.5-0.5,1.9-1.5C133.5,216.8,133.7,215.1,133.7,212.5L133.7,212.5z M137.6,202h2.5l1.3,9.1l0.2,1.3
				c0.1,0.7,0.2,1.4,0.2,1.9l0.2,1.7c0,0,0,0.1,0,0.2s0,0.3,0,0.5l0.1-0.6c0.1-1.1,0.2-2.1,0.3-3.1c0.1-0.9,0.3-1.8,0.4-2.6l1.4-8.4
				h2l1.3,8.2c0.2,1.2,0.4,2.3,0.5,3.4c0.1,1,0.3,2,0.3,3c0.1-1,0.2-1.9,0.3-2.9c0.1-0.9,0.2-1.9,0.4-2.8l0.2-1.3l1.1-7.7h2.5
				l-3.1,19.6h-2l-1.4-8.4c0,0,0-0.2-0.1-0.5s-0.1-0.6-0.2-1l-0.3-1.9c0-0.2,0-0.4-0.1-0.6s-0.1-0.6-0.1-1.1l-0.1-0.8
				c0,0.2,0,0.4-0.1,0.5c-0.1,0.1,0,0.3,0,0.4c0,0.6-0.1,1-0.1,1.3s-0.1,0.5-0.1,0.6l-0.3,1.9c-0.1,0.5-0.1,0.7-0.2,1
				c-0.1,0.3-0.1,0.4-0.1,0.5l-1.4,8.4h-2.1L137.6,202z M154.4,202h7v2.2h-4.3v6.2h3.9v2.2h-3.9v6.7h4.3v2.2h-7V202z M163.7,202h3.4
				c1.4,0,2.5,0.4,3.2,1c0.9,0.9,1.3,2.2,1.3,4.1c0,1.4-0.3,2.5-0.7,3.3c-0.5,0.8-1.1,1.4-2,1.6l3.6,9.5h-2.7l-3.6-9.5v9.5h-2.5V202
				z M166.4,210.6c1,0,1.8-0.3,2.1-0.7c0.4-0.5,0.6-1.3,0.6-2.4c0-0.6,0-1.1-0.1-1.6c-0.1-0.5-0.2-0.7-0.5-1
				c-0.3-0.3-0.5-0.5-0.7-0.6s-0.6-0.2-1.1-0.2h-0.5L166.4,210.6L166.4,210.6z M174.6,202h2.6v19.5h-2.6V202z M180.3,202h2.5
				l2.6,7.8c0.7,2.2,1.4,4.5,2,7c-0.2-1.5-0.4-2.9-0.5-4.1c-0.1-1.2-0.2-2.4-0.2-3.4V202h2.7v19.5h-2.5l-3-8.8
				c-0.3-0.8-0.6-1.7-0.7-2.5c-0.2-0.8-0.5-1.8-0.6-2.7c0-0.1,0-0.3-0.1-0.5c-0.1-0.2-0.1-0.4-0.1-0.6c0,0.2,0.1,0.4,0.1,0.6
				s0,0.3,0,0.4l0.2,1.9l0.2,2.4c0,0.1,0,0.3,0,0.5c0,0.2,0,0.4,0,0.6l0.2,8.5h-2.6V202H180.3z M197.1,211.2h4.8v0.7
				c0,3.8-0.4,6.4-1,7.7c-0.6,1.4-1.9,2-3.7,2c-1.9,0-3.1-0.7-4-2.3c-0.7-1.5-1.2-4.1-1.2-7.7c0-4.1,0.5-6.8,1.3-8.1s2-1.9,3.7-1.9
				c1.3,0,2.3,0.3,3,0.9c0.7,0.6,1.3,1.7,1.7,3.1l-2.5,1c-0.1-0.6-0.3-0.9-0.4-1.3c-0.1-0.4-0.3-0.6-0.5-0.8
				c-0.3-0.4-0.8-0.6-1.5-0.6c-0.8,0-1.5,0.6-1.8,1.7c-0.3,1.1-0.5,3.1-0.5,6.1c0,3,0.2,5,0.5,6s0.9,1.6,1.9,1.6
				c0.8,0,1.4-0.4,1.8-1.1c0.4-0.8,0.6-2,0.6-3.8v-0.6v-0.4h-2.3v-2.2H197.1z M209.9,202h2.5l2.6,7.8c0.7,2.2,1.4,4.5,2,7
				c-0.2-1.5-0.4-2.9-0.5-4.1c-0.1-1.2-0.2-2.4-0.2-3.4V202h2.7v19.5h-2.6l-3-8.8c-0.3-0.8-0.6-1.7-0.7-2.5
				c-0.2-0.8-0.5-1.8-0.6-2.7c0-0.1,0-0.3-0.1-0.5s-0.1-0.4-0.1-0.6c0,0.2,0.1,0.4,0.1,0.6s0,0.3,0,0.4l0.2,1.9l0.2,2.4
				c0,0.1,0,0.3,0,0.5c0,0.2,0,0.4,0,0.6l0.2,8.5H210L209.9,202L209.9,202z M231.8,212.2c0,3.4-0.4,5.9-1.1,7.3s-2,2.2-3.9,2.2
				c-1.9,0-3.2-0.7-4-2.3c-0.7-1.5-1.1-4.3-1.1-8.1c0-3.5,0.4-5.9,1.1-7.4c0.7-1.5,2-2.2,3.9-2.2c1.7,0,2.9,0.6,3.6,1.7
				c0.6,0.7,0.9,1.9,1.1,3.2C231.6,207.9,231.8,209.7,231.8,212.2L231.8,212.2z M229,212.5c0-3.4-0.2-5.6-0.5-6.8
				c-0.3-1.1-0.9-1.7-1.9-1.7s-1.6,0.6-1.9,1.6s-0.5,3.1-0.5,6.2c0,2.9,0.2,4.8,0.5,5.9c0.4,1,0.9,1.6,1.9,1.6s1.5-0.5,1.9-1.5
				C228.9,216.8,229,215.1,229,212.5L229,212.5z M234.4,202h2.5l2.6,7.8c0.7,2.2,1.4,4.5,2,7c-0.2-1.5-0.4-2.9-0.5-4.1
				c-0.1-1.2-0.2-2.4-0.2-3.4V202h2.7v19.5h-2.5l-3-8.8c-0.3-0.8-0.6-1.7-0.7-2.5c-0.2-0.8-0.5-1.8-0.6-2.7c0-0.1,0-0.3-0.1-0.5
				c-0.1-0.2-0.1-0.4-0.1-0.6c0,0.2,0.1,0.4,0.1,0.6s0,0.3,0,0.4l0.2,1.9l0.2,2.4c0,0.1,0,0.3,0,0.5c0,0.2,0,0.4,0,0.6l0.2,8.5h-2.6
				V202H234.4z M245,213.8h4.6v1.9H245V213.8z M251.1,202h3.4c1.7,0,2.9,0.5,3.6,1.3s1.1,2.2,1.1,4.1c0,2.6-0.7,4.3-2.3,5
				c-0.7,0.4-1.9,0.6-3.3,0.6v8.6h-2.6L251.1,202L251.1,202z M253.7,210.6c1.1,0,1.9-0.2,2.2-0.6c0.5-0.5,0.6-1.2,0.6-2.4
				c0-1.2-0.2-2-0.6-2.6c-0.5-0.6-1-0.8-1.9-0.8h-0.4L253.7,210.6L253.7,210.6z M261.4,202h3.4c1.4,0,2.5,0.4,3.2,1
				c0.9,0.9,1.3,2.2,1.3,4.1c0,1.4-0.3,2.5-0.7,3.3c-0.5,0.8-1.1,1.4-2,1.6l3.6,9.5h-2.7l-3.6-9.5v9.5h-2.6L261.4,202L261.4,202z
				 M264,210.6c1,0,1.8-0.3,2.1-0.7c0.4-0.5,0.6-1.3,0.6-2.4c0-0.6,0-1.1-0.1-1.6c-0.1-0.5-0.2-0.7-0.5-1c-0.3-0.3-0.5-0.5-0.7-0.6
				s-0.6-0.2-1.1-0.2h-0.5L264,210.6L264,210.6z M281.9,212.2c0,3.4-0.4,5.9-1.1,7.3c-0.7,1.4-2,2.2-3.9,2.2c-1.9,0-3.2-0.7-4-2.3
				c-0.7-1.5-1.1-4.3-1.1-8.1c0-3.5,0.4-5.9,1.1-7.4c0.7-1.5,2-2.2,3.9-2.2c1.7,0,2.9,0.6,3.6,1.7c0.6,0.7,0.9,1.9,1.1,3.2
				C281.8,207.9,281.9,209.7,281.9,212.2L281.9,212.2z M279.1,212.5c0-3.4-0.2-5.6-0.5-6.8c-0.3-1.1-0.9-1.7-1.9-1.7
				s-1.6,0.6-1.9,1.6s-0.5,3.1-0.5,6.2c0,2.9,0.2,4.8,0.5,5.9c0.4,1,0.9,1.6,1.9,1.6s1.5-0.5,1.9-1.5
				C278.9,216.8,279.1,215.1,279.1,212.5L279.1,212.5z M284.4,202h7v2.2H287v6.2h4v2.2h-4v8.9h-2.6L284.4,202L284.4,202z M293.5,202
				h2.6v19.5h-2.6V202z M297.6,202h8.6v2.3h-3v17.2h-2.6v-17.2h-3.1V202z M314.7,202.3v2.6c-0.8-0.6-1.5-0.8-2.1-0.8
				s-1.3,0.3-1.7,0.7c-0.5,0.5-0.6,1.1-0.6,1.9c0,0.6,0.2,1.3,0.5,1.8c0.2,0.3,0.5,0.6,0.8,1c0.4,0.5,0.8,0.9,1.4,1.5
				c1.1,1.1,1.8,2,2.2,2.8c0.4,0.7,0.6,1.7,0.6,2.8c0,1.5-0.5,2.8-1.3,3.7s-1.9,1.4-3.2,1.4c-1.1,0-2-0.3-2.9-0.9V218
				c0.9,0.6,1.8,1,2.6,1c0.7,0,1.3-0.3,1.7-0.7c0.4-0.5,0.6-1.1,0.6-1.9c0-0.7-0.2-1.4-0.5-1.9c-0.2-0.3-0.4-0.6-0.6-0.9
				s-0.6-0.7-1.1-1.2c-0.6-0.6-1.2-1.2-1.7-1.8c-0.5-0.6-0.7-0.9-1-1.3c-0.4-0.7-0.6-1.7-0.6-2.8c0-1.5,0.4-2.8,1.2-3.6
				c0.8-0.9,1.9-1.4,3.2-1.4C312.9,201.7,313.8,201.9,314.7,202.3L314.7,202.3z M321.6,202h8.6v2.3h-3v17.2h-2.6v-17.2h-3.1V202z
				 M341.6,212.2c0,3.4-0.4,5.9-1.1,7.3c-0.7,1.4-2,2.2-3.9,2.2c-1.9,0-3.2-0.7-4-2.3c-0.7-1.5-1.1-4.3-1.1-8.1
				c0-3.5,0.4-5.9,1.1-7.4c0.7-1.5,2-2.2,3.9-2.2c1.7,0,2.9,0.6,3.6,1.7c0.6,0.7,0.9,1.9,1.1,3.2
				C341.4,207.9,341.6,209.7,341.6,212.2L341.6,212.2z M338.8,212.5c0-3.4-0.2-5.6-0.5-6.8c-0.3-1.1-0.9-1.7-1.9-1.7
				c-0.9,0-1.6,0.6-1.9,1.6s-0.5,3.1-0.5,6.2c0,2.9,0.2,4.8,0.5,5.9c0.4,1,0.9,1.6,1.9,1.6c0.9,0,1.5-0.5,1.9-1.5
				C338.7,216.8,338.8,215.1,338.8,212.5L338.8,212.5z M357.2,202.2v2.4c-0.6-0.4-1.2-0.5-1.7-0.5c-0.6,0-1.2,0.2-1.6,0.5
				c-0.4,0.3-0.8,0.7-1.1,1.4s-0.5,1.5-0.6,2.4s-0.2,2.1-0.2,3.5c0,4.8,1.2,7.2,3.7,7.2c0.5,0,0.9-0.1,1.6-0.4v2.4
				c-0.6,0.4-1.3,0.6-2.1,0.6c-4,0-5.9-3.2-5.9-9.7c0-3.5,0.5-6.1,1.5-7.8c0.9-1.7,2.4-2.6,4.4-2.6
				C355.8,201.7,356.5,201.9,357.2,202.2L357.2,202.2z M359.5,202h2.6v7.7h3.9V202h2.6v19.5h-2.6v-9.6h-3.9v9.6h-2.6V202z
				 M374.4,202h2l4.2,19.5H378l-0.7-3.8h-3.9l-0.7,3.8h-2.5L374.4,202z M376.9,215.6l-0.6-3.1c-0.4-2.1-0.7-4.3-0.9-6.8
				c-0.1,1.2-0.3,2.3-0.5,3.5c-0.2,1.2-0.4,2.5-0.6,3.8l-0.5,2.5L376.9,215.6L376.9,215.6z M382.1,202h2.5l2.6,7.8
				c0.7,2.2,1.4,4.5,2,7c-0.2-1.5-0.4-2.9-0.5-4.1c-0.1-1.2-0.2-2.4-0.2-3.4V202h2.7v19.5h-2.5l-3-8.8c-0.3-0.8-0.6-1.7-0.7-2.5
				c-0.2-0.8-0.5-1.8-0.6-2.7c0-0.1,0-0.3-0.1-0.5c-0.1-0.2-0.1-0.4-0.1-0.6c0,0.2,0.1,0.4,0.1,0.6s0,0.3,0,0.4l0.2,1.9l0.2,2.4
				c0,0.1,0,0.3,0,0.5c0,0.2,0,0.4,0,0.6l0.2,8.5h-2.6V202H382.1z M398.9,211.2h4.8v0.7c0,3.8-0.4,6.4-1,7.7c-0.6,1.4-1.9,2-3.7,2
				s-3.1-0.7-4-2.3c-0.7-1.5-1.2-4.1-1.2-7.7c0-4.1,0.5-6.8,1.3-8.1s2-1.9,3.7-1.9c1.3,0,2.3,0.3,3,0.9c0.7,0.6,1.3,1.7,1.7,3.1
				l-2.5,1c-0.1-0.6-0.3-0.9-0.4-1.3c-0.1-0.4-0.3-0.6-0.5-0.8c-0.3-0.4-0.8-0.6-1.5-0.6c-0.8,0-1.5,0.6-1.8,1.7
				c-0.3,1.1-0.5,3.1-0.5,6.1c0,3,0.2,5,0.5,6s0.9,1.6,1.9,1.6c0.8,0,1.4-0.4,1.8-1.1c0.4-0.8,0.6-2,0.6-3.8v-0.6v-0.4h-2.3v-2.2
				H398.9z M406.3,202h7v2.2H409v6.2h3.9v2.2H409v6.7h4.3v2.2h-7V202z M419.5,202h8.6v2.3h-3v17.2h-2.6v-17.2h-3.1V202z M429.6,202
				h2.6v7.7h3.9V202h2.6v19.5h-2.6v-9.6h-3.9v9.6h-2.6V202z M441.7,202h7v2.2h-4.3v6.2h3.9v2.2h-3.9v6.7h4.3v2.2h-7V202z M454.9,202
				h2.5l1.3,9.1l0.2,1.3c0.1,0.7,0.2,1.4,0.2,1.9l0.2,1.7c0,0,0,0.1,0,0.2s0,0.3,0,0.5l0.1-0.6c0.1-1.1,0.2-2.1,0.3-3.1
				c0.1-0.9,0.3-1.8,0.4-2.6l1.4-8.4h2l1.3,8.2c0.2,1.2,0.4,2.3,0.5,3.4c0.1,1,0.3,2,0.3,3c0.1-1,0.2-1.9,0.3-2.9
				c0.1-0.9,0.2-1.9,0.4-2.8l0.2-1.3l1.1-7.7h2.5l-3.1,19.6h-2l-1.4-8.4c0,0,0-0.2-0.1-0.5s-0.1-0.6-0.2-1l-0.3-1.9
				c0-0.2,0-0.4-0.1-0.6s-0.1-0.6-0.1-1.1l-0.1-0.8c0,0.2,0,0.4-0.1,0.5c-0.1,0.1,0,0.3,0,0.4c0,0.6-0.1,1-0.1,1.3s-0.1,0.5-0.1,0.6
				l-0.3,1.9c-0.1,0.5-0.1,0.7-0.2,1c-0.1,0.3-0.1,0.4-0.1,0.5l-1.4,8.4h-2.1L454.9,202z M481.6,212.2c0,3.4-0.4,5.9-1.1,7.3
				s-2,2.2-3.9,2.2c-1.9,0-3.2-0.7-4-2.3c-0.7-1.5-1.1-4.3-1.1-8.1c0-3.5,0.4-5.9,1.1-7.4s2-2.2,3.9-2.2c1.7,0,2.9,0.6,3.6,1.7
				c0.6,0.7,0.9,1.9,1.1,3.2C481.5,207.9,481.6,209.7,481.6,212.2L481.6,212.2z M478.8,212.5c0-3.4-0.2-5.6-0.5-6.8
				c-0.3-1.1-0.9-1.7-1.9-1.7c-0.9,0-1.6,0.6-1.9,1.6s-0.5,3.1-0.5,6.2c0,2.9,0.2,4.8,0.5,5.9c0.4,1,0.9,1.6,1.9,1.6
				c0.9,0,1.5-0.5,1.9-1.5C478.7,216.8,478.8,215.1,478.8,212.5L478.8,212.5z M484.2,202h3.4c1.4,0,2.5,0.4,3.2,1
				c0.9,0.9,1.3,2.2,1.3,4.1c0,1.4-0.3,2.5-0.7,3.3c-0.5,0.8-1.1,1.4-2,1.6l3.7,9.5h-2.7l-3.6-9.5v9.5h-2.6L484.2,202L484.2,202z
				 M486.8,210.6c1,0,1.8-0.3,2.1-0.7c0.4-0.5,0.6-1.3,0.6-2.4c0-0.6,0-1.1-0.1-1.6c-0.1-0.5-0.2-0.7-0.5-1
				c-0.3-0.3-0.5-0.5-0.7-0.6s-0.6-0.2-1.1-0.2h-0.5L486.8,210.6L486.8,210.6z M495.1,202h2.6v17.3h4.3v2.2H495L495.1,202L495.1,202
				z M503.7,202h3.2c1,0,1.9,0.1,2.5,0.4c0.6,0.2,1.2,0.6,1.7,1.1c0.7,0.8,1.3,1.9,1.6,3.1c0.3,1.3,0.5,3.1,0.5,5.4
				c0,2.1-0.2,3.9-0.6,5.3c-0.4,1.3-0.9,2.3-1.7,3c-0.9,0.8-2.7,1.3-5.1,1.3h-2.1L503.7,202L503.7,202z M506.4,219.2
				c1.6,0,2.7-0.5,3.2-1.5c0.6-0.9,0.8-2.9,0.8-5.6c0-3.1-0.3-5.1-0.8-6.2c-0.6-1.1-1.5-1.7-3-1.7h-0.4L506.4,219.2L506.4,219.2z"/>
			<path id="a-digital-humanitari" sketch:type="MSShapeGroup" fill="#2A91B6" d="M88.6,165.6c-0.4,0-0.8,0-1.3,0.1
				c-0.6,0-1,0.1-1.6,0.3c-0.5,0.1-0.9,0.4-1.3,0.6c-0.4,0.3-0.6,0.6-0.6,1.2c0,0.4,0.1,0.6,0.2,0.8c0.1,0.3,0.3,0.5,0.6,0.6
				c0.2,0.2,0.5,0.3,0.7,0.3s0.6,0.1,0.8,0.1c0.6,0,0.9-0.1,1.3-0.3c0.4-0.2,0.6-0.4,0.9-0.6c0.3-0.3,0.5-0.6,0.6-1
				c0.1-0.4,0.2-0.8,0.2-1.2v-0.7L88.6,165.6L88.6,165.6z M89.4,164.5v-0.3c0-1.8-0.8-2.6-2.6-2.6c-1.2,0-2.2,0.4-3.1,1.2l-0.8-1
				c0.9-0.9,2.3-1.5,4.3-1.5c0.5,0,0.9,0.1,1.4,0.2c0.5,0.1,0.8,0.4,1.2,0.6c0.4,0.3,0.6,0.6,0.8,1.1c0.2,0.5,0.3,0.9,0.3,1.6v4.4
				c0,0.4,0,0.7,0.1,1.2c0.1,0.5,0.1,0.7,0.1,1h-1.4c0-0.3-0.1-0.5-0.1-0.8c0-0.3,0-0.6,0-0.8l0,0c-0.4,0.6-0.9,1.1-1.5,1.5
				c-0.6,0.3-1.2,0.5-2,0.5c-0.5,0-0.8-0.1-1.3-0.2c-0.4-0.1-0.7-0.3-1.1-0.6c-0.4-0.3-0.6-0.6-0.7-0.9c-0.2-0.4-0.3-0.7-0.3-1.3
				c0-0.8,0.2-1.5,0.6-1.9c0.5-0.5,0.9-0.8,1.6-1c0.6-0.2,1.3-0.4,2-0.5c0.7-0.1,1.4-0.1,1.9-0.1h0.6V164.5z M100.7,165.6
				c0,0.6,0.1,1.1,0.3,1.6c0.2,0.5,0.5,0.9,0.7,1.3c0.4,0.4,0.7,0.6,1.2,0.8c0.5,0.2,1,0.3,1.6,0.3s1.1-0.1,1.6-0.3
				c0.5-0.2,0.9-0.5,1.3-0.8c0.4-0.4,0.6-0.7,0.8-1.3c0.2-0.6,0.3-1,0.3-1.6c0-0.6-0.1-1.1-0.3-1.6c-0.2-0.5-0.5-0.9-0.8-1.3
				c-0.4-0.4-0.7-0.6-1.3-0.8c-0.5-0.2-1-0.3-1.6-0.3s-1.1,0.1-1.6,0.3c-0.5,0.2-0.8,0.5-1.2,0.8c-0.4,0.4-0.6,0.7-0.7,1.3
				C100.8,164.6,100.7,165,100.7,165.6L100.7,165.6z M109.8,170.6h-1.4v-1.7l0,0c-0.2,0.4-0.5,0.6-0.8,0.8c-0.4,0.2-0.6,0.5-1,0.6
				c-0.4,0.2-0.6,0.3-1,0.4c-0.4,0.1-0.7,0.1-1,0.1c-0.7,0-1.5-0.1-2.1-0.4s-1.2-0.6-1.7-1.1c-0.5-0.5-0.8-1-1.1-1.7
				c-0.3-0.6-0.4-1.3-0.4-2.1c0-0.8,0.1-1.5,0.4-2.1s0.6-1.2,1.1-1.7c0.5-0.5,1-0.8,1.7-1.1s1.3-0.2,2.1-0.2c0.4,0,0.6,0,1,0.1
				c0.4,0.1,0.7,0.2,1,0.4c0.4,0.2,0.6,0.4,1,0.6c0.4,0.2,0.6,0.6,0.8,0.8l0,0v-7.8h1.4V170.6z M114.9,156.8c0,0.3-0.1,0.6-0.3,0.7
				c-0.2,0.2-0.5,0.3-0.7,0.3s-0.5-0.1-0.7-0.3c-0.2-0.2-0.3-0.5-0.3-0.7s0.1-0.6,0.3-0.7c0.2-0.2,0.5-0.3,0.7-0.3s0.5,0.1,0.7,0.3
				C114.9,156.3,114.9,156.5,114.9,156.8L114.9,156.8z M114.6,170.6h-1.4v-10h1.4V170.6z M119.1,165.5c0,0.6,0.1,1,0.3,1.5
				c0.2,0.5,0.5,0.8,0.8,1.2c0.4,0.4,0.7,0.6,1.2,0.8c0.5,0.2,0.9,0.3,1.5,0.3s1-0.1,1.5-0.3c0.5-0.2,0.8-0.5,1.2-0.7
				c0.4-0.4,0.6-0.7,0.8-1.2c0.2-0.5,0.3-1,0.3-1.6s-0.1-1-0.3-1.5c-0.2-0.5-0.5-0.8-0.7-1.2c-0.4-0.4-0.7-0.6-1.2-0.8
				c-0.5-0.2-1-0.3-1.6-0.3c-0.6,0-1,0.1-1.5,0.3c-0.5,0.2-0.8,0.5-1.2,0.8c-0.4,0.4-0.6,0.7-0.8,1.2
				C119.1,164.5,119.1,165,119.1,165.5L119.1,165.5z M118.8,172.6c0.4,0.6,0.9,1,1.6,1.3c0.6,0.4,1.4,0.5,2.2,0.5
				c0.7,0,1.3-0.1,1.9-0.3c0.5-0.2,0.9-0.5,1.2-0.8c0.3-0.4,0.6-0.7,0.6-1.2c0.1-0.5,0.2-1,0.2-1.5v-1.9l0,0c-0.5,0.6-1,1.2-1.7,1.5
				c-0.6,0.3-1.3,0.5-2,0.5s-1.4-0.1-2-0.4c-0.6-0.3-1.2-0.6-1.7-1c-0.5-0.5-0.8-1-1.1-1.6c-0.3-0.6-0.4-1.3-0.4-2
				c0-0.7,0.1-1.4,0.4-2s0.6-1.2,1-1.7c0.4-0.5,1-0.8,1.6-1.1c0.6-0.3,1.3-0.4,2-0.4c0.3,0,0.6,0,0.9,0.1c0.4,0.1,0.6,0.2,1,0.3
				c0.4,0.1,0.6,0.4,1,0.6c0.4,0.3,0.6,0.6,0.9,0.9l0,0v-1.8h1.4v9.9c0,0.6-0.1,1.1-0.2,1.8c-0.1,0.6-0.4,1.2-0.8,1.7
				c-0.4,0.6-0.9,0.9-1.7,1.3s-1.6,0.6-2.7,0.6c-1,0-1.9-0.2-2.7-0.5c-0.7-0.4-1.5-0.8-2.1-1.5L118.8,172.6z M133,156.8
				c0,0.3-0.1,0.6-0.3,0.7c-0.2,0.2-0.5,0.3-0.7,0.3s-0.5-0.1-0.7-0.3c-0.2-0.2-0.3-0.5-0.3-0.7s0.1-0.6,0.3-0.7
				c0.2-0.2,0.5-0.3,0.7-0.3s0.5,0.1,0.7,0.3C133,156.3,133,156.5,133,156.8L133,156.8z M132.7,170.6h-1.4v-10h1.4V170.6z
				 M141.3,161.9h-2.9v5.9c0,0.4,0,0.6,0.1,0.9c0.1,0.3,0.2,0.4,0.3,0.6c0.1,0.2,0.3,0.2,0.5,0.3c0.2,0.1,0.4,0.1,0.6,0.1
				c0.3,0,0.5,0,0.7-0.1c0.3-0.1,0.5-0.2,0.7-0.3l0.1,1.3c-0.6,0.3-1.1,0.4-1.9,0.4c-0.3,0-0.6,0-0.8-0.1c-0.3-0.1-0.6-0.2-0.8-0.4
				c-0.3-0.2-0.5-0.5-0.6-0.8c-0.2-0.4-0.3-0.8-0.3-1.3v-6.5h-2.1v-1.3h2.1v-2.8h1.4v2.8h2.9L141.3,161.9L141.3,161.9z M148.8,165.6
				c-0.4,0-0.8,0-1.3,0.1c-0.6,0-1,0.1-1.6,0.3c-0.5,0.1-0.9,0.4-1.3,0.6c-0.4,0.3-0.6,0.6-0.6,1.2c0,0.4,0.1,0.6,0.2,0.8
				c0.1,0.3,0.3,0.5,0.6,0.6c0.2,0.2,0.5,0.3,0.7,0.3c0.3,0.1,0.6,0.1,0.8,0.1c0.6,0,0.9-0.1,1.3-0.3c0.4-0.2,0.6-0.4,0.9-0.6
				c0.3-0.3,0.5-0.6,0.6-1c0.1-0.4,0.2-0.8,0.2-1.2v-0.7L148.8,165.6L148.8,165.6z M149.6,164.5v-0.3c0-1.8-0.8-2.6-2.6-2.6
				c-1.2,0-2.2,0.4-3.1,1.2l-0.8-1c0.9-0.9,2.3-1.5,4.3-1.5c0.5,0,0.9,0.1,1.4,0.2s0.8,0.4,1.2,0.6c0.4,0.3,0.6,0.6,0.8,1.1
				c0.2,0.5,0.3,0.9,0.3,1.6v4.4c0,0.4,0,0.7,0.1,1.2c0,0.5,0.1,0.7,0.1,1h-1.4c0-0.3-0.1-0.5-0.1-0.8c0-0.3,0-0.6,0-0.8l0,0
				c-0.4,0.6-0.9,1.1-1.5,1.5c-0.6,0.4-1.2,0.5-2,0.5c-0.5,0-0.8-0.1-1.3-0.2c-0.4-0.1-0.7-0.3-1.1-0.6s-0.6-0.6-0.7-0.9
				c-0.2-0.4-0.3-0.7-0.3-1.3c0-0.8,0.2-1.5,0.6-1.9c0.5-0.5,0.9-0.8,1.6-1c0.6-0.2,1.3-0.4,2-0.5c0.7-0.1,1.4-0.1,1.9-0.1h0.6
				V164.5z M156,170.6h-1.4v-16.1h1.4V170.6z M165.2,154.5h1.4v7.8l0,0c0.2-0.3,0.4-0.6,0.6-0.7c0.2-0.2,0.6-0.5,0.8-0.6
				c0.3-0.2,0.6-0.3,0.9-0.4c0.3-0.1,0.6-0.1,1-0.1c1.3,0,2.2,0.4,2.9,1s0.9,1.7,0.9,2.9v6.2h-1.4V165c0-1.1-0.2-1.9-0.6-2.5
				s-1.1-0.9-2.1-0.9c-0.1,0-0.3,0-0.6,0.1c-0.4,0.1-0.6,0.2-1,0.5s-0.6,0.6-0.9,1.1c-0.3,0.6-0.5,1.2-0.5,2.1v5.2h-1.4L165.2,154.5
				L165.2,154.5z M184.3,170.6c0-0.3,0-0.6-0.1-0.8c0-0.3,0-0.6,0-0.8l0,0c-0.2,0.3-0.4,0.6-0.6,0.7c-0.2,0.2-0.6,0.5-0.8,0.6
				c-0.3,0.2-0.6,0.3-0.9,0.4c-0.4,0.1-0.6,0.1-1,0.1c-1.3,0-2.2-0.4-2.9-1c-0.6-0.6-0.9-1.7-0.9-2.9v-6.2h1.4v5.6
				c0,0.6,0,1,0.1,1.5c0.1,0.5,0.2,0.7,0.5,1.1c0.2,0.3,0.5,0.6,0.8,0.6c0.4,0.2,0.7,0.2,1.3,0.2c0.1,0,0.3,0,0.6-0.1
				c0.4-0.1,0.6-0.2,1-0.5c0.4-0.3,0.6-0.6,0.9-1.1c0.3-0.5,0.5-1.2,0.5-2.1v-5.2h1.4v7.8c0,0.3,0,0.6,0,1s0,0.8,0.1,1.2
				C185.6,170.6,184.3,170.6,184.3,170.6z M188.9,162.8c0-0.4,0-0.7,0-1.1s0-0.7-0.1-1.1h1.5v1.5l0,0c0.4-0.6,0.8-1,1.4-1.3
				c0.6-0.3,1.2-0.5,1.8-0.5c0.3,0,0.6,0,0.8,0.1s0.6,0.2,0.9,0.3c0.4,0.1,0.6,0.4,0.8,0.6c0.3,0.3,0.5,0.6,0.6,1
				c0.3-0.6,0.7-1.1,1.4-1.5c0.6-0.4,1.3-0.6,1.9-0.6c1.3,0,2.2,0.4,2.9,1s0.9,1.7,0.9,2.9v6.4h-1.4v-5.8c0-1-0.2-1.8-0.6-2.3
				c-0.4-0.6-1-0.8-1.9-0.8c-0.6,0-0.9,0.1-1.3,0.3c-0.4,0.2-0.6,0.5-0.8,0.8c-0.2,0.4-0.4,0.7-0.5,1.2c-0.1,0.5-0.2,0.9-0.2,1.4
				v5.3h-1.4v-5.8c0-1-0.2-1.8-0.6-2.3s-1-0.8-1.9-0.8c-0.1,0-0.3,0-0.6,0.1c-0.3,0.1-0.6,0.2-0.9,0.5c-0.4,0.3-0.6,0.6-0.9,1.1
				c-0.3,0.6-0.4,1.2-0.4,2.1v5.2h-1.4v-7.8H188.9z M212.7,165.6c-0.4,0-0.8,0-1.3,0.1c-0.6,0-1,0.1-1.6,0.3
				c-0.5,0.1-0.9,0.4-1.3,0.6c-0.4,0.3-0.6,0.6-0.6,1.2c0,0.4,0.1,0.6,0.2,0.8c0.1,0.3,0.3,0.5,0.6,0.6c0.2,0.2,0.5,0.3,0.7,0.3
				s0.6,0.1,0.8,0.1c0.6,0,0.9-0.1,1.3-0.3c0.4-0.2,0.6-0.4,0.9-0.6c0.3-0.3,0.5-0.6,0.6-1c0.1-0.4,0.2-0.8,0.2-1.2v-0.7
				L212.7,165.6L212.7,165.6z M213.4,164.5v-0.3c0-1.8-0.8-2.6-2.6-2.6c-1.2,0-2.2,0.4-3.1,1.2l-0.8-1c0.9-0.9,2.3-1.5,4.3-1.5
				c0.5,0,0.9,0.1,1.4,0.2s0.8,0.4,1.2,0.6c0.4,0.3,0.6,0.6,0.8,1.1c0.2,0.5,0.3,0.9,0.3,1.6v4.4c0,0.4,0,0.7,0.1,1.2
				c0.1,0.5,0.1,0.7,0.1,1h-1.4c0-0.3-0.1-0.5-0.1-0.8c0-0.3,0-0.6,0-0.8l0,0c-0.4,0.6-0.9,1.1-1.5,1.5c-0.6,0.3-1.2,0.5-2,0.5
				c-0.5,0-0.8-0.1-1.3-0.2c-0.4-0.1-0.7-0.3-1.1-0.6s-0.6-0.6-0.7-0.9c-0.2-0.4-0.3-0.7-0.3-1.3c0-0.8,0.2-1.5,0.6-1.9
				c0.5-0.5,0.9-0.8,1.6-1s1.3-0.4,2-0.5c0.7-0.1,1.4-0.1,1.9-0.1h0.6V164.5z M219.4,160.6c0,0.3,0,0.6,0.1,0.8c0,0.3,0,0.6,0,0.8
				l0,0c0.2-0.3,0.4-0.6,0.6-0.7s0.6-0.5,0.8-0.6c0.3-0.2,0.6-0.3,0.9-0.4c0.3-0.1,0.6-0.1,1-0.1c1.3,0,2.2,0.4,2.9,1
				c0.6,0.6,0.9,1.7,0.9,2.9v6.2h-1.4V165c0-1.1-0.2-1.9-0.6-2.5c-0.4-0.6-1.1-0.9-2.1-0.9c-0.1,0-0.3,0-0.6,0.1
				c-0.4,0.1-0.6,0.2-1,0.5c-0.4,0.3-0.6,0.6-0.9,1.1c-0.3,0.5-0.5,1.2-0.5,2.1v5.2h-1.4v-7.8c0-0.3,0-0.6,0-1s0-0.8-0.1-1.2H219.4z
				 M231.9,156.8c0,0.3-0.1,0.6-0.3,0.7c-0.2,0.2-0.5,0.3-0.7,0.3c-0.3,0-0.5-0.1-0.7-0.3c-0.3-0.2-0.3-0.5-0.3-0.7s0.1-0.6,0.3-0.7
				c0.2-0.2,0.5-0.3,0.7-0.3c0.3,0,0.5,0.1,0.7,0.3C231.8,156.3,231.9,156.5,231.9,156.8L231.9,156.8z M231.6,170.6h-1.4v-10h1.4
				V170.6z M240.1,161.9h-2.9v5.9c0,0.4,0,0.6,0.1,0.9s0.2,0.4,0.3,0.6c0.1,0.2,0.3,0.2,0.5,0.3c0.2,0.1,0.4,0.1,0.6,0.1
				c0.3,0,0.5,0,0.7-0.1c0.3-0.1,0.5-0.2,0.7-0.3l0.1,1.3c-0.6,0.3-1.1,0.4-1.9,0.4c-0.3,0-0.6,0-0.8-0.1s-0.6-0.2-0.8-0.4
				c-0.3-0.2-0.5-0.5-0.6-0.8c-0.1-0.4-0.3-0.9-0.3-1.5v-6.3h-2.1v-1.3h2.1v-2.8h1.4v2.8h2.9V161.9z M247.7,165.6
				c-0.4,0-0.8,0-1.3,0.1c-0.6,0-1,0.1-1.6,0.3c-0.5,0.1-0.9,0.4-1.3,0.6c-0.4,0.3-0.6,0.6-0.6,1.2c0,0.4,0.1,0.6,0.2,0.8
				c0.1,0.3,0.3,0.5,0.6,0.6s0.5,0.3,0.7,0.3s0.6,0.1,0.8,0.1c0.6,0,0.9-0.1,1.3-0.3c0.4-0.2,0.6-0.4,0.9-0.6c0.3-0.3,0.5-0.6,0.6-1
				c0.1-0.4,0.2-0.8,0.2-1.2v-0.7L247.7,165.6L247.7,165.6z M248.5,164.5v-0.3c0-1.8-0.8-2.6-2.6-2.6c-1.2,0-2.2,0.4-3.1,1.2l-0.8-1
				c0.9-0.9,2.3-1.5,4.3-1.5c0.5,0,0.9,0.1,1.4,0.2s0.8,0.4,1.2,0.6s0.6,0.6,0.8,1.1c0.2,0.5,0.3,0.9,0.3,1.6v4.4
				c0,0.4,0,0.7,0.1,1.2c0.1,0.5,0.1,0.7,0.1,1h-1.4c0-0.3-0.1-0.5-0.1-0.8c0-0.3,0-0.6,0-0.8l0,0c-0.4,0.6-0.9,1.1-1.5,1.5
				c-0.6,0.3-1.2,0.5-2,0.5c-0.5,0-0.8-0.1-1.3-0.2c-0.4-0.1-0.7-0.3-1.1-0.6c-0.4-0.3-0.6-0.6-0.7-0.9c-0.2-0.4-0.3-0.7-0.3-1.3
				c0-0.8,0.2-1.5,0.6-1.9c0.5-0.5,0.9-0.8,1.6-1s1.3-0.4,2-0.5c0.7-0.1,1.4-0.1,1.9-0.1h0.6V164.5z M253.3,163.8c0-0.5,0-0.9,0-1.3
				c0-0.5,0-1-0.1-1.8h1.4v1.9l0,0c0.1-0.3,0.3-0.6,0.5-0.7c0.2-0.2,0.4-0.5,0.6-0.6c0.3-0.2,0.6-0.4,0.9-0.5
				c0.4-0.1,0.7-0.2,1.2-0.2c0.4,0,0.7,0,1,0.1l-0.3,1.4c-0.2-0.1-0.5-0.1-0.8-0.1c-0.6,0-1,0.1-1.4,0.3c-0.4,0.2-0.7,0.5-0.9,0.8
				c-0.3,0.3-0.5,0.6-0.6,1c-0.1,0.4-0.2,0.7-0.2,1.1v5.5h-1.4V163.8z M262.2,156.8c0,0.3-0.1,0.6-0.3,0.7c-0.2,0.2-0.5,0.3-0.7,0.3
				s-0.5-0.1-0.7-0.3c-0.3-0.2-0.3-0.5-0.3-0.7s0.1-0.6,0.3-0.7c0.2-0.2,0.5-0.3,0.7-0.3s0.5,0.1,0.7,0.3
				C262.1,156.3,262.2,156.5,262.2,156.8L262.2,156.8z M261.9,170.6h-1.4v-10h1.4V170.6z M270.9,165.6c-0.4,0-0.8,0-1.3,0.1
				c-0.6,0-1,0.1-1.6,0.3c-0.5,0.1-0.9,0.4-1.3,0.6c-0.4,0.3-0.6,0.6-0.6,1.2c0,0.4,0.1,0.6,0.2,0.8c0.1,0.3,0.3,0.5,0.6,0.6
				c0.2,0.2,0.5,0.3,0.7,0.3c0.3,0.1,0.6,0.1,0.8,0.1c0.6,0,0.9-0.1,1.3-0.3c0.4-0.2,0.6-0.4,0.9-0.6c0.3-0.3,0.5-0.6,0.6-1
				c0.1-0.4,0.2-0.8,0.2-1.2v-0.7L270.9,165.6L270.9,165.6z M271.7,164.5v-0.3c0-1.8-0.8-2.6-2.6-2.6c-1.2,0-2.2,0.4-3.1,1.2l-0.8-1
				c0.9-0.9,2.3-1.5,4.3-1.5c0.5,0,0.9,0.1,1.4,0.2s0.8,0.4,1.2,0.6c0.4,0.3,0.6,0.6,0.8,1.1c0.2,0.5,0.3,0.9,0.3,1.6v4.4
				c0,0.4,0,0.7,0.1,1.2c0,0.5,0.1,0.7,0.1,1H272c0-0.3-0.1-0.5-0.1-0.8c0-0.3,0-0.6,0-0.8l0,0c-0.4,0.6-0.9,1.1-1.5,1.5
				c-0.6,0.3-1.2,0.5-2,0.5c-0.5,0-0.8-0.1-1.3-0.2c-0.4-0.1-0.7-0.3-1.1-0.6c-0.4-0.3-0.6-0.6-0.7-0.9c-0.2-0.4-0.3-0.7-0.3-1.3
				c0-0.8,0.2-1.5,0.6-1.9c0.5-0.5,0.9-0.8,1.6-1c0.6-0.2,1.3-0.4,2-0.5c0.7-0.1,1.4-0.1,1.9-0.1h0.6V164.5z M277.7,160.6
				c0,0.3,0,0.6,0.1,0.8c0,0.3,0,0.6,0,0.8l0,0c0.2-0.3,0.4-0.6,0.6-0.7c0.3-0.2,0.6-0.5,0.8-0.6c0.3-0.1,0.6-0.3,0.9-0.4
				c0.4-0.1,0.6-0.1,1-0.1c1.3,0,2.2,0.4,2.9,1c0.6,0.6,0.9,1.7,0.9,2.9v6.2h-1.4V165c0-1.1-0.2-1.9-0.6-2.5
				c-0.4-0.6-1.1-0.9-2.1-0.9c-0.1,0-0.3,0-0.6,0.1c-0.4,0.1-0.6,0.2-1,0.5s-0.6,0.6-0.9,1.1c-0.3,0.5-0.5,1.2-0.5,2.1v5.2h-1.4
				v-7.8c0-0.3,0-0.6,0-1s0-0.8-0.1-1.2H277.7z M299.7,165.6c-0.4,0-0.8,0-1.3,0.1c-0.6,0-1,0.1-1.6,0.3c-0.5,0.1-0.9,0.4-1.3,0.6
				c-0.4,0.3-0.6,0.6-0.6,1.2c0,0.4,0.1,0.6,0.2,0.8c0.1,0.3,0.3,0.5,0.6,0.6c0.3,0.1,0.5,0.3,0.7,0.3s0.6,0.1,0.8,0.1
				c0.6,0,0.9-0.1,1.3-0.3c0.4-0.2,0.6-0.4,0.9-0.6c0.3-0.3,0.5-0.6,0.6-1c0.1-0.4,0.2-0.8,0.2-1.2v-0.7L299.7,165.6L299.7,165.6z
				 M300.4,164.5v-0.3c0-1.8-0.8-2.6-2.6-2.6c-1.2,0-2.2,0.4-3.1,1.2l-0.8-1c0.9-0.9,2.3-1.5,4.3-1.5c0.5,0,0.9,0.1,1.4,0.2
				c0.5,0.1,0.8,0.4,1.2,0.6c0.4,0.3,0.6,0.6,0.8,1.1c0.2,0.5,0.3,0.9,0.3,1.6v4.4c0,0.4,0,0.7,0.1,1.2c0.1,0.5,0.1,0.7,0.1,1h-1.5
				c0-0.3-0.1-0.5-0.1-0.8c0-0.3,0-0.6,0-0.8l0,0c-0.4,0.6-0.9,1.1-1.5,1.5c-0.6,0.3-1.2,0.5-2,0.5c-0.5,0-0.8-0.1-1.3-0.2
				c-0.4-0.1-0.7-0.3-1.1-0.6c-0.4-0.3-0.6-0.6-0.7-0.9s-0.3-0.7-0.3-1.3c0-0.8,0.2-1.5,0.6-1.9c0.5-0.5,0.9-0.8,1.6-1
				c0.6-0.2,1.3-0.4,2-0.5c0.7-0.1,1.4-0.1,1.9-0.1h0.6V164.5z M306.1,165.5c0,0.6,0.1,1,0.3,1.5c0.2,0.5,0.5,0.8,0.8,1.2
				c0.4,0.4,0.7,0.6,1.2,0.8c0.5,0.2,0.9,0.3,1.5,0.3s1-0.1,1.5-0.3c0.5-0.2,0.8-0.5,1.2-0.7c0.4-0.4,0.6-0.7,0.8-1.2
				c0.2-0.5,0.3-1,0.3-1.6s-0.1-1-0.3-1.5c-0.2-0.5-0.5-0.8-0.7-1.2s-0.7-0.6-1.2-0.8c-0.5-0.2-1-0.3-1.6-0.3s-1,0.1-1.5,0.3
				c-0.5,0.2-0.8,0.5-1.2,0.8c-0.4,0.4-0.6,0.7-0.8,1.2C306.1,164.5,306.1,165,306.1,165.5L306.1,165.5z M305.8,172.6
				c0.4,0.6,0.9,1,1.6,1.3c0.6,0.4,1.4,0.5,2.2,0.5c0.7,0,1.3-0.1,1.9-0.3c0.5-0.2,0.9-0.5,1.2-0.8c0.3-0.4,0.6-0.7,0.6-1.2
				s0.2-1,0.2-1.5v-1.9l0,0c-0.5,0.6-1,1.2-1.7,1.5s-1.3,0.5-2,0.5c-0.7,0-1.4-0.1-2-0.4c-0.6-0.3-1.2-0.6-1.7-1
				c-0.5-0.5-0.8-1-1.1-1.6c-0.3-0.6-0.4-1.3-0.4-2c0-0.7,0.1-1.4,0.4-2s0.6-1.2,1-1.7c0.4-0.5,1-0.8,1.6-1.1c0.6-0.3,1.3-0.4,2-0.4
				c0.3,0,0.6,0,0.9,0.1c0.4,0.1,0.6,0.2,1,0.3c0.4,0.2,0.6,0.4,1,0.6c0.4,0.3,0.6,0.6,0.9,0.9l0,0v-1.8h1.4v9.9
				c0,0.6-0.1,1.1-0.2,1.8s-0.4,1.2-0.8,1.7c-0.4,0.6-0.9,0.9-1.7,1.3s-1.6,0.6-2.7,0.6c-1,0-1.9-0.2-2.7-0.5
				c-0.7-0.4-1.5-0.8-2.1-1.5L305.8,172.6z M325.8,164.9c0-0.9-0.3-1.8-0.8-2.3s-1.4-0.9-2.4-0.9c-0.5,0-0.9,0.1-1.3,0.3
				c-0.5,0.2-0.8,0.4-1.1,0.7c-0.3,0.4-0.6,0.6-0.7,1c-0.2,0.4-0.3,0.7-0.3,1.2C319.1,164.9,325.8,164.9,325.8,164.9z M319,166
				c0,0.5,0.2,0.9,0.4,1.4c0.2,0.5,0.5,0.8,0.8,1.1c0.4,0.3,0.7,0.6,1.1,0.7c0.5,0.2,0.9,0.3,1.4,0.3c0.7,0,1.4-0.2,1.9-0.6
				s0.9-0.7,1.2-1.2l1.1,0.9c-0.6,0.7-1.3,1.3-1.9,1.6c-0.7,0.4-1.5,0.5-2.3,0.5c-0.7,0-1.4-0.1-2-0.4c-0.6-0.3-1.2-0.6-1.7-1.1
				c-0.5-0.5-0.8-1-1.1-1.7s-0.4-1.3-0.4-2.1c0-0.8,0.1-1.5,0.4-2.1s0.6-1.2,1-1.7c0.4-0.5,1-0.8,1.6-1.1s1.4-0.1,2.1-0.1
				c0.7,0,1.4,0.1,2,0.4c0.6,0.3,1.1,0.6,1.5,1.1c0.4,0.5,0.7,1,0.9,1.6c0.2,0.6,0.3,1.2,0.3,1.9v0.6H319z M331.3,160.6
				c0,0.3,0,0.6,0.1,0.8c0,0.3,0,0.6,0,0.8l0,0c0.2-0.3,0.4-0.6,0.6-0.7c0.3-0.2,0.6-0.5,0.8-0.6c0.3-0.2,0.6-0.3,0.9-0.4
				c0.4-0.1,0.6-0.1,1-0.1c1.3,0,2.2,0.4,2.9,1c0.6,0.6,0.9,1.7,0.9,2.9v6.2h-1.4V165c0-1.1-0.2-1.9-0.6-2.5s-1.1-0.9-2.1-0.9
				c-0.1,0-0.3,0-0.6,0.1c-0.4,0.1-0.6,0.2-1,0.5c-0.4,0.3-0.6,0.6-0.9,1.1c-0.3,0.5-0.5,1.2-0.5,2.1v5.2h-1.4v-7.8c0-0.3,0-0.6,0-1
				s0-0.8-0.1-1.2H331.3z M349,163c-0.3-0.4-0.6-0.6-1-0.9c-0.5-0.3-0.9-0.4-1.5-0.4s-1.1,0.1-1.6,0.3c-0.5,0.2-0.8,0.5-1.2,0.8
				c-0.4,0.4-0.6,0.7-0.7,1.3c-0.2,0.5-0.3,1-0.3,1.6c0,0.6,0.1,1.1,0.3,1.6c0.2,0.5,0.5,0.9,0.7,1.3c0.4,0.4,0.7,0.6,1.2,0.8
				c0.5,0.2,1,0.3,1.6,0.3s1-0.1,1.5-0.4c0.5-0.3,0.7-0.6,1-0.9l1.1,0.8c-0.5,0.6-1,1-1.7,1.3c-0.6,0.3-1.3,0.5-1.9,0.5
				c-0.8,0-1.6-0.1-2.2-0.4c-0.6-0.3-1.2-0.6-1.7-1.1c-0.5-0.5-0.8-1-1-1.7c-0.3-0.6-0.4-1.4-0.4-2.1c0-0.7,0.1-1.5,0.4-2.1
				s0.6-1.2,1-1.7c0.5-0.5,1-0.8,1.7-1.1s1.4-0.4,2.2-0.4c0.6,0,1.3,0.2,1.9,0.5s1.2,0.7,1.7,1.3L349,163z M355.7,168.8l3.1-8.2h1.7
				l-5,12.6c-0.3,0.7-0.6,1.4-1.1,1.9c-0.5,0.5-1.1,0.6-2,0.6c-0.2,0-0.5,0-0.6,0c-0.2,0-0.5-0.1-0.6-0.1l0.2-1.4
				c0.3,0.2,0.6,0.3,1,0.3c0.5,0,0.9-0.2,1.2-0.5s0.6-0.7,0.7-1.3l0.7-1.9l-4.1-10.1h1.8L355.7,168.8z"/>
		</g>
	</g>
</g>
</svg>
