<?xml version="1.0" encoding="UTF-8" standalone="no"?>
<svg width="195px" height="200px" viewBox="0 0 195 200" version="1.1" xmlns="http://www.w3.org/2000/svg" xmlns:xlink="http://www.w3.org/1999/xlink" xmlns:sketch="http://www.bohemiancoding.com/sketch/ns">
    <!-- Generator: Sketch 3.3.2 (12043) - http://www.bohemiancoding.com/sketch -->
    <title>graph</title>
    <desc>Created with Sketch.</desc>
    <defs></defs>
    <g id="Designs" stroke="none" stroke-width="1" fill="none" fill-rule="evenodd" sketch:type="MSPage">
        <g id="About-Us" sketch:type="MSArtboardGroup" transform="translate(-585.000000, -2591.000000)">
            <g id="container" sketch:type="MSLayerGroup" transform="translate(30.000000, 200.000000)">
                <g id="principles-2" transform="translate(2.000000, 2177.000000)" sketch:type="MSShapeGroup">
                    <g id="graph" transform="translate(554.000000, 215.000000)">
                        <path d="M91.1693989,71.9787234 C91.440332,82.4427074 91.440332,93.7008222 91.1693989,104.792553 C122.55114,104.958937 151.321411,104.958937 180.218579,104.792553 C177.067315,161.794646 140.746698,198.884311 91.1693989,199 C44.0515145,199.115174 3.39526487,160.380607 0,112.202128 C-3.13285845,60.972225 30.5440801,22.7138136 91.1693989,13.7606383 C91.440332,32.9019564 91.440332,52.0432745 91.1693989,71.9787234 Z" id="Fill-1" fill="#49BBE4"></path>
                        <path d="M194.187065,93.4609428 C147.517002,92.7551613 107.689358,54.1139047 104.557729,6.14078205 C104.434383,4.25225814 104.360871,2.38123745 104.336709,0.528532446 L194.187065,0.528532446 L194.187065,93.4609428 Z" id="Fill-1-Copy" fill="#F96488" transform="translate(148.945355, 46.574468) scale(-1, -1) translate(-148.945355, -46.574468) "></path>
                    </g>
                </g>
            </g>
        </g>
    </g>
</svg>