<?xml version="1.0" encoding="UTF-8" standalone="no"?>
<svg width="215px" height="199px" viewBox="0 0 215 199" version="1.1" xmlns="http://www.w3.org/2000/svg" xmlns:xlink="http://www.w3.org/1999/xlink" xmlns:sketch="http://www.bohemiancoding.com/sketch/ns">
    <!-- Generator: Sketch 3.3.1 (12002) - http://www.bohemiancoding.com/sketch -->
    <title>heart</title>
    <desc>Created with Sketch.</desc>
    <defs></defs>
    <g id="Designs" stroke="none" stroke-width="1" fill="none" fill-rule="evenodd" sketch:type="MSPage">
        <g id="About-Us" sketch:type="MSArtboardGroup" transform="translate(-165.000000, -2590.000000)" fill="#F96488">
            <g id="container" sketch:type="MSLayerGroup" transform="translate(30.000000, 200.000000)">
                <g id="principles-2" transform="translate(2.000000, 2177.000000)" sketch:type="MSShapeGroup">
                    <g id="heart" transform="translate(133.000000, 213.000000)">
                        <path d="M107.063429,31.2094071 C111.251688,26.3538661 115.027974,21.2916395 119.609089,17.1270806 C135.880787,2.33350383 154.899792,-3.33683475 175.794179,4.57650403 C197.653836,12.8583509 210.976686,29.6201444 214.016756,52.9362699 C216.235817,69.9685867 211.345822,86.0508768 202.367749,100.754989 C193.118127,115.900033 180.976937,128.601847 168.315987,140.773265 C148.552345,159.771669 128.466239,178.429255 108.513786,197.229559 C108.298499,197.433272 108.072433,197.635783 107.774178,197.897792 L107.774178,197.930567 C107.530208,198.143097 107.269266,198.370504 106.946801,198.655295 C106.940613,198.64921 106.934425,198.643125 106.928237,198.63704 C106.878405,198.68059 106.827081,198.725466 106.774178,198.771755 L106.774178,198.485553 C79.6297866,171.795445 52.4111811,145.665444 25.9847683,118.758754 C13.3619637,105.907043 4.64056031,90.3816994 1.13587571,72.2252301 C-5.1458259,39.6868308 15.2479592,7.46297647 46.9598389,1.82242051 C69.7763539,-2.2347842 87.9065201,7.12930379 102.251966,24.6545579 C103.966754,26.7501688 105.476768,29.0129328 107.063429,31.2094071 Z M204.318329,70.6909993 C212.031454,17.1129719 159.71588,17.9526402 159.71588,17.9526402 C159.71588,17.9526402 196.11521,30.3594264 204.318329,70.6909993 Z" id="Fill-2"></path>
                    </g>
                </g>
            </g>
        </g>
    </g>
</svg>