<?xml version="1.0" encoding="utf-8"?>
<!-- Generator: Adobe Illustrator 18.0.0, SVG Export Plug-In . SVG Version: 6.00 Build 0)  -->
<!DOCTYPE svg PUBLIC "-//W3C//DTD SVG 1.1//EN" "http://www.w3.org/Graphics/SVG/1.1/DTD/svg11.dtd">
<svg version="1.1" id="Layer_1" xmlns="http://www.w3.org/2000/svg" xmlns:xlink="http://www.w3.org/1999/xlink" x="0px" y="0px"
	 viewBox="0 0 261 136.7" enable-background="new 0 0 261 136.7" xml:space="preserve">
<g enable-background="new    ">
	<g>
		<defs>
			<rect id="SVGID_1_" y="0.1" width="261" height="137"/>
		</defs>
		<clipPath id="SVGID_2_">
			<use xlink:href="#SVGID_1_"  overflow="visible"/>
		</clipPath>
		<g clip-path="url(#SVGID_2_)">
			<defs>
				<rect id="SVGID_3_" x="-556" y="-34.9" width="1366" height="1855"/>
			</defs>
			<clipPath id="SVGID_4_">
				<use xlink:href="#SVGID_3_"  overflow="visible"/>
			</clipPath>
			<g clip-path="url(#SVGID_4_)">
				<defs>
					<path id="SVGID_5_" d="M146,72.7c11.4,1.5,14.5,10.8,15,10.5c0.3-0.2-2.2-10.1-9.8-16.4c-3.4-2.7-7.3-3-9.2-1.1
						C140.6,67.1,139.6,71.9,146,72.7z"/>
				</defs>
				<clipPath id="SVGID_6_">
					<use xlink:href="#SVGID_5_"  overflow="visible"/>
				</clipPath>
				<g clip-path="url(#SVGID_6_)">
					<defs>
						<rect id="SVGID_7_" y="0.1" width="261" height="137"/>
					</defs>
					<clipPath id="SVGID_8_">
						<use xlink:href="#SVGID_7_"  overflow="visible"/>
					</clipPath>
					<rect x="135.9" y="59.5" clip-path="url(#SVGID_8_)" fill="#49BBE4" width="30.1" height="28.7"/>
				</g>
			</g>
		</g>
		<g clip-path="url(#SVGID_2_)">
			<defs>
				<rect id="SVGID_9_" x="-556" y="-34.9" width="1366" height="1855"/>
			</defs>
			<clipPath id="SVGID_10_">
				<use xlink:href="#SVGID_9_"  overflow="visible"/>
			</clipPath>
			<g clip-path="url(#SVGID_10_)">
				<defs>
					<path id="SVGID_11_" d="M141.4,83c11.3-6.2,17.6,4.7,18,4c0.2-0.4-5.9-11.7-15.2-13c-4.2-0.6-7.7,1.2-8.9,4.4
						C134.4,80.9,135,86.5,141.4,83z"/>
				</defs>
				<clipPath id="SVGID_12_">
					<use xlink:href="#SVGID_11_"  overflow="visible"/>
				</clipPath>
				<g clip-path="url(#SVGID_12_)">
					<defs>
						<rect id="SVGID_13_" y="0.1" width="261" height="137"/>
					</defs>
					<clipPath id="SVGID_14_">
						<use xlink:href="#SVGID_13_"  overflow="visible"/>
					</clipPath>
					<rect x="130" y="68.9" clip-path="url(#SVGID_14_)" fill="#30AEDB" width="34.4" height="23.1"/>
				</g>
			</g>
		</g>
		<g clip-path="url(#SVGID_2_)">
			<defs>
				<rect id="SVGID_15_" x="-556" y="-34.9" width="1366" height="1855"/>
			</defs>
			<clipPath id="SVGID_16_">
				<use xlink:href="#SVGID_15_"  overflow="visible"/>
			</clipPath>
			<g clip-path="url(#SVGID_16_)">
				<defs>
					<path id="SVGID_17_" d="M195.4,73.7c-11.4,1.5-14.5,10.8-15,10.5c-0.3-0.2,2.2-10.1,9.8-16.4c3.4-2.7,7.3-3,9.2-1.1
						C200.9,68.1,201.9,72.9,195.4,73.7z"/>
				</defs>
				<clipPath id="SVGID_18_">
					<use xlink:href="#SVGID_17_"  overflow="visible"/>
				</clipPath>
				<g clip-path="url(#SVGID_18_)">
					<defs>
						<rect id="SVGID_19_" y="0.1" width="261" height="137"/>
					</defs>
					<clipPath id="SVGID_20_">
						<use xlink:href="#SVGID_19_"  overflow="visible"/>
					</clipPath>
					<rect x="175.4" y="60.5" clip-path="url(#SVGID_20_)" fill="#49BBE4" width="30.1" height="28.7"/>
				</g>
			</g>
		</g>
		<g clip-path="url(#SVGID_2_)">
			<defs>
				<rect id="SVGID_21_" x="-556" y="-34.9" width="1366" height="1855"/>
			</defs>
			<clipPath id="SVGID_22_">
				<use xlink:href="#SVGID_21_"  overflow="visible"/>
			</clipPath>
			<g clip-path="url(#SVGID_22_)">
				<defs>
					<path id="SVGID_23_" d="M200.1,84c-11.3-6.2-17.6,4.7-18,4c-0.2-0.4,5.9-11.7,15.2-13c4.2-0.6,7.7,1.2,8.9,4.4
						C207.1,81.9,206.5,87.5,200.1,84z"/>
				</defs>
				<clipPath id="SVGID_24_">
					<use xlink:href="#SVGID_23_"  overflow="visible"/>
				</clipPath>
				<g clip-path="url(#SVGID_24_)">
					<defs>
						<rect id="SVGID_25_" y="0.1" width="261" height="137"/>
					</defs>
					<clipPath id="SVGID_26_">
						<use xlink:href="#SVGID_25_"  overflow="visible"/>
					</clipPath>
					<rect x="177.1" y="69.9" clip-path="url(#SVGID_26_)" fill="#30AEDB" width="34.4" height="23.1"/>
				</g>
			</g>
		</g>
		<g clip-path="url(#SVGID_2_)">
			<defs>
				<rect id="SVGID_27_" x="-556" y="-34.9" width="1366" height="1855"/>
			</defs>
			<clipPath id="SVGID_28_">
				<use xlink:href="#SVGID_27_"  overflow="visible"/>
			</clipPath>
			<g clip-path="url(#SVGID_28_)">
				<defs>
					<path id="SVGID_29_" d="M174.7,7c0-2.2-1.9-3.8-4.1-3.8c-2.2,0-4.2,1.6-4.2,3.8c0,2.2,1.9,3.8,4.1,3.8
						C172.7,10.9,174.7,9.3,174.7,7z M140.8,53.4c0.1-0.2,0.1-0.3,0.1-0.5c0-0.2,0-0.3,0-0.5c0-0.7,0.2-1.3,0.2-2
						c0.2-1.4,0.7-2.9,1.2-4.3c0.8-2.1,1.8-4,3-5.8c0.4-0.6,0.9-1.2,1.3-1.8c0,0,0.1-0.1,0.2-0.2c0.3,1,0.5,1.9,0.8,2.8
						c0.5,1.2,1.1,2.4,1.7,3.6c0.7,1.2,1.4,2.3,2.2,3.4c0.5,0.7,1,1.3,1.5,1.9c-0.6,0.2-1.3,0.2-1.9,0.1c-1.2,0-1.8,0-2,0
						c0,0.1,0.1,0.2,0.1,0.2c0.8,1.4,1.8,2.6,3,3.8c0.8,0.7,1.7,1.4,2.6,1.9c0.4,0.2,0.8,0.5,1.3,0.7c1.2,0.5,2.5,0.7,3.8,0.3
						c1.9-0.4,3.3-1.4,4.2-3.1c0.5-0.9,0.9-2,1.2-3c0.2-1.1,0.4-2.2,0.5-3.3c0.1-0.8,0.1-1.6,0.2-2.4c0-0.3,0-0.7,0-0.9
						c0-0.6,0-1.1,0.1-1.7c0-0.4,0-0.8,0-1.2c0-0.6,0-1.2,0.1-1.8c0-0.6,0-1.2,0-1.8c0-0.6,0-1.2,0-1.8c0-0.7,0-1.3,0-2
						c0-0.5,0-0.9,0-1.4c0-0.5,0-1,0-1.5c0-0.5,0-1,0-1.5c0-0.5,0-1.1,0-1.6c0-0.6,0-1.2,0-1.8c0-0.7,0-1.3,0.1-2v-0.4
						c-1.3,0-2.4,0-3.4,0h-0.8c-0.5,0-1.1,0-1.6,0c-0.8,0-1.5,0-2.3,0c-0.7,0-1.5,0-2.2,0h-1h-0.3c0-0.1-0.1-0.1-0.2-0.2
						c-0.7-0.9-1.3-1.9-2-2.8c-0.4-0.7-0.9-1.3-1.3-2c0-0.2,0.1-0.2,0.2-0.2h1.4h3.3h1.8h2.7h4.4h1.4c0.2,0,0.2,0,0.2-0.1
						c0.1-1.4,0.1-2.9,0.2-4.3c-0.1-0.2-0.2-0.3-0.2-0.3c-0.7-0.3-1.3-0.7-1.9-1.2c-1.3-1.2-2.1-2.6-2.3-4.3
						c-0.1-0.8-0.1-1.6,0.2-2.4c0.3-1.4,1.1-2.6,2.3-3.6c0.9-0.8,1.8-1.3,3-1.6c0.5-0.2,1-0.2,1.5-0.3c0,0,1.4,0,1.4,0
						c0,0.1,0.1,0,0.2,0c0.8,0.1,1.4,0.2,2.2,0.5c1.8,0.7,3.1,1.9,4,3.5c0.7,1.3,0.9,2.6,0.7,4c-0.1,0.9-0.4,1.8-0.9,2.7
						c-0.8,1.3-1.9,2.3-3.4,2.9c-0.2,0.3-0.2,0.5-0.2,0.7v0.7c0,0.7,0,1.4,0,2c0,0.4,0,0.8,0,1.2c0.1,0.1,0.1,0.1,0.2,0.1h15.2h0.2
						c-1.3,1.9-2.4,3.5-3.6,5.2c0,0-0.4,0.1-0.4,0.1h-10.6h-0.2c-0.2,0.2-0.2,0.3-0.2,0.5c0,0.7,0,1.3,0,1.9v0.6c0,0.6,0,1.2,0,1.8
						c0,0.7,0,1.3,0,1.9c0,0.8,0,1.6,0.1,2.3c0,0.7,0,1.3,0,1.9v0.6c0,0.6,0,1.2,0,1.8c0,0.7,0,1.3,0,1.9v0.6c0,0.6,0,1.2,0,1.8
						c0,0.7,0,1.3,0,1.9V44c0,0.6,0,1.2,0,1.8c0,0.7,0,1.3,0,1.9c0,0.6,0,1.2,0,1.9c0,0.5,0,0.9,0.1,1.4c0.1,0.7,0.2,1.3,0.4,2
						c0.2,0.8,0.6,1.5,1.1,2.1c0.4,0.6,1,1.1,1.7,1.5c0.9,0.5,1.8,0.7,2.8,0.8c0.8,0,1.6,0,2.3-0.2c0.5-0.1,1.1-0.2,1.6-0.4
						c0.5-0.2,1.1-0.4,1.5-0.7c1-0.5,1.8-1.2,2.6-1.9c1-1,1.8-2.1,2.5-3.3c0-0.1,0.1-0.2,0.1-0.2c-0.2-0.1-0.5-0.1-0.8-0.2
						c-0.2,0-0.5-0.1-0.8-0.1c-0.2,0-0.5-0.1-0.7-0.1c-0.2,0-0.5-0.1-0.8-0.1c-0.2,0-0.5-0.1-0.8-0.1c-0.2,0-0.5-0.1-0.8-0.2
						c0.1,0,0.1-0.1,0.2-0.2c0.7-0.5,1.3-1,1.8-1.5c0.8-0.8,1.6-1.7,2.2-2.7c1-1.4,1.8-2.8,2.5-4.3c0.4-0.8,0.8-1.6,1.1-2.5
						c0,0,0-0.1,0.1-0.2c0.1,0.1,0.1,0.1,0.2,0.2c1.8,1.9,3.1,4.2,3.8,6.6c0.3,1.2,0.6,2.3,0.6,3.5c0,0.1,0,2.3,0,2.3
						c0,0.4,0,0.6-0.1,0.8c0,0.5-0.1,0.9-0.2,1.4c0,0.1,0,0.2-0.1,0.2c-1.1-0.5-2.2-1-3.3-1.5c-0.1,0.6-0.2,1-0.3,1.5
						c-0.4,1.6-1,3-1.8,4.4c-0.8,1.3-1.8,2.5-3,3.5c-0.8,0.7-1.6,1.3-2.4,1.8c-1.2,0.8-2.5,1.5-3.9,2.1c-1.6,0.7-3.1,1.2-4.8,1.6
						c-0.1,0-0.2,0-0.2,0.1c-0.4,0.2-0.8,0.3-1.3,0.5c-1.5,0.7-2.8,1.6-4,2.7c-0.8,0.7-1.5,1.5-2.2,2.3c-0.5,0.7-1,1.3-1.3,2h-0.4
						c-0.3-0.7-0.7-1.4-1-1.9c-0.7-1.1-1.6-2.1-2.7-2.9c-1.1-0.9-2.2-1.7-3.4-2.3c-0.2-0.1-0.4-0.2-0.6-0.2
						c-0.2-0.1-0.6-0.2-0.8-0.2c-2.2-0.7-4.4-1.6-6.4-2.8c-2.2-1.2-4.3-2.7-6-4.4c-1.6-1.6-2.9-3.3-3.8-5.2c-0.5-0.9-0.9-1.9-1.2-3
						c-0.1-0.1-0.2-0.1-0.2-0.1c-0.2,0.1-0.4,0.2-0.6,0.4c-0.9,0.6-1.8,1.2-2.7,1.8c0.1,0.1,0,0.2-0.1,0.2V53.4z"/>
				</defs>
				<clipPath id="SVGID_30_">
					<use xlink:href="#SVGID_29_"  overflow="visible"/>
				</clipPath>
				<g clip-path="url(#SVGID_30_)">
					<defs>
						<rect id="SVGID_31_" y="0.1" width="261" height="137"/>
					</defs>
					<clipPath id="SVGID_32_">
						<use xlink:href="#SVGID_31_"  overflow="visible"/>
					</clipPath>
					<rect x="135.8" y="-4.9" clip-path="url(#SVGID_32_)" fill="#494949" width="68.9" height="84.4"/>
				</g>
			</g>
		</g>
		<g clip-path="url(#SVGID_2_)">
			<defs>
				<rect id="SVGID_33_" x="-556" y="-34.9" width="1366" height="1855"/>
			</defs>
			<clipPath id="SVGID_34_">
				<use xlink:href="#SVGID_33_"  overflow="visible"/>
			</clipPath>
			<g clip-path="url(#SVGID_34_)">
				<defs>
					<path id="SVGID_35_" d="M34.6,81c-0.6-0.2-1.3-0.3-1.9-0.3c-0.7-0.1-1.3-0.1-1.9-0.1c-1.4,0-2.9,0.3-4.3,0.7
						c-1.4,0.5-2.7,1.2-4.1,2c-1.3,0.9-2.6,1.8-3.8,3s-2.3,2.4-3.4,3.7c-1.1,1.3-1.9,2.7-2.8,4.1c-0.9,1.4-1.5,2.9-2.2,4.3
						c-0.6,1.4-1.1,2.8-1.4,4.1c-0.3,1.3-0.5,2.6-0.5,3.7c0,2.2,0.5,4,1.5,5.2c1.1,1.3,2.6,2,4.7,2c1.3,0,2.5-0.3,3.8-0.7
						c1.1-0.5,2.3-1.2,3.3-2c1-0.8,1.9-1.7,2.8-2.7c0.9-1,1.6-2,2.2-3.1c0.6-1.1,1.1-2,1.5-3c0.4-1,0.7-1.8,0.9-2.5L34.6,81z
						 M47.2,112.3c-0.3,0.3-0.9,0.7-1.4,1.2c-0.6,0.4-1.2,0.9-1.9,1.4c-0.7,0.5-1.5,0.9-2.3,1.3c-0.9,0.4-1.7,0.8-2.5,1.2
						c-0.9,0.3-1.8,0.6-2.6,0.8c-0.9,0.2-1.8,0.3-2.5,0.3c-0.6,0-1.1-0.1-1.7-0.3c-0.6-0.2-1.1-0.5-1.6-1c-0.5-0.5-0.9-1.1-1.1-2
						c-0.3-0.9-0.5-1.9-0.5-3.2c0-0.6,0.1-1.2,0.2-1.8c0.1-0.6,0.2-1.3,0.3-2.1c-1,1.8-2.1,3.4-3.4,4.8c-1.3,1.4-2.6,2.5-3.9,3.5
						c-1.4,1-2.9,1.7-4.4,2.1c-1.5,0.5-3,0.7-4.5,0.7c-1.7,0-3.2-0.3-4.7-0.8c-1.5-0.5-2.8-1.3-3.9-2.4c-1.1-1-2-2.4-2.7-3.9
						c-0.7-1.6-1-3.4-1-5.5c0-1.6,0.2-3.2,0.6-4.9c0.4-1.7,1-3.4,1.8-5.2C4,94.9,5,93.2,6,91.5c1-1.7,2.3-3.3,3.7-4.8
						c1.4-1.6,2.9-3,4.6-4.3c1.7-1.3,3.4-2.5,5.2-3.4c1.9-0.9,3.8-1.7,5.9-2.2c2.1-0.5,4.2-0.8,6.4-0.8c0.6,0,1.1,0.1,1.4,0.1
						c0.3,0.1,0.6,0.2,0.9,0.3c0.2,0.2,0.3,0.3,0.3,0.4c0.1,0.2,0.1,0.3,0.1,0.3v0.2v0.2v0.1c0.5,0.3,1,0.4,1.5,0.5
						c0.5,0.1,1,0.1,1.5,0.2c0.5,0.1,1,0.1,1.4,0.3c0.4,0.1,0.8,0.3,1.1,0.7c0.3,0.3,0.6,0.9,0.7,1.7C41,81.8,41,82.8,41,84
						c0,1-0.1,2-0.3,3.2c-0.2,1.2-0.5,2.5-0.8,3.8c-0.3,1.3-0.7,2.6-1.1,4c-0.4,1.3-0.9,2.6-1.3,3.9c-0.4,1.3-0.9,2.5-1.2,3.6
						c-0.3,1.1-0.7,2.1-1,2.9c-0.1,0.7-0.1,1.4-0.2,2c-0.1,0.6-0.1,1.2-0.1,1.9c0,0.5,0,1,0.1,1.3c0.1,0.3,0.1,0.6,0.2,0.8
						c0.1,0.2,0.2,0.3,0.3,0.3c0.1,0.1,0.3,0.1,0.5,0.1c0.3,0,0.8-0.1,1.3-0.3s1.1-0.3,1.8-0.6c0.6-0.3,1.3-0.6,1.9-0.9
						c0.7-0.3,1.3-0.6,1.9-1c0.6-0.3,1.1-0.6,1.7-0.9c0.5-0.3,1-0.5,1.3-0.7L47.2,112.3z"/>
				</defs>
				<clipPath id="SVGID_36_">
					<use xlink:href="#SVGID_35_"  overflow="visible"/>
				</clipPath>
				<g clip-path="url(#SVGID_36_)">
					<defs>
						<rect id="SVGID_37_" y="0.1" width="261" height="137"/>
					</defs>
					<clipPath id="SVGID_38_">
						<use xlink:href="#SVGID_37_"  overflow="visible"/>
					</clipPath>
					<rect x="-4" y="71" clip-path="url(#SVGID_38_)" fill="#17566D" width="56.2" height="53.3"/>
				</g>
			</g>
		</g>
		<g clip-path="url(#SVGID_2_)">
			<defs>
				<rect id="SVGID_39_" x="-556" y="-34.9" width="1366" height="1855"/>
			</defs>
			<clipPath id="SVGID_40_">
				<use xlink:href="#SVGID_39_"  overflow="visible"/>
			</clipPath>
			<g clip-path="url(#SVGID_40_)">
				<defs>
					<path id="SVGID_41_" d="M44.1,112.6c0-1.1,0.1-2.3,0.2-3.7c0.2-1.4,0.3-2.8,0.5-4.3c0.2-1.4,0.4-2.9,0.7-4.2
						c0.3-1.3,0.5-2.5,0.7-3.5c0.2-0.7,0.6-1.4,1.1-1.8c0.5-0.5,1.3-0.7,2.3-0.7c1,0,1.6,0.3,1.9,0.8c0.3,0.5,0.5,1.2,0.5,2.1
						c0,0.3,0,0.6-0.1,1c-0.1,0.4-0.1,0.9-0.2,1.4c-0.1,0.5-0.2,1-0.3,1.6c-0.1,0.5-0.2,1-0.3,1.4c-0.1,0.4-0.2,0.9-0.2,1.2
						c-0.1,0.3-0.1,0.5-0.1,0.7h0.5c0.1-0.2,0.3-0.5,0.5-0.9c0.2-0.3,0.5-0.9,0.8-1.4c0.3-0.5,0.6-1.1,1-1.7c0.3-0.6,0.7-1.1,1-1.7
						c0.3-0.5,0.6-1,0.8-1.4c0.3-0.4,0.4-0.7,0.5-0.9c0.6-0.9,1.2-1.5,1.9-1.8c0.7-0.3,1.5-0.5,2.4-0.5c0.9,0,1.6,0.3,2.1,1
						c0.5,0.7,0.8,1.6,0.8,2.8c0,0.2-0.1,0.5-0.1,0.9c-0.1,0.4-0.2,0.9-0.3,1.5c-0.1,0.6-0.3,1.2-0.4,1.9c-0.1,0.7-0.3,1.4-0.4,2.1
						c-0.1,0.7-0.2,1.4-0.3,2.2c-0.1,0.7-0.1,1.4-0.1,2c0,1,0.2,1.8,0.4,2.5c0.3,0.6,0.7,1,1.3,1c0.3,0,0.6-0.1,0.9-0.2
						c0.3-0.2,0.7-0.3,1.1-0.6c0.3-0.2,0.8-0.5,1.2-0.8c0.4-0.3,0.9-0.6,1.2-1c1-0.7,1.9-1.6,2.9-2.5l0.4,5.4l-1.3,0.9
						c-0.7,0.5-1.4,1-2.2,1.5c-0.7,0.5-1.5,1-2.3,1.3c-0.8,0.3-1.7,0.7-2.5,1c-0.9,0.3-1.8,0.3-2.7,0.3c-1,0-1.8-0.6-2.5-1.9
						c-0.6-1.3-1-3.2-1-5.6c0-1,0.1-2,0.2-3.2c0.2-1.1,0.3-2.4,0.5-3.6h-0.4l-6.7,12.6c-0.3,0.6-0.7,1.1-1.1,1.4
						c-0.4,0.3-1,0.3-1.5,0.3c-0.7,0-1.3-0.2-1.8-0.4c-0.4-0.3-0.8-0.6-1-1.1c-0.2-0.5-0.3-1-0.5-1.7
						C44.1,113.9,44.1,113.3,44.1,112.6"/>
				</defs>
				<clipPath id="SVGID_42_">
					<use xlink:href="#SVGID_41_"  overflow="visible"/>
				</clipPath>
				<g clip-path="url(#SVGID_42_)">
					<defs>
						<rect id="SVGID_43_" y="0.1" width="261" height="137"/>
					</defs>
					<clipPath id="SVGID_44_">
						<use xlink:href="#SVGID_43_"  overflow="visible"/>
					</clipPath>
					<rect x="39" y="89.3" clip-path="url(#SVGID_44_)" fill="#17566D" width="36.9" height="33.3"/>
				</g>
			</g>
		</g>
		<g clip-path="url(#SVGID_2_)">
			<defs>
				<rect id="SVGID_45_" x="-556" y="-34.9" width="1366" height="1855"/>
			</defs>
			<clipPath id="SVGID_46_">
				<use xlink:href="#SVGID_45_"  overflow="visible"/>
			</clipPath>
			<g clip-path="url(#SVGID_46_)">
				<defs>
					<path id="SVGID_47_" d="M76.7,117.6c-1.7,0-3.1-0.3-4.3-0.9c-1.2-0.5-2.3-1.3-3.1-2.2c-0.9-0.9-1.5-2-1.9-3.2
						c-0.4-1.2-0.6-2.5-0.6-3.8c0-1,0.1-1.9,0.3-2.9c0.2-1,0.5-2,1-3c0.4-1,1-1.9,1.5-2.8c0.6-0.9,1.3-1.7,2.1-2.4
						c0.8-0.7,1.7-1.2,2.7-1.6c1-0.3,2.1-0.6,3.3-0.6c1,0,1.9,0.2,2.8,0.4c0.9,0.3,1.6,0.7,2.2,1.2c0.6,0.5,1.1,1.1,1.4,1.8
						c0.3,0.7,0.5,1.4,0.5,2.2c0,0.5-0.1,1.1-0.3,1.7c-0.2,0.5-0.3,1-0.7,1.4c-0.3,0.4-0.7,0.8-1.1,1c-0.4,0.3-1,0.3-1.5,0.3
						c-0.9,0-1.4-0.2-1.7-0.6c-0.3-0.4-0.3-1-0.3-1.7c0-0.3,0-0.6,0.1-0.9c0.1-0.3,0.1-0.6,0.1-0.9c0-0.3-0.1-0.7-0.2-1
						c-0.1-0.3-0.3-0.3-0.6-0.3c-0.7,0-1.3,0.2-1.8,0.5c-0.5,0.3-1,0.7-1.3,1.2c-0.3,0.5-0.6,1.1-0.9,1.7s-0.3,1.3-0.5,1.9
						c-0.1,0.6-0.2,1.2-0.3,1.8s-0.1,1.1-0.1,1.4c0,0.6,0.1,1.2,0.2,1.8c0.1,0.6,0.3,1.2,0.6,1.8c0.3,0.5,0.7,1,1.3,1.3
						c0.5,0.3,1.3,0.5,2.1,0.5s1.8-0.2,2.8-0.7c1-0.5,2.1-1.1,3.1-1.8c1.1-0.7,2-1.6,3-2.4c1-0.9,1.8-1.7,2.5-2.5l1.8,2.8
						c-1.3,1.8-2.7,3.3-4.3,4.6c-0.6,0.6-1.4,1.2-2.1,1.7c-0.8,0.5-1.6,1.1-2.5,1.5c-0.9,0.4-1.8,0.8-2.6,1.1
						C78.6,117.5,77.6,117.6,76.7,117.6"/>
				</defs>
				<clipPath id="SVGID_48_">
					<use xlink:href="#SVGID_47_"  overflow="visible"/>
				</clipPath>
				<g clip-path="url(#SVGID_48_)">
					<defs>
						<rect id="SVGID_49_" y="0.1" width="261" height="137"/>
					</defs>
					<clipPath id="SVGID_50_">
						<use xlink:href="#SVGID_49_"  overflow="visible"/>
					</clipPath>
					<rect x="61.7" y="89.2" clip-path="url(#SVGID_50_)" fill="#17566D" width="34.3" height="33.4"/>
				</g>
			</g>
		</g>
		<g clip-path="url(#SVGID_2_)">
			<defs>
				<rect id="SVGID_51_" x="-556" y="-34.9" width="1366" height="1855"/>
			</defs>
			<clipPath id="SVGID_52_">
				<use xlink:href="#SVGID_51_"  overflow="visible"/>
			</clipPath>
			<g clip-path="url(#SVGID_52_)">
				<defs>
					<path id="SVGID_53_" d="M99.5,87.7c1.1-2.5,1.8-4.5,2.3-6.2c0.5-1.7,0.7-2.9,0.7-3.7c0-1.2-0.2-1.8-0.5-1.8
						c-0.5,0-1.1,0.7-2.1,2c-0.9,1.3-2,3.3-3.2,5.9c-0.3,0.9-0.6,1.8-0.9,2.7c-0.3,1-0.5,1.8-0.7,2.8c-0.2,1-0.3,1.8-0.6,2.8
						c-0.2,0.9-0.3,1.8-0.4,2.5c-0.3,1.9-0.5,3.8-0.7,5.6c0.5-1,1-2.1,1.6-3.3c0.6-1.2,1.1-2.4,1.7-3.5c0.5-1.2,1.1-2.2,1.6-3.3
						C98.8,89.3,99.2,88.4,99.5,87.7z M97.3,102.7c0.7-0.9,1.5-1.8,2.5-2.8c0.9-1,1.8-1.9,2.8-2.8c1-0.9,1.9-1.6,2.9-2.1
						c1-0.6,1.8-0.9,2.7-0.9c0.2,0,0.4,0.1,0.7,0.1c0.3,0.1,0.5,0.2,0.7,0.3c0.2,0.2,0.4,0.5,0.6,0.8c0.2,0.3,0.2,0.8,0.2,1.3
						c0,1.1-0.2,2.1-0.5,3.2c-0.3,1-0.7,2.1-1.1,3.1c-0.3,1-0.7,2.1-1.1,3.2c-0.3,1.1-0.5,2.2-0.5,3.3c0,0.6,0.1,1.2,0.3,1.6
						c0.2,0.4,0.5,0.6,0.8,0.6c0.4,0,0.9-0.1,1.3-0.3c0.5-0.2,1-0.3,1.4-0.6c0.5-0.3,1-0.5,1.4-0.9c0.5-0.3,0.9-0.7,1.3-1
						c1-0.8,1.9-1.8,2.9-2.8l0.4,6.4c-0.3,0.2-0.7,0.5-1.2,0.9c-0.5,0.3-1,0.7-1.6,1.1c-0.6,0.3-1.2,0.7-1.9,1.1
						c-0.7,0.3-1.4,0.7-2.1,1c-0.7,0.3-1.4,0.5-2.1,0.7c-0.7,0.2-1.4,0.3-2,0.3c-1,0-1.8-0.2-2.5-0.7c-0.7-0.5-1.3-1.1-1.8-1.8
						c-0.5-0.7-0.8-1.6-1-2.4c-0.2-0.9-0.3-1.7-0.3-2.5c0-0.5,0.1-1.1,0.2-1.7c0.2-0.6,0.3-1.3,0.5-1.9c0.2-0.6,0.5-1.3,0.7-1.8
						c0.3-0.6,0.5-1.2,0.7-1.7c0.2-0.5,0.4-0.9,0.6-1.2c0.2-0.3,0.3-0.5,0.3-0.5l-0.5-0.1c-0.3,0.2-0.8,0.6-1.5,1.3
						c-0.7,0.7-1.5,1.7-2.5,2.7c-0.9,1.1-1.8,2.4-2.8,3.7c-1,1.4-1.8,2.8-2.6,4.3c-0.3,0.7-0.7,1.3-1,1.8c-0.3,0.5-0.5,1-0.7,1.3
						c-0.2,0.3-0.5,0.6-0.8,0.8c-0.3,0.2-0.6,0.3-1.1,0.3c-0.6,0-1.1-0.2-1.4-0.5c-0.3-0.3-0.6-0.7-0.7-1.2
						c-0.2-0.5-0.3-1.1-0.3-1.7c-0.1-0.6-0.1-1.3-0.1-2c0-1.1,0-2.5,0.1-4.2c0-1.8,0.1-3.7,0.3-5.8c0.2-2.1,0.3-4.4,0.6-6.7
						c0.3-2.4,0.6-4.6,1.1-6.9c0.5-2.3,1.1-4.5,1.8-6.6c0.7-2.1,1.7-3.9,2.6-5.5c1.1-1.6,2.3-2.8,3.7-3.8c1.4-0.9,3-1.4,4.9-1.4
						c1,0,1.8,0.1,2.3,0.3c0.6,0.3,1.1,0.6,1.4,1.1c0.3,0.5,0.6,1,0.7,1.7c0.1,0.6,0.2,1.4,0.2,2.2c0,1.2-0.2,2.5-0.5,3.9
						c-0.3,1.4-0.9,2.9-1.5,4.5c-0.6,1.6-1.3,3.2-2.1,4.7c-0.8,1.6-1.6,3.2-2.4,4.6c-0.8,1.5-1.6,2.9-2.4,4.3
						c-0.8,1.3-1.5,2.5-2.1,3.5L97.3,102.7z"/>
				</defs>
				<clipPath id="SVGID_54_">
					<use xlink:href="#SVGID_53_"  overflow="visible"/>
				</clipPath>
				<g clip-path="url(#SVGID_54_)">
					<defs>
						<rect id="SVGID_55_" y="0.1" width="261" height="137"/>
					</defs>
					<clipPath id="SVGID_56_">
						<use xlink:href="#SVGID_55_"  overflow="visible"/>
					</clipPath>
					<rect x="82.8" y="66.5" clip-path="url(#SVGID_56_)" fill="#17566D" width="39.2" height="56.2"/>
				</g>
			</g>
		</g>
		<g clip-path="url(#SVGID_2_)">
			<defs>
				<rect id="SVGID_57_" x="-556" y="-34.9" width="1366" height="1855"/>
			</defs>
			<clipPath id="SVGID_58_">
				<use xlink:href="#SVGID_57_"  overflow="visible"/>
			</clipPath>
			<g clip-path="url(#SVGID_58_)">
				<defs>
					<path id="SVGID_59_" d="M123.5,113.1c0.6,0,1.2-0.3,1.8-0.9c0.6-0.6,1.1-1.3,1.5-2.1c0.4-0.9,0.8-1.8,1-2.9
						c0.3-1.1,0.3-2,0.3-3c0-0.7-0.1-1.4-0.2-2.1c-0.1-0.6-0.3-1.2-0.6-1.7c-0.3-0.5-0.6-0.9-1-1.1c-0.3-0.3-0.9-0.4-1.4-0.4
						c-0.7,0-1.4,0.3-2.1,0.9c-0.6,0.6-1.2,1.3-1.8,2.2c-0.5,0.9-0.9,1.8-1.1,3c-0.3,1.1-0.4,2.1-0.4,3.2c0,0.7,0.1,1.3,0.2,2
						c0.2,0.6,0.3,1.1,0.7,1.6c0.3,0.5,0.7,0.8,1.2,1.1C122.2,113,122.8,113.1,123.5,113.1z M131.5,99.4c0.5,1,0.9,1.9,1.1,3
						c0.2,1.1,0.3,2,0.3,3c0,1-0.1,1.9-0.3,2.9c-0.2,1-0.6,1.9-1,2.8c-0.4,0.9-1,1.8-1.6,2.5c-0.6,0.7-1.3,1.5-2.2,2.1
						c-0.8,0.6-1.7,1.1-2.6,1.4c-1,0.3-1.9,0.5-3.1,0.5c-1.5,0-2.9-0.3-4-1s-2-1.4-2.7-2.5c-0.7-1-1.2-2.1-1.5-3.4s-0.5-2.5-0.5-3.9
						c0-1.8,0.3-3.5,0.9-5c0.6-1.6,1.4-2.9,2.5-4c1.1-1.1,2.5-2,4-2.7c1.6-0.6,3.3-1,5.3-1c1.7,0,3.3,0.2,4.7,0.7
						c1.5,0.5,2.9,1.1,4.1,1.9c1.3,0.8,2.5,1.7,3.6,2.8c1.1,1,2.1,2.1,3.1,3.2l-0.5,3.4c-0.5-0.6-1.1-1.2-1.9-1.9
						c-0.8-0.7-1.7-1.3-2.6-2c-0.9-0.6-1.8-1.3-2.7-1.8c-0.9-0.6-1.7-1.1-2.3-1.4L131.5,99.4z"/>
				</defs>
				<clipPath id="SVGID_60_">
					<use xlink:href="#SVGID_59_"  overflow="visible"/>
				</clipPath>
				<g clip-path="url(#SVGID_60_)">
					<defs>
						<rect id="SVGID_61_" y="0.1" width="261" height="137"/>
					</defs>
					<clipPath id="SVGID_62_">
						<use xlink:href="#SVGID_61_"  overflow="visible"/>
					</clipPath>
					<rect x="108.5" y="89.2" clip-path="url(#SVGID_62_)" fill="#17566D" width="38.1" height="33.5"/>
				</g>
			</g>
		</g>
		<g clip-path="url(#SVGID_2_)">
			<defs>
				<rect id="SVGID_63_" x="-556" y="-34.9" width="1366" height="1855"/>
			</defs>
			<clipPath id="SVGID_64_">
				<use xlink:href="#SVGID_63_"  overflow="visible"/>
			</clipPath>
			<g clip-path="url(#SVGID_64_)">
				<defs>
					<path id="SVGID_65_" d="M138.2,112.6c0-0.7,0.1-1.6,0.1-2.5c0.1-1,0.2-2,0.3-3c0.2-1.1,0.3-2.1,0.5-3.2
						c0.2-1.1,0.4-2.1,0.6-3.2c0.2-1,0.5-1.9,0.7-2.7c0.2-0.9,0.5-1.5,0.7-2c0.2-0.3,0.3-0.6,0.4-0.9c0.2-0.2,0.3-0.3,0.5-0.5
						c0.2-0.1,0.4-0.2,0.7-0.3c0.3-0.1,0.6-0.1,1-0.1c0.5,0,0.8,0,1.1,0.1c0.3,0.1,0.4,0.2,0.6,0.3c0.1,0.2,0.2,0.3,0.2,0.7
						c0.1,0.3,0.1,0.7,0.1,1.2v2.2c0,0.9,0,1.7,0.1,2.5h0.3c0.3-0.6,0.7-1.4,1.1-2.2c0.4-0.8,1-1.6,1.5-2.2c0.6-0.7,1.2-1.3,1.9-1.8
						c0.7-0.5,1.6-0.7,2.5-0.7c0.3,0,0.6,0.1,1,0.2c0.3,0.1,0.6,0.3,0.9,0.4c0.2,0.2,0.4,0.4,0.6,0.7c0.2,0.3,0.2,0.6,0.2,1
						c0,0.3-0.1,0.6-0.1,1.2c-0.1,0.5-0.2,1-0.3,1.6c-0.1,0.5-0.2,1.1-0.3,1.6c-0.1,0.5-0.1,1-0.1,1.3c0,0.6,0.1,1.1,0.2,1.4
						c0.1,0.3,0.3,0.7,0.5,1c0.2,0.2,0.4,0.4,0.7,0.5c0.3,0.1,0.5,0.2,0.8,0.2c0.8,0,1.6-0.2,2.5-0.5c0.9-0.3,1.7-0.7,2.3-1.1
						c0.9-0.5,1.7-1,2.5-1.6l-0.3,5.7c-0.5,0.3-1,0.6-1.5,0.9c-0.6,0.3-1.2,0.6-1.8,1s-1.3,0.5-2.1,0.7c-0.7,0.2-1.4,0.3-2.2,0.3
						c-1.3,0-2.4-0.3-3.2-0.7c-0.8-0.5-1.4-1.1-1.9-2c-0.5-0.8-0.9-1.7-1.1-2.7c-0.2-1-0.4-2-0.5-3h-0.5l-4.7,12.1
						c-0.3,0.6-0.5,1.2-0.7,1.6c-0.2,0.4-0.4,0.7-0.7,1c-0.2,0.3-0.5,0.4-0.7,0.5c-0.3,0.1-0.5,0.2-0.9,0.2c-0.7,0-1.3-0.2-1.8-0.4
						c-0.4-0.3-0.8-0.6-1-1.1c-0.2-0.5-0.3-1-0.5-1.7C138.3,113.9,138.2,113.3,138.2,112.6"/>
				</defs>
				<clipPath id="SVGID_66_">
					<use xlink:href="#SVGID_65_"  overflow="visible"/>
				</clipPath>
				<g clip-path="url(#SVGID_66_)">
					<defs>
						<rect id="SVGID_67_" y="0.1" width="261" height="137"/>
					</defs>
					<clipPath id="SVGID_68_">
						<use xlink:href="#SVGID_67_"  overflow="visible"/>
					</clipPath>
					<rect x="133.2" y="89.3" clip-path="url(#SVGID_68_)" fill="#17566D" width="36.1" height="33.4"/>
				</g>
			</g>
		</g>
		<g clip-path="url(#SVGID_2_)">
			<defs>
				<rect id="SVGID_69_" x="-556" y="-34.9" width="1366" height="1855"/>
			</defs>
			<clipPath id="SVGID_70_">
				<use xlink:href="#SVGID_69_"  overflow="visible"/>
			</clipPath>
			<g clip-path="url(#SVGID_70_)">
				<defs>
					<path id="SVGID_71_" d="M165.3,87.7c0-0.3,0.1-0.8,0.3-1.2c0.2-0.5,0.5-0.9,0.9-1.3c0.3-0.4,0.9-0.7,1.6-1
						c0.6-0.3,1.5-0.4,2.5-0.4c0.6,0,1.1,0.1,1.8,0.2c0.5,0.1,1,0.3,1.4,0.6c0.4,0.3,0.7,0.6,1,1.1c0.2,0.4,0.3,1,0.3,1.6
						c0,0.5-0.1,1.1-0.3,1.6c-0.2,0.5-0.5,1-0.9,1.4c-0.4,0.3-1,0.7-1.6,1c-0.6,0.3-1.4,0.3-2.3,0.3c-1.5,0-2.6-0.3-3.4-1
						C165.9,89.7,165.3,88.7,165.3,87.7z M177.4,112.5c-0.6,0.5-1.4,1.1-2.4,1.7c-1,0.6-2,1.2-3.1,1.7c-1.1,0.5-2.2,1-3.4,1.3
						c-1.1,0.3-2.2,0.5-3.3,0.5c-1,0-1.7-0.1-2.3-0.3c-0.6-0.2-1.1-0.6-1.5-1c-0.3-0.4-0.7-1-0.9-1.6c-0.2-0.6-0.3-1.3-0.3-2
						c0-1,0.1-2.2,0.3-3.6c0.2-1.3,0.6-2.8,1-4.2c0.3-1.4,0.8-2.9,1.2-4.4c0.4-1.4,0.8-2.8,1.1-4c0.1-0.4,0.3-0.8,0.7-1.1
						c0.3-0.3,0.8-0.5,1.3-0.7c0.5-0.2,1-0.3,1.5-0.4c0.5-0.1,1-0.2,1.4-0.2c0.7,0,1.3,0.1,1.5,0.3c0.3,0.3,0.4,0.6,0.4,1
						c0,0.3-0.1,0.9-0.3,1.6s-0.4,1.4-0.7,2.3c-0.3,0.9-0.5,1.8-0.9,2.8c-0.3,1-0.6,2-0.9,2.9c-0.3,1-0.5,1.9-0.7,2.9
						c-0.2,1-0.3,1.8-0.3,2.5c0,0.7,0.1,1.3,0.3,1.8c0.2,0.4,0.5,0.6,1.1,0.6c0.6,0,1.4-0.2,2.1-0.6c0.8-0.4,1.6-0.9,2.4-1.5
						c0.8-0.6,1.6-1.2,2.4-1.8c0.8-0.6,1.4-1.1,2-1.6L177.4,112.5z"/>
				</defs>
				<clipPath id="SVGID_72_">
					<use xlink:href="#SVGID_71_"  overflow="visible"/>
				</clipPath>
				<g clip-path="url(#SVGID_72_)">
					<defs>
						<rect id="SVGID_73_" y="0.1" width="261" height="137"/>
					</defs>
					<clipPath id="SVGID_74_">
						<use xlink:href="#SVGID_73_"  overflow="visible"/>
					</clipPath>
					<rect x="155.3" y="78.7" clip-path="url(#SVGID_74_)" fill="#17566D" width="27.1" height="44"/>
				</g>
			</g>
		</g>
		<g clip-path="url(#SVGID_2_)">
			<defs>
				<rect id="SVGID_75_" x="-556" y="-34.9" width="1366" height="1855"/>
			</defs>
			<clipPath id="SVGID_76_">
				<use xlink:href="#SVGID_75_"  overflow="visible"/>
			</clipPath>
			<g clip-path="url(#SVGID_76_)">
				<defs>
					<path id="SVGID_77_" d="M182.5,111.1c1.1-0.5,1.9-1.1,2.7-1.7c0.7-0.6,1.4-1.3,1.9-2c0.5-0.7,1-1.4,1.4-2.1
						c0.3-0.7,0.6-1.5,0.9-2.3c0.1-0.3,0.2-0.8,0.2-1.3c0-0.5-0.1-1-0.2-1.4c-0.1-0.4-0.3-0.8-0.7-1.1c-0.3-0.3-0.8-0.5-1.4-0.5
						c-0.6,0-1.2,0.2-1.7,0.5c-0.5,0.3-0.9,0.8-1.3,1.4c-0.3,0.6-0.6,1.3-0.9,2c-0.2,0.8-0.4,1.7-0.6,2.5c-0.2,0.9-0.3,1.8-0.3,2.8
						C182.5,109.1,182.5,110.1,182.5,111.1z M173.5,128.2c0,0.1,0.1,0.3,0.1,0.6s0.2,0.6,0.3,0.9c0.2,0.3,0.3,0.5,0.6,0.7
						c0.3,0.2,0.5,0.3,0.9,0.3c0.3,0,0.6-0.2,0.8-0.4c0.2-0.3,0.3-0.7,0.5-1.2c0.1-0.5,0.2-1.1,0.3-1.7c0.1-0.6,0.1-1.3,0.2-1.9
						c0.1-0.6,0.1-1.3,0.1-1.9c0-0.6,0.1-1.2,0.1-1.7c0.1-0.9,0.1-1.6,0.1-2.2c0.1-0.6,0.1-1.1,0.1-1.5s0.1-0.9,0.1-1.1
						c-0.3,0.5-0.7,1.1-1.1,1.8c-0.3,0.7-0.6,1.4-1,2.2c-0.3,0.7-0.6,1.5-0.8,2.3c-0.3,0.7-0.5,1.4-0.6,2.1
						c-0.2,0.6-0.3,1.2-0.4,1.7C173.5,127.7,173.5,128.1,173.5,128.2z M186.1,113.3c1.8,0,3.4-0.2,4.9-0.5c1.5-0.3,2.8-0.7,4-1.3
						c1.2-0.5,2.3-1.2,3.2-1.9c1-0.7,1.8-1.6,2.6-2.4l0.3,5.5c-0.6,0.6-1.3,1.2-2.1,1.8c-0.8,0.6-1.7,1.1-2.6,1.6
						c-1,0.4-1.9,0.8-3,1.1c-1.1,0.3-2.1,0.4-3.1,0.4c-0.1,0-0.3,0-0.5-0.1c-0.2-0.1-0.5-0.1-1-0.2c-0.4-0.1-1.1-0.2-1.9-0.3
						c-0.9-0.2-2-0.3-3.5-0.5v0.4c0,2.9-0.3,5.6-0.8,8.1c-0.5,2.4-1.3,4.5-2.2,6.1c-0.9,1.7-1.9,3-3.1,3.9c-1.1,0.9-2.4,1.4-3.7,1.4
						c-1,0-1.8-0.2-2.5-0.7c-0.7-0.5-1.2-1.1-1.6-1.8c-0.4-0.7-0.7-1.7-0.9-2.7c-0.2-1-0.3-2.1-0.3-3.2c0-0.6,0.1-1.4,0.3-2.2
						c0.2-0.9,0.5-1.7,1-2.6c0.3-0.9,0.9-1.8,1.3-2.8c0.5-1,1-1.8,1.5-2.8c1.2-2.1,2.6-4.2,4.1-6.4c0.2-1.3,0.3-2.5,0.6-3.9
						c0.2-1.3,0.5-2.6,0.8-3.9c0.3-1.2,0.7-2.5,1.1-3.6s1.1-2.1,1.8-2.9c0.7-0.8,1.7-1.5,2.6-2c1-0.5,2.3-0.7,3.7-0.7
						c1.1,0,2.1,0.2,3,0.4c1,0.3,1.8,0.7,2.5,1.3c0.7,0.6,1.3,1.4,1.7,2.4c0.5,1,0.6,2.1,0.6,3.5c0,1.1-0.2,2.2-0.5,3.2
						c-0.3,1-0.9,2-1.7,2.9c-0.7,1-1.7,1.8-2.9,2.6c-1.1,0.8-2.5,1.6-4.1,2.2L186.1,113.3z"/>
				</defs>
				<clipPath id="SVGID_78_">
					<use xlink:href="#SVGID_77_"  overflow="visible"/>
				</clipPath>
				<g clip-path="url(#SVGID_78_)">
					<defs>
						<rect id="SVGID_79_" y="0.1" width="261" height="137"/>
					</defs>
					<clipPath id="SVGID_80_">
						<use xlink:href="#SVGID_79_"  overflow="visible"/>
					</clipPath>
					<rect x="163.4" y="89.3" clip-path="url(#SVGID_80_)" fill="#17566D" width="42.7" height="52.1"/>
				</g>
			</g>
		</g>
		<g clip-path="url(#SVGID_2_)">
			<defs>
				<rect id="SVGID_81_" x="-556" y="-34.9" width="1366" height="1855"/>
			</defs>
			<clipPath id="SVGID_82_">
				<use xlink:href="#SVGID_81_"  overflow="visible"/>
			</clipPath>
			<g clip-path="url(#SVGID_82_)">
				<defs>
					<path id="SVGID_83_" d="M205.1,111.1c1.1-0.5,1.9-1.1,2.7-1.7c0.7-0.6,1.4-1.3,1.9-2c0.5-0.7,1-1.4,1.4-2.1
						c0.3-0.7,0.6-1.5,0.9-2.3c0.1-0.3,0.2-0.8,0.2-1.3c0-0.5-0.1-1-0.2-1.4c-0.1-0.4-0.3-0.8-0.7-1.1c-0.3-0.3-0.8-0.5-1.4-0.5
						c-0.6,0-1.2,0.2-1.7,0.5c-0.5,0.3-0.9,0.8-1.3,1.4c-0.3,0.6-0.6,1.3-0.9,2c-0.2,0.8-0.4,1.7-0.6,2.5c-0.2,0.9-0.3,1.8-0.3,2.8
						C205.2,109.1,205.1,110.1,205.1,111.1z M196.1,128.2c0,0.1,0.1,0.3,0.1,0.6c0.1,0.3,0.2,0.6,0.3,0.9s0.3,0.5,0.6,0.7
						c0.3,0.2,0.5,0.3,0.9,0.3c0.3,0,0.6-0.2,0.8-0.4c0.2-0.3,0.3-0.7,0.5-1.2c0.1-0.5,0.2-1.1,0.3-1.7c0.1-0.6,0.1-1.3,0.2-1.9
						c0.1-0.6,0.1-1.3,0.1-1.9c0-0.6,0.1-1.2,0.1-1.7c0.1-0.9,0.1-1.6,0.1-2.2c0.1-0.6,0.1-1.1,0.1-1.5s0.1-0.9,0.1-1.1
						c-0.3,0.5-0.7,1.1-1.1,1.8c-0.3,0.7-0.6,1.4-1,2.2c-0.3,0.7-0.6,1.5-0.8,2.3c-0.3,0.7-0.5,1.4-0.6,2.1
						c-0.2,0.6-0.3,1.2-0.4,1.7C196.2,127.7,196.1,128.1,196.1,128.2z M208.7,113.3c1.8,0,3.4-0.2,4.9-0.5c1.5-0.3,2.8-0.7,4-1.3
						c1.2-0.5,2.3-1.2,3.2-1.9c1-0.7,1.8-1.6,2.6-2.4l0.3,5.5c-0.6,0.6-1.3,1.2-2.1,1.8c-0.8,0.6-1.7,1.1-2.6,1.6
						c-1,0.4-1.9,0.8-3,1.1c-1.1,0.3-2.1,0.4-3.1,0.4c-0.1,0-0.3,0-0.5-0.1c-0.2-0.1-0.5-0.1-1-0.2c-0.4-0.1-1.1-0.2-1.9-0.3
						c-0.9-0.1-2-0.3-3.5-0.5v0.4c0,2.9-0.3,5.6-0.8,8.1c-0.5,2.4-1.3,4.5-2.2,6.1c-0.9,1.7-1.9,3-3.1,3.9c-1.1,0.9-2.4,1.4-3.7,1.4
						c-1,0-1.8-0.2-2.5-0.7c-0.7-0.5-1.2-1.1-1.6-1.8c-0.4-0.7-0.7-1.7-0.9-2.7s-0.3-2.1-0.3-3.2c0-0.6,0.1-1.4,0.3-2.2
						c0.2-0.9,0.5-1.7,1-2.6c0.3-0.9,0.9-1.8,1.3-2.8c0.5-1,1-1.8,1.5-2.8c1.2-2.1,2.6-4.2,4.1-6.4c0.2-1.3,0.3-2.5,0.6-3.9
						c0.2-1.3,0.5-2.6,0.8-3.9c0.3-1.2,0.7-2.5,1.1-3.6s1.1-2.1,1.8-2.9c0.7-0.8,1.7-1.5,2.6-2c1-0.5,2.3-0.7,3.7-0.7
						c1.1,0,2.1,0.2,3,0.4c1,0.3,1.8,0.7,2.5,1.3c0.7,0.6,1.3,1.4,1.7,2.4c0.4,1,0.6,2.1,0.6,3.5c0,1.1-0.2,2.2-0.5,3.2
						c-0.3,1-0.9,2-1.7,2.9c-0.7,1-1.7,1.8-2.9,2.6c-1.1,0.8-2.5,1.6-4.1,2.2L208.7,113.3z"/>
				</defs>
				<clipPath id="SVGID_84_">
					<use xlink:href="#SVGID_83_"  overflow="visible"/>
				</clipPath>
				<g clip-path="url(#SVGID_84_)">
					<defs>
						<rect id="SVGID_85_" y="0.1" width="261" height="137"/>
					</defs>
					<clipPath id="SVGID_86_">
						<use xlink:href="#SVGID_85_"  overflow="visible"/>
					</clipPath>
					<rect x="186.1" y="89.3" clip-path="url(#SVGID_86_)" fill="#17566D" width="42.7" height="52.1"/>
				</g>
			</g>
		</g>
		<g clip-path="url(#SVGID_2_)">
			<defs>
				<rect id="SVGID_87_" x="-556" y="-34.9" width="1366" height="1855"/>
			</defs>
			<clipPath id="SVGID_88_">
				<use xlink:href="#SVGID_87_"  overflow="visible"/>
			</clipPath>
			<g clip-path="url(#SVGID_88_)">
				<defs>
					<path id="SVGID_89_" d="M226.7,98.4c0.8-1.3,1.6-2.7,2.5-4.3c0.9-1.6,1.7-3.2,2.5-4.9c0.7-1.7,1.4-3.4,2-5.1
						c0.6-1.7,1-3.2,1.1-4.7c0-0.5,0-0.9-0.1-1.2c0-0.3-0.1-0.5-0.3-0.5c-0.5,0-1.1,0.3-1.7,0.9c-0.6,0.6-1.1,1.4-1.8,2.5
						c-0.6,1-1.1,2.2-1.7,3.6c-0.5,1.4-1,2.8-1.4,4.4c-0.4,1.6-0.7,3.2-1,4.7C226.9,95.2,226.7,96.9,226.7,98.4z M226.5,117.6
						c-1,0-1.8-0.3-2.7-1.1c-0.9-0.7-1.5-1.8-2.2-3.1c-0.6-1.3-1.1-2.8-1.4-4.5c-0.3-1.7-0.5-3.5-0.5-5.4c0-1.4,0.1-3,0.3-4.6
						c0.2-1.7,0.6-3.4,1-5.2c0.4-1.8,1-3.6,1.6-5.4s1.3-3.5,2.1-5.2c0.8-1.7,1.7-3.2,2.5-4.6c0.9-1.4,1.8-2.6,2.9-3.8
						c1-1.1,2-1.9,3.1-2.5c1.1-0.6,2.2-0.9,3.3-0.9c0.7,0,1.4,0.2,1.9,0.5c0.5,0.3,0.9,0.7,1.1,1.2c0.3,0.5,0.5,1.1,0.6,1.8
						c0.1,0.6,0.2,1.3,0.2,2c0,1.5-0.2,3-0.6,4.6c-0.3,1.6-0.9,3.2-1.5,4.7c-0.6,1.6-1.4,3.2-2.3,4.7c-0.9,1.6-1.8,3.2-2.6,4.7
						c-0.9,1.6-1.8,3.1-2.8,4.6c-1,1.5-1.8,3-2.6,4.4c-0.1,0.2-0.2,0.3-0.3,0.6c-0.1,0.3-0.2,0.5-0.3,0.9c-0.1,0.3-0.2,0.6-0.3,1
						c-0.1,0.3-0.2,0.7-0.2,1v0.3c0,0.4,0.1,0.8,0.2,1.2c0.1,0.3,0.2,0.7,0.3,1.1c0.2,0.3,0.3,0.6,0.5,0.7c0.1,0.2,0.3,0.3,0.5,0.3
						c0.3,0,0.7-0.1,1.1-0.2c0.4-0.1,0.9-0.3,1.4-0.5c0.5-0.2,1-0.5,1.5-0.7c0.5-0.3,1-0.6,1.5-0.9c1.1-0.7,2.3-1.4,3.5-2.4l2.2,5.1
						c-1.6,1-3.2,1.9-4.7,2.8c-0.7,0.3-1.4,0.7-2.1,1c-0.7,0.3-1.4,0.6-2.2,0.9c-0.7,0.3-1.4,0.5-2.1,0.6
						C227.8,117.6,227.1,117.6,226.5,117.6z"/>
				</defs>
				<clipPath id="SVGID_90_">
					<use xlink:href="#SVGID_89_"  overflow="visible"/>
				</clipPath>
				<g clip-path="url(#SVGID_90_)">
					<defs>
						<rect id="SVGID_91_" y="0.1" width="261" height="137"/>
					</defs>
					<clipPath id="SVGID_92_">
						<use xlink:href="#SVGID_91_"  overflow="visible"/>
					</clipPath>
					<rect x="214.7" y="66.5" clip-path="url(#SVGID_92_)" fill="#17566D" width="30.6" height="56.1"/>
				</g>
			</g>
		</g>
		<g clip-path="url(#SVGID_2_)">
			<defs>
				<rect id="SVGID_93_" x="-556" y="-34.9" width="1366" height="1855"/>
			</defs>
			<clipPath id="SVGID_94_">
				<use xlink:href="#SVGID_93_"  overflow="visible"/>
			</clipPath>
			<g clip-path="url(#SVGID_94_)">
				<defs>
					<path id="SVGID_95_" d="M240.8,106.5c0.6,0,1.3-0.2,2.1-0.4c0.7-0.3,1.5-0.7,2.1-1.1c0.6-0.5,1.2-1,1.7-1.5
						c0.4-0.5,0.7-1.1,0.7-1.6c0-0.7-0.2-1.3-0.4-1.8c-0.3-0.5-0.6-0.7-1.1-0.7c-0.8,0-1.4,0.1-1.9,0.3c-0.5,0.3-1,0.6-1.4,1
						c-0.3,0.4-0.7,0.9-0.9,1.4c-0.2,0.5-0.3,1-0.5,1.6c-0.1,0.5-0.2,1-0.2,1.6C240.8,105.7,240.8,106.2,240.8,106.5z M244.2,118.2
						c-1.7,0-3.1-0.3-4.3-0.9c-1.3-0.5-2.3-1.3-3.1-2.2c-0.9-1-1.4-2-1.8-3.2c-0.4-1.2-0.6-2.5-0.6-3.9c0-0.9,0.1-1.8,0.3-2.9
						c0.2-1,0.5-2,0.9-3c0.4-1,0.9-1.9,1.5-2.8c0.6-0.9,1.3-1.7,2.1-2.4c0.8-0.7,1.7-1.2,2.7-1.6c1-0.3,2.1-0.6,3.3-0.6
						c1,0,1.9,0.2,2.7,0.4c0.9,0.3,1.6,0.7,2.2,1.2c0.6,0.5,1.1,1.2,1.5,1.9c0.3,0.7,0.5,1.6,0.5,2.5c0,1-0.3,2-0.8,3
						c-0.5,1-1.3,2-2.2,2.9c-1,0.9-2.1,1.7-3.4,2.4c-1.3,0.7-2.7,1.2-4.3,1.7c0.3,0.4,0.5,0.8,0.8,1.1c0.3,0.3,0.5,0.5,0.8,0.7
						s0.5,0.3,0.9,0.3c0.3,0.1,0.6,0.1,1,0.1c1.1,0,2.2-0.2,3.3-0.6c1.1-0.3,2.3-0.9,3.4-1.4c1.1-0.6,2.2-1.2,3.2-1.9s1.8-1.3,2.5-2
						l3.4,3.2c-1.5,1.5-3.2,2.8-5,3.9c-0.7,0.5-1.6,1-2.5,1.4c-0.9,0.5-1.8,0.9-2.7,1.3c-1,0.3-1.9,0.6-3,0.9
						C246.3,118.1,245.3,118.2,244.2,118.2z"/>
				</defs>
				<clipPath id="SVGID_96_">
					<use xlink:href="#SVGID_95_"  overflow="visible"/>
				</clipPath>
				<g clip-path="url(#SVGID_96_)">
					<defs>
						<rect id="SVGID_97_" y="0.1" width="261" height="137"/>
					</defs>
					<clipPath id="SVGID_98_">
						<use xlink:href="#SVGID_97_"  overflow="visible"/>
					</clipPath>
					<rect x="229.3" y="89.8" clip-path="url(#SVGID_98_)" fill="#17566D" width="36.4" height="33.4"/>
				</g>
			</g>
		</g>
	</g>
</g>
<g>
	<path fill="#494949" d="M5.7,130.1c0-0.5-0.1-0.9-0.4-1.1c-0.3-0.2-0.6-0.4-1.1-0.4c-0.3,0-0.7,0.1-1,0.2c-0.3,0.1-0.5,0.3-0.7,0.5
		L2,128.7c0.2-0.2,0.5-0.4,0.9-0.6c0.4-0.2,0.8-0.2,1.3-0.2c0.3,0,0.6,0,0.9,0.1c0.3,0.1,0.5,0.2,0.7,0.4c0.2,0.2,0.4,0.4,0.5,0.6
		c0.1,0.3,0.2,0.6,0.2,0.9v2.5c0,0.2,0,0.4,0,0.7c0,0.2,0,0.4,0.1,0.6H5.8c0-0.1,0-0.3-0.1-0.5c0-0.2,0-0.3,0-0.5h0
		c-0.3,0.4-0.6,0.7-0.9,0.8s-0.7,0.3-1.2,0.3c-0.2,0-0.4,0-0.7-0.1c-0.2-0.1-0.4-0.2-0.6-0.3c-0.2-0.1-0.4-0.3-0.5-0.5
		c-0.1-0.2-0.2-0.5-0.2-0.8c0-0.4,0.1-0.8,0.3-1c0.2-0.3,0.5-0.4,0.9-0.6c0.4-0.1,0.8-0.2,1.3-0.2c0.5,0,1-0.1,1.5-0.1V130.1z
		 M5.5,130.9c-0.3,0-0.7,0-1,0c-0.3,0-0.7,0.1-0.9,0.2c-0.3,0.1-0.5,0.2-0.7,0.4s-0.3,0.4-0.3,0.6c0,0.2,0,0.4,0.1,0.5
		s0.2,0.3,0.3,0.3c0.1,0.1,0.3,0.1,0.4,0.2c0.2,0,0.3,0.1,0.5,0.1c0.3,0,0.6-0.1,0.8-0.2c0.2-0.1,0.4-0.2,0.6-0.4s0.3-0.4,0.4-0.6
		c0.1-0.2,0.1-0.5,0.1-0.7v-0.4H5.5z"/>
	<path fill="#494949" d="M16.4,132.8c-0.2,0.4-0.6,0.6-1,0.8c-0.4,0.2-0.8,0.3-1.2,0.3c-0.4,0-0.9-0.1-1.2-0.2s-0.7-0.4-0.9-0.6
		s-0.5-0.6-0.6-1c-0.1-0.4-0.2-0.8-0.2-1.2c0-0.4,0.1-0.8,0.2-1.2c0.1-0.4,0.3-0.7,0.6-1s0.6-0.5,0.9-0.6c0.4-0.2,0.8-0.2,1.2-0.2
		c0.4,0,0.8,0.1,1.2,0.3c0.4,0.2,0.7,0.5,1,0.9h0v-4.5h0.8v9.2h-0.8L16.4,132.8L16.4,132.8z M12.1,130.9c0,0.3,0,0.6,0.1,0.9
		c0.1,0.3,0.2,0.5,0.4,0.7c0.2,0.2,0.4,0.4,0.7,0.5s0.6,0.2,0.9,0.2c0.3,0,0.6-0.1,0.9-0.2s0.5-0.3,0.7-0.5c0.2-0.2,0.3-0.4,0.5-0.7
		c0.1-0.3,0.2-0.6,0.2-0.9c0-0.3-0.1-0.6-0.2-0.9c-0.1-0.3-0.3-0.5-0.5-0.7c-0.2-0.2-0.4-0.4-0.7-0.5c-0.3-0.1-0.6-0.2-0.9-0.2
		c-0.3,0-0.6,0.1-0.9,0.2c-0.3,0.1-0.5,0.3-0.7,0.5s-0.3,0.5-0.4,0.7S12.1,130.6,12.1,130.9z"/>
	<path fill="#494949" d="M20.5,125.8c0,0.2-0.1,0.3-0.2,0.4c-0.1,0.1-0.3,0.2-0.4,0.2c-0.1,0-0.3-0.1-0.4-0.2
		c-0.1-0.1-0.2-0.3-0.2-0.4s0.1-0.3,0.2-0.4c0.1-0.1,0.3-0.2,0.4-0.2c0.1,0,0.3,0.1,0.4,0.2C20.4,125.5,20.5,125.7,20.5,125.8z
		 M20.3,133.8h-0.8V128h0.8V133.8z"/>
	<path fill="#494949" d="M22.8,134.9c0.2,0.3,0.5,0.5,0.9,0.7c0.4,0.2,0.8,0.3,1.3,0.3c0.4,0,0.8-0.1,1-0.2c0.3-0.1,0.5-0.3,0.7-0.5
		s0.3-0.4,0.4-0.7c0.1-0.3,0.1-0.6,0.1-0.9v-1.1h0c-0.2,0.4-0.5,0.6-0.9,0.8c-0.4,0.2-0.8,0.3-1.2,0.3c-0.4,0-0.9-0.1-1.2-0.2
		c-0.4-0.1-0.7-0.3-0.9-0.6s-0.5-0.6-0.6-0.9s-0.2-0.7-0.2-1.2c0-0.4,0.1-0.8,0.2-1.1s0.3-0.7,0.6-0.9s0.6-0.5,0.9-0.6
		c0.4-0.2,0.8-0.2,1.2-0.2c0.4,0,0.8,0.1,1.2,0.3c0.4,0.2,0.7,0.5,0.9,0.8h0v-1h0.8v5.7c0,0.3,0,0.6-0.1,1s-0.2,0.7-0.5,1
		s-0.5,0.5-0.9,0.7c-0.4,0.2-0.9,0.3-1.6,0.3c-0.5,0-1-0.1-1.5-0.3c-0.5-0.2-0.9-0.5-1.2-0.8L22.8,134.9z M23,130.8
		c0,0.3,0,0.6,0.1,0.9s0.2,0.5,0.4,0.7c0.2,0.2,0.4,0.4,0.7,0.5s0.6,0.2,0.9,0.2c0.3,0,0.6-0.1,0.9-0.2c0.3-0.1,0.5-0.3,0.7-0.5
		c0.2-0.2,0.3-0.4,0.5-0.7c0.1-0.3,0.2-0.6,0.2-0.9c0-0.3-0.1-0.6-0.2-0.9c-0.1-0.3-0.3-0.5-0.5-0.7c-0.2-0.2-0.4-0.4-0.7-0.5
		c-0.3-0.1-0.6-0.2-0.9-0.2c-0.3,0-0.6,0.1-0.9,0.2c-0.3,0.1-0.5,0.3-0.7,0.5s-0.3,0.4-0.4,0.7S23,130.5,23,130.8z"/>
	<path fill="#494949" d="M31.3,125.8c0,0.2-0.1,0.3-0.2,0.4c-0.1,0.1-0.3,0.2-0.4,0.2c-0.1,0-0.3-0.1-0.4-0.2
		c-0.1-0.1-0.2-0.3-0.2-0.4s0.1-0.3,0.2-0.4c0.1-0.1,0.3-0.2,0.4-0.2c0.1,0,0.3,0.1,0.4,0.2C31.2,125.5,31.3,125.7,31.3,125.8z
		 M31.1,133.8h-0.8V128h0.8V133.8z"/>
	<path fill="#494949" d="M35.9,128.7h-1.6v3.3c0,0.2,0,0.4,0.1,0.5c0,0.1,0.1,0.2,0.2,0.3c0.1,0.1,0.2,0.1,0.3,0.2
		c0.1,0,0.2,0,0.3,0c0.1,0,0.2,0,0.4,0c0.1,0,0.2-0.1,0.4-0.1l0,0.7c-0.1,0.1-0.3,0.1-0.5,0.1c-0.2,0-0.3,0-0.5,0
		c-0.2,0-0.3,0-0.5-0.1s-0.3-0.1-0.5-0.2s-0.3-0.3-0.4-0.5s-0.1-0.5-0.1-0.8v-3.6h-1.2V128h1.2v-1.6h0.8v1.6h1.6V128.7z"/>
	<path fill="#494949" d="M40.8,130.1c0-0.5-0.1-0.9-0.4-1.1c-0.3-0.2-0.6-0.4-1.1-0.4c-0.3,0-0.7,0.1-1,0.2
		c-0.3,0.1-0.5,0.3-0.7,0.5l-0.5-0.6c0.2-0.2,0.5-0.4,0.9-0.6c0.4-0.2,0.8-0.2,1.3-0.2c0.3,0,0.6,0,0.9,0.1c0.3,0.1,0.5,0.2,0.7,0.4
		c0.2,0.2,0.4,0.4,0.5,0.6c0.1,0.3,0.2,0.6,0.2,0.9v2.5c0,0.2,0,0.4,0,0.7c0,0.2,0,0.4,0.1,0.6h-0.7c0-0.1,0-0.3-0.1-0.5
		c0-0.2,0-0.3,0-0.5h0c-0.3,0.4-0.6,0.7-0.9,0.8s-0.7,0.3-1.2,0.3c-0.2,0-0.4,0-0.7-0.1c-0.2-0.1-0.4-0.2-0.6-0.3
		c-0.2-0.1-0.4-0.3-0.5-0.5c-0.1-0.2-0.2-0.5-0.2-0.8c0-0.4,0.1-0.8,0.3-1c0.2-0.3,0.5-0.4,0.9-0.6c0.4-0.1,0.8-0.2,1.3-0.2
		c0.5,0,1-0.1,1.5-0.1V130.1z M40.6,130.9c-0.3,0-0.7,0-1,0c-0.3,0-0.7,0.1-0.9,0.2c-0.3,0.1-0.5,0.2-0.7,0.4s-0.3,0.4-0.3,0.6
		c0,0.2,0,0.4,0.1,0.5s0.2,0.3,0.3,0.3c0.1,0.1,0.3,0.1,0.4,0.2c0.2,0,0.3,0.1,0.5,0.1c0.3,0,0.6-0.1,0.8-0.2
		c0.2-0.1,0.4-0.2,0.6-0.4s0.3-0.4,0.4-0.6c0.1-0.2,0.1-0.5,0.1-0.7v-0.4H40.6z"/>
	<path fill="#494949" d="M44.6,133.8h-0.8v-9.2h0.8V133.8z"/>
	<path fill="#494949" d="M50.7,129c0.2-0.3,0.4-0.6,0.8-0.8c0.4-0.2,0.7-0.3,1.1-0.3c0.7,0,1.3,0.2,1.6,0.6s0.5,1,0.5,1.7v3.5H54
		v-3.2c0-0.3,0-0.6-0.1-0.8s-0.1-0.5-0.3-0.6s-0.3-0.3-0.5-0.4c-0.2-0.1-0.5-0.1-0.8-0.1c-0.2,0-0.4,0-0.6,0.1s-0.4,0.2-0.6,0.4
		s-0.3,0.4-0.4,0.7c-0.1,0.3-0.1,0.6-0.1,1v2.9h-0.8v-9.2h0.8L50.7,129L50.7,129z"/>
	<path fill="#494949" d="M61.2,133.8c0-0.2,0-0.3,0-0.5s0-0.3,0-0.5h0c-0.2,0.3-0.4,0.6-0.8,0.8c-0.4,0.2-0.8,0.3-1.2,0.3
		c-0.7,0-1.3-0.2-1.6-0.6s-0.5-1-0.5-1.7V128h0.8v3.2c0,0.3,0,0.6,0.1,0.8s0.1,0.5,0.3,0.6s0.3,0.3,0.5,0.4c0.2,0.1,0.5,0.1,0.8,0.1
		c0.2,0,0.4,0,0.6-0.1c0.2-0.1,0.4-0.2,0.6-0.4c0.2-0.2,0.3-0.4,0.4-0.7c0.1-0.3,0.1-0.6,0.1-1V128h0.8v4.5c0,0.2,0,0.4,0,0.6
		s0,0.5,0,0.7H61.2z"/>
	<path fill="#494949" d="M65.7,128.2c0.3-0.2,0.7-0.3,1.1-0.3c0.2,0,0.3,0,0.5,0c0.2,0,0.3,0.1,0.5,0.2c0.2,0.1,0.3,0.2,0.4,0.4
		c0.1,0.2,0.3,0.4,0.3,0.6c0.2-0.4,0.5-0.7,0.8-0.9s0.7-0.3,1.2-0.3c0.7,0,1.3,0.2,1.6,0.6c0.4,0.4,0.5,1,0.5,1.7v3.5h-0.8v-3.2
		c0-0.6-0.1-1.1-0.3-1.5c-0.2-0.4-0.6-0.6-1.1-0.6c-0.3,0-0.6,0.1-0.8,0.2c-0.2,0.1-0.4,0.3-0.5,0.5c-0.1,0.2-0.2,0.4-0.3,0.7
		c-0.1,0.3-0.1,0.5-0.1,0.8v3H68v-3.3c0-0.3,0-0.5-0.1-0.8c0-0.2-0.1-0.4-0.2-0.6c-0.1-0.2-0.2-0.3-0.4-0.4s-0.4-0.1-0.7-0.1
		c-0.2,0-0.4,0-0.6,0.1c-0.2,0.1-0.4,0.2-0.5,0.4c-0.2,0.2-0.3,0.4-0.4,0.7c-0.1,0.3-0.1,0.6-0.1,1v2.9h-0.8v-4.5c0-0.2,0-0.4,0-0.6
		c0-0.2,0-0.5,0-0.7h0.8c0,0.2,0,0.3,0,0.5c0,0.2,0,0.3,0,0.5h0C65.1,128.7,65.3,128.4,65.7,128.2z"/>
	<path fill="#494949" d="M78.5,130.1c0-0.5-0.1-0.9-0.4-1.1c-0.3-0.2-0.6-0.4-1.1-0.4c-0.3,0-0.7,0.1-1,0.2
		c-0.3,0.1-0.5,0.3-0.7,0.5l-0.5-0.6c0.2-0.2,0.5-0.4,0.9-0.6c0.4-0.2,0.8-0.2,1.3-0.2c0.3,0,0.6,0,0.9,0.1c0.3,0.1,0.5,0.2,0.7,0.4
		c0.2,0.2,0.4,0.4,0.5,0.6c0.1,0.3,0.2,0.6,0.2,0.9v2.5c0,0.2,0,0.4,0,0.7c0,0.2,0,0.4,0.1,0.6h-0.7c0-0.1,0-0.3-0.1-0.5
		c0-0.2,0-0.3,0-0.5h0c-0.3,0.4-0.6,0.7-0.9,0.8s-0.7,0.3-1.2,0.3c-0.2,0-0.4,0-0.7-0.1c-0.2-0.1-0.4-0.2-0.6-0.3
		c-0.2-0.1-0.4-0.3-0.5-0.5c-0.1-0.2-0.2-0.5-0.2-0.8c0-0.4,0.1-0.8,0.3-1c0.2-0.3,0.5-0.4,0.9-0.6c0.4-0.1,0.8-0.2,1.3-0.2
		c0.5,0,1-0.1,1.5-0.1V130.1z M78.3,130.9c-0.3,0-0.7,0-1,0c-0.3,0-0.7,0.1-0.9,0.2c-0.3,0.1-0.5,0.2-0.7,0.4s-0.3,0.4-0.3,0.6
		c0,0.2,0,0.4,0.1,0.5s0.2,0.3,0.3,0.3c0.1,0.1,0.3,0.1,0.4,0.2c0.2,0,0.3,0.1,0.5,0.1c0.3,0,0.6-0.1,0.8-0.2
		c0.2-0.1,0.4-0.2,0.6-0.4s0.3-0.4,0.4-0.6c0.1-0.2,0.1-0.5,0.1-0.7v-0.4H78.3z"/>
	<path fill="#494949" d="M82.2,128c0,0.2,0,0.3,0,0.5c0,0.2,0,0.3,0,0.5h0c0.2-0.3,0.4-0.6,0.8-0.8c0.4-0.2,0.8-0.3,1.2-0.3
		c0.7,0,1.3,0.2,1.6,0.6s0.5,1,0.5,1.7v3.5h-0.8v-3.2c0-0.3,0-0.6-0.1-0.8s-0.1-0.5-0.3-0.6s-0.3-0.3-0.5-0.4
		c-0.2-0.1-0.5-0.1-0.8-0.1c-0.2,0-0.4,0-0.6,0.1s-0.4,0.2-0.6,0.4s-0.3,0.4-0.4,0.7c-0.1,0.3-0.1,0.6-0.1,1v2.9h-0.8v-4.5
		c0-0.2,0-0.4,0-0.6c0-0.2,0-0.5,0-0.7H82.2z"/>
	<path fill="#494949" d="M89.6,125.8c0,0.2-0.1,0.3-0.2,0.4c-0.1,0.1-0.3,0.2-0.4,0.2c-0.1,0-0.3-0.1-0.4-0.2
		c-0.1-0.1-0.2-0.3-0.2-0.4s0.1-0.3,0.2-0.4c0.1-0.1,0.3-0.2,0.4-0.2c0.1,0,0.3,0.1,0.4,0.2C89.5,125.5,89.6,125.7,89.6,125.8z
		 M89.4,133.8h-0.8V128h0.8V133.8z"/>
	<path fill="#494949" d="M94.2,128.7h-1.6v3.3c0,0.2,0,0.4,0.1,0.5c0,0.1,0.1,0.2,0.2,0.3c0.1,0.1,0.2,0.1,0.3,0.2
		c0.1,0,0.2,0,0.3,0c0.1,0,0.2,0,0.4,0c0.1,0,0.2-0.1,0.4-0.1l0,0.7c-0.1,0.1-0.3,0.1-0.5,0.1c-0.2,0-0.3,0-0.5,0
		c-0.2,0-0.3,0-0.5-0.1s-0.3-0.1-0.5-0.2s-0.3-0.3-0.4-0.5s-0.1-0.5-0.1-0.8v-3.6h-1.2V128h1.2v-1.6h0.8v1.6h1.6V128.7z"/>
	<path fill="#494949" d="M99.1,130.1c0-0.5-0.1-0.9-0.4-1.1c-0.3-0.2-0.6-0.4-1.1-0.4c-0.3,0-0.7,0.1-1,0.2
		c-0.3,0.1-0.5,0.3-0.7,0.5l-0.5-0.6c0.2-0.2,0.5-0.4,0.9-0.6c0.4-0.2,0.8-0.2,1.3-0.2c0.3,0,0.6,0,0.9,0.1c0.3,0.1,0.5,0.2,0.7,0.4
		c0.2,0.2,0.4,0.4,0.5,0.6c0.1,0.3,0.2,0.6,0.2,0.9v2.5c0,0.2,0,0.4,0,0.7c0,0.2,0,0.4,0.1,0.6h-0.7c0-0.1,0-0.3-0.1-0.5
		c0-0.2,0-0.3,0-0.5h0c-0.3,0.4-0.6,0.7-0.9,0.8s-0.7,0.3-1.2,0.3c-0.2,0-0.4,0-0.7-0.1c-0.2-0.1-0.4-0.2-0.6-0.3
		c-0.2-0.1-0.4-0.3-0.5-0.5c-0.1-0.2-0.2-0.5-0.2-0.8c0-0.4,0.1-0.8,0.3-1c0.2-0.3,0.5-0.4,0.9-0.6c0.4-0.1,0.8-0.2,1.3-0.2
		c0.5,0,1-0.1,1.5-0.1V130.1z M98.8,130.9c-0.3,0-0.7,0-1,0c-0.3,0-0.7,0.1-0.9,0.2c-0.3,0.1-0.5,0.2-0.7,0.4s-0.3,0.4-0.3,0.6
		c0,0.2,0,0.4,0.1,0.5s0.2,0.3,0.3,0.3c0.1,0.1,0.3,0.1,0.4,0.2c0.2,0,0.3,0.1,0.5,0.1c0.3,0,0.6-0.1,0.8-0.2
		c0.2-0.1,0.4-0.2,0.6-0.4s0.3-0.4,0.4-0.6c0.1-0.2,0.1-0.5,0.1-0.7v-0.4H98.8z"/>
	<path fill="#494949" d="M102,128.7c0-0.2,0-0.5,0-0.7h0.8c0,0.2,0,0.3,0,0.5c0,0.2,0,0.3,0,0.5h0c0.2-0.3,0.4-0.6,0.7-0.8
		c0.3-0.2,0.7-0.3,1.1-0.3c0.1,0,0.2,0,0.3,0c0.1,0,0.2,0,0.3,0l-0.1,0.8c0,0-0.1,0-0.2,0c-0.1,0-0.2,0-0.3,0c-0.2,0-0.4,0-0.6,0.1
		c-0.2,0.1-0.4,0.2-0.5,0.4s-0.3,0.4-0.4,0.7s-0.1,0.6-0.1,1v2.9H102v-4.5C102,129.1,102,129,102,128.7z"/>
	<path fill="#494949" d="M107.4,125.8c0,0.2-0.1,0.3-0.2,0.4c-0.1,0.1-0.3,0.2-0.4,0.2c-0.1,0-0.3-0.1-0.4-0.2
		c-0.1-0.1-0.2-0.3-0.2-0.4s0.1-0.3,0.2-0.4c0.1-0.1,0.3-0.2,0.4-0.2c0.1,0,0.3,0.1,0.4,0.2C107.4,125.5,107.4,125.7,107.4,125.8z
		 M107.3,133.8h-0.8V128h0.8V133.8z"/>
	<path fill="#494949" d="M113.1,130.1c0-0.5-0.1-0.9-0.4-1.1c-0.3-0.2-0.6-0.4-1.1-0.4c-0.3,0-0.7,0.1-1,0.2
		c-0.3,0.1-0.5,0.3-0.7,0.5l-0.5-0.6c0.2-0.2,0.5-0.4,0.9-0.6c0.4-0.2,0.8-0.2,1.3-0.2c0.3,0,0.6,0,0.9,0.1c0.3,0.1,0.5,0.2,0.7,0.4
		c0.2,0.2,0.4,0.4,0.5,0.6c0.1,0.3,0.2,0.6,0.2,0.9v2.5c0,0.2,0,0.4,0,0.7c0,0.2,0,0.4,0.1,0.6h-0.7c0-0.1,0-0.3-0.1-0.5
		c0-0.2,0-0.3,0-0.5h0c-0.3,0.4-0.6,0.7-0.9,0.8s-0.7,0.3-1.2,0.3c-0.2,0-0.4,0-0.7-0.1c-0.2-0.1-0.4-0.2-0.6-0.3
		c-0.2-0.1-0.4-0.3-0.5-0.5c-0.1-0.2-0.2-0.5-0.2-0.8c0-0.4,0.1-0.8,0.3-1c0.2-0.3,0.5-0.4,0.9-0.6c0.4-0.1,0.8-0.2,1.3-0.2
		c0.5,0,1-0.1,1.5-0.1V130.1z M112.8,130.9c-0.3,0-0.7,0-1,0c-0.3,0-0.7,0.1-0.9,0.2c-0.3,0.1-0.5,0.2-0.7,0.4s-0.3,0.4-0.3,0.6
		c0,0.2,0,0.4,0.1,0.5s0.2,0.3,0.3,0.3c0.1,0.1,0.3,0.1,0.4,0.2c0.2,0,0.3,0.1,0.5,0.1c0.3,0,0.6-0.1,0.8-0.2
		c0.2-0.1,0.4-0.2,0.6-0.4s0.3-0.4,0.4-0.6c0.1-0.2,0.1-0.5,0.1-0.7v-0.4H112.8z"/>
	<path fill="#494949" d="M116.7,128c0,0.2,0,0.3,0,0.5c0,0.2,0,0.3,0,0.5h0c0.2-0.3,0.4-0.6,0.8-0.8c0.4-0.2,0.8-0.3,1.2-0.3
		c0.7,0,1.3,0.2,1.6,0.6s0.5,1,0.5,1.7v3.5h-0.8v-3.2c0-0.3,0-0.6-0.1-0.8s-0.1-0.5-0.3-0.6s-0.3-0.3-0.5-0.4
		c-0.2-0.1-0.5-0.1-0.8-0.1c-0.2,0-0.4,0-0.6,0.1s-0.4,0.2-0.6,0.4s-0.3,0.4-0.4,0.7c-0.1,0.3-0.1,0.6-0.1,1v2.9H116v-4.5
		c0-0.2,0-0.4,0-0.6c0-0.2,0-0.5,0-0.7H116.7z"/>
	<path fill="#494949" d="M129.8,130.1c0-0.5-0.1-0.9-0.4-1.1c-0.3-0.2-0.6-0.4-1.1-0.4c-0.3,0-0.7,0.1-1,0.2
		c-0.3,0.1-0.5,0.3-0.7,0.5l-0.5-0.6c0.2-0.2,0.5-0.4,0.9-0.6c0.4-0.2,0.8-0.2,1.3-0.2c0.3,0,0.6,0,0.9,0.1c0.3,0.1,0.5,0.2,0.7,0.4
		c0.2,0.2,0.4,0.4,0.5,0.6c0.1,0.3,0.2,0.6,0.2,0.9v2.5c0,0.2,0,0.4,0,0.7c0,0.2,0,0.4,0.1,0.6h-0.7c0-0.1,0-0.3-0.1-0.5
		c0-0.2,0-0.3,0-0.5h0c-0.3,0.4-0.6,0.7-0.9,0.8s-0.7,0.3-1.2,0.3c-0.2,0-0.4,0-0.7-0.1c-0.2-0.1-0.4-0.2-0.6-0.3
		c-0.2-0.1-0.4-0.3-0.5-0.5c-0.1-0.2-0.2-0.5-0.2-0.8c0-0.4,0.1-0.8,0.3-1c0.2-0.3,0.5-0.4,0.9-0.6c0.4-0.1,0.8-0.2,1.3-0.2
		c0.5,0,1-0.1,1.5-0.1V130.1z M129.5,130.9c-0.3,0-0.7,0-1,0c-0.3,0-0.7,0.1-0.9,0.2c-0.3,0.1-0.5,0.2-0.7,0.4s-0.3,0.4-0.3,0.6
		c0,0.2,0,0.4,0.1,0.5s0.2,0.3,0.3,0.3c0.1,0.1,0.3,0.1,0.4,0.2c0.2,0,0.3,0.1,0.5,0.1c0.3,0,0.6-0.1,0.8-0.2
		c0.2-0.1,0.4-0.2,0.6-0.4s0.3-0.4,0.4-0.6c0.1-0.2,0.1-0.5,0.1-0.7v-0.4H129.5z"/>
	<path fill="#494949" d="M133,134.9c0.2,0.3,0.5,0.5,0.9,0.7c0.4,0.2,0.8,0.3,1.3,0.3c0.4,0,0.8-0.1,1-0.2c0.3-0.1,0.5-0.3,0.7-0.5
		s0.3-0.4,0.4-0.7c0.1-0.3,0.1-0.6,0.1-0.9v-1.1h0c-0.2,0.4-0.5,0.6-0.9,0.8c-0.4,0.2-0.8,0.3-1.2,0.3c-0.4,0-0.9-0.1-1.2-0.2
		c-0.4-0.1-0.7-0.3-0.9-0.6s-0.5-0.6-0.6-0.9s-0.2-0.7-0.2-1.2c0-0.4,0.1-0.8,0.2-1.1s0.3-0.7,0.6-0.9s0.6-0.5,0.9-0.6
		c0.4-0.2,0.8-0.2,1.2-0.2c0.4,0,0.8,0.1,1.2,0.3c0.4,0.2,0.7,0.5,0.9,0.8h0v-1h0.8v5.7c0,0.3,0,0.6-0.1,1s-0.2,0.7-0.5,1
		s-0.5,0.5-0.9,0.7c-0.4,0.2-0.9,0.3-1.6,0.3c-0.5,0-1-0.1-1.5-0.3c-0.5-0.2-0.9-0.5-1.2-0.8L133,134.9z M133.2,130.8
		c0,0.3,0,0.6,0.1,0.9s0.2,0.5,0.4,0.7c0.2,0.2,0.4,0.4,0.7,0.5s0.6,0.2,0.9,0.2c0.3,0,0.6-0.1,0.9-0.2c0.3-0.1,0.5-0.3,0.7-0.5
		c0.2-0.2,0.3-0.4,0.5-0.7c0.1-0.3,0.2-0.6,0.2-0.9c0-0.3-0.1-0.6-0.2-0.9c-0.1-0.3-0.3-0.5-0.5-0.7c-0.2-0.2-0.4-0.4-0.7-0.5
		c-0.3-0.1-0.6-0.2-0.9-0.2c-0.3,0-0.6,0.1-0.9,0.2c-0.3,0.1-0.5,0.3-0.7,0.5s-0.3,0.4-0.4,0.7S133.2,130.5,133.2,130.8z"/>
	<path fill="#494949" d="M145.6,130.7c0,0.1,0,0.1,0,0.2c0,0.1,0,0.1,0,0.2h-4.7c0,0.3,0.1,0.6,0.2,0.8c0.1,0.3,0.3,0.5,0.4,0.7
		c0.2,0.2,0.4,0.3,0.7,0.4c0.3,0.1,0.5,0.2,0.8,0.2c0.4,0,0.8-0.1,1.1-0.3c0.3-0.2,0.6-0.4,0.7-0.7l0.6,0.5
		c-0.3,0.4-0.7,0.7-1.1,0.9c-0.4,0.2-0.9,0.3-1.3,0.3c-0.4,0-0.8-0.1-1.2-0.2s-0.7-0.4-0.9-0.6s-0.5-0.6-0.6-1
		c-0.2-0.4-0.2-0.8-0.2-1.2c0-0.4,0.1-0.8,0.2-1.2c0.1-0.4,0.4-0.7,0.6-1c0.3-0.3,0.6-0.5,0.9-0.6s0.7-0.2,1.1-0.2
		c0.4,0,0.8,0.1,1.2,0.2c0.3,0.2,0.6,0.4,0.9,0.6c0.2,0.3,0.4,0.6,0.5,0.9C145.6,130,145.6,130.3,145.6,130.7z M144.8,130.5
		c0-0.5-0.2-1-0.5-1.3c-0.3-0.4-0.8-0.5-1.4-0.5c-0.3,0-0.5,0.1-0.8,0.2c-0.2,0.1-0.4,0.2-0.6,0.4c-0.2,0.2-0.3,0.4-0.4,0.6
		c-0.1,0.2-0.2,0.5-0.2,0.7H144.8z"/>
	<path fill="#494949" d="M148.2,128c0,0.2,0,0.3,0,0.5c0,0.2,0,0.3,0,0.5h0c0.2-0.3,0.4-0.6,0.8-0.8c0.4-0.2,0.8-0.3,1.2-0.3
		c0.7,0,1.3,0.2,1.6,0.6s0.5,1,0.5,1.7v3.5h-0.8v-3.2c0-0.3,0-0.6-0.1-0.8s-0.1-0.5-0.3-0.6s-0.3-0.3-0.5-0.4
		c-0.2-0.1-0.5-0.1-0.8-0.1c-0.2,0-0.4,0-0.6,0.1s-0.4,0.2-0.6,0.4s-0.3,0.4-0.4,0.7c-0.1,0.3-0.1,0.6-0.1,1v2.9h-0.8v-4.5
		c0-0.2,0-0.4,0-0.6c0-0.2,0-0.5,0-0.7H148.2z"/>
	<path fill="#494949" d="M158.6,129.4c-0.1-0.2-0.3-0.4-0.6-0.5c-0.3-0.1-0.6-0.2-0.9-0.2c-0.3,0-0.6,0.1-0.9,0.2
		c-0.3,0.1-0.5,0.3-0.7,0.5s-0.3,0.5-0.4,0.7s-0.2,0.6-0.2,0.9c0,0.3,0.1,0.6,0.2,0.9c0.1,0.3,0.2,0.5,0.4,0.7
		c0.2,0.2,0.4,0.4,0.7,0.5c0.3,0.1,0.6,0.2,0.9,0.2c0.4,0,0.7-0.1,0.9-0.2c0.3-0.1,0.5-0.3,0.6-0.5l0.6,0.5
		c-0.2,0.3-0.5,0.5-0.9,0.7c-0.4,0.2-0.8,0.3-1.3,0.3c-0.5,0-0.9-0.1-1.3-0.2s-0.7-0.4-1-0.6c-0.3-0.3-0.5-0.6-0.6-1
		c-0.1-0.4-0.2-0.8-0.2-1.2c0-0.4,0.1-0.8,0.2-1.2c0.1-0.4,0.4-0.7,0.6-1c0.3-0.3,0.6-0.5,1-0.6s0.8-0.2,1.3-0.2
		c0.4,0,0.8,0.1,1.2,0.3s0.7,0.4,1,0.7L158.6,129.4z"/>
	<path fill="#494949" d="M162.6,132.9L162.6,132.9l1.8-4.8h0.9l-2.8,7.2c-0.2,0.4-0.4,0.8-0.7,1.1c-0.3,0.3-0.6,0.4-1.1,0.4
		c-0.3,0-0.5,0-0.7-0.1l0.1-0.8c0.2,0.1,0.4,0.1,0.6,0.1c0.3,0,0.5-0.1,0.7-0.3s0.3-0.4,0.4-0.8l0.5-1.2l-2.4-5.7h0.9L162.6,132.9z"
		/>
</g>
</svg>
