<?xml version="1.0" encoding="UTF-8" standalone="no"?>
<svg width="200px" height="200px" viewBox="0 0 200 200" version="1.1" xmlns="http://www.w3.org/2000/svg" xmlns:xlink="http://www.w3.org/1999/xlink" xmlns:sketch="http://www.bohemiancoding.com/sketch/ns">
    <!-- Generator: Sketch 3.3.2 (12043) - http://www.bohemiancoding.com/sketch -->
    <title>Group</title>
    <desc>Created with Sketch.</desc>
    <defs></defs>
    <g id="Designs" stroke="none" stroke-width="1" fill="none" fill-rule="evenodd" sketch:type="MSPage">
        <g id="About-Us" sketch:type="MSArtboardGroup" transform="translate(-987.000000, -2593.000000)" fill="#49BBE4">
            <g id="container-copy" sketch:type="MSLayerGroup" transform="translate(28.000000, 191.000000)">
                <g id="principles-2" transform="translate(2.000000, 2177.000000)" sketch:type="MSShapeGroup">
                    <g id="1433559302_camera-shutter" transform="translate(957.000000, 225.000000)">
                        <g id="Group">
                            <path d="M68.8,129.336 L17.688,44.504 C6.964,60.36 0.696,79.46 0.696,100 C0.696,110.208 2.248,120.06 5.124,129.336 L68.8,129.336 L68.8,129.336 Z" id="Shape"></path>
                            <path d="M90.276,57.896 L189.908,57.896 C177.112,30.68 152.32,10.196 122.38,3.272 L90.276,57.896 L90.276,57.896 Z" id="Shape"></path>
                            <path d="M58.292,88.64 L109.696,1.176 C106.504,0.864 103.272,0.696 100,0.696 C70.392,0.696 43.788,13.736 25.58,34.356 L58.292,88.64 L58.292,88.64 Z" id="Shape"></path>
                            <path d="M110.448,141.336 L9.744,141.336 C22.5802699,169.251583 47.978436,190.223176 78.6648917,196.973501 C79.5535517,197.168986 110.448,141.336 110.448,141.336 Z" id="Shape"></path>
                            <path d="M131.048,69.896 L181.244,157 C192.608,140.852 199.308,121.2 199.308,100 C199.308,89.508 197.66,79.396 194.628,69.896 L131.048,69.896 L131.048,69.896 Z" id="Shape"></path>
                            <path d="M141.28,111.692 L91.276,198.9 C94.152,199.152 97.06,199.304 100,199.304 C128.936,199.304 155.012,186.86 173.18,167.048 L141.28,111.692 L141.28,111.692 Z" id="Shape"></path>
                        </g>
                    </g>
                </g>
            </g>
        </g>
    </g>
</svg>