<?xml version="1.0" encoding="UTF-8" standalone="no"?>
<svg width="309px" height="331px" viewBox="0 0 309 331" version="1.1" xmlns="http://www.w3.org/2000/svg" xmlns:xlink="http://www.w3.org/1999/xlink" xmlns:sketch="http://www.bohemiancoding.com/sketch/ns">
    <!-- Generator: Sketch 3.3.2 (12043) - http://www.bohemiancoding.com/sketch -->
    <title>UX GRAPHIC</title>
    <desc>Created with Sketch.</desc>
    <defs></defs>
    <g id="Designs" stroke="none" stroke-width="1" fill="none" fill-rule="evenodd" sketch:type="MSPage">
        <g id="About-Us" sketch:type="MSArtboardGroup" transform="translate(-858.000000, -851.000000)">
            <g id="container-copy" sketch:type="MSLayerGroup" transform="translate(28.000000, 190.000000)">
                <g id="what-we-do-2" transform="translate(0.000000, 495.000000)" sketch:type="MSShapeGroup">
                    <g id="UX-GRAPHIC" transform="translate(832.000000, 166.000000)">
                        <g id="Group" transform="translate(0.000000, 31.000000)">
                            <circle id="Oval-47" stroke="#EDEDED" stroke-width="4" fill="#FFFFFF" cx="151.450401" cy="48" r="47.4504009"></circle>
                            <circle id="Oval-47-Copy" stroke="#EDEDED" stroke-width="4" cx="257" cy="222" r="47.4504009"></circle>
                            <path d="M145.766133,62.3116469 C145.254053,60.3526515 144.945224,58.4585265 144.258594,56.7128856 C143.254056,54.1586356 141.990184,51.7055715 140.815343,49.2194134 C139.784154,47.0372524 138.76219,44.8520163 138.288915,42.465287 C137.416314,38.0653816 138.37824,34.0523551 141.126369,30.5540444 C144.607254,26.1225093 149.28143,24.1296876 154.849587,24.8473611 C160.783097,25.61204 164.898481,28.9877853 167.074931,34.5695603 C168.591109,38.4579714 168.204377,42.3373036 166.517017,46.0877737 C165.158548,49.1070984 163.66697,52.0662387 162.288293,55.0767774 C161.330907,57.167417 160.602836,59.3378632 160.513511,61.6686548 C160.49755,62.0865777 160.350384,62.290414 159.905224,62.2896818 C155.170863,62.2820672 150.436502,62.2841173 145.702142,62.2808958 C145.658211,62.2807493 145.614428,62.2444337 145.766133,62.3116469" id="Fill-1" fill="#49BBE4"></path>
                            <path d="M153.004078,69.80878 C154.834211,69.8083407 156.664345,69.7947223 158.494185,69.8139052 C159.460065,69.8240091 160.066595,70.2707795 160.337498,71.0871497 C160.592439,71.8553429 160.379671,72.6397904 159.754544,73.1211193 C159.566815,73.2656498 159.330177,73.4286309 159.111405,73.4352204 C158.454355,73.4546962 158.164855,73.829421 157.868033,74.3639055 C156.794964,76.2950784 155.111118,77.3091345 152.902453,77.2764797 C150.662743,77.2433856 149.039521,76.1277042 147.939508,74.1871595 C147.77477,73.8966343 147.435628,73.59498 147.123138,73.5178093 C146.033815,73.2489563 145.412788,72.549587 145.490544,71.524109 C145.563468,70.5646728 146.362706,69.8304522 147.441047,69.8159552 C149.295049,69.7910614 151.149783,69.8090728 153.004078,69.80878" id="Fill-2" fill="#49BBE4"></path>
                            <path d="M152.939647,64.1807318 C154.76978,64.1804389 156.599914,64.1734101 158.430047,64.1829283 C159.623192,64.189225 160.441759,64.9423355 160.463577,66.0241907 C160.485103,67.0873022 159.64955,67.8871253 158.46402,67.8902004 C154.803753,67.8997186 151.143486,67.9000115 147.48322,67.8902004 C146.293296,67.8869788 145.47224,67.0984312 145.487469,66.0243371 C145.502552,64.959029 146.336055,64.191275 147.522464,64.1839533 C149.328143,64.1728243 151.133822,64.1810246 152.939647,64.1807318" id="Fill-3" fill="#49BBE4"></path>
                            <path d="M152.990752,20.9541177 C152.5453,20.984576 152.079932,21.0676041 151.627305,21.0229417 C151.437672,21.0043446 151.133236,20.7227518 151.123571,20.5471773 C151.072612,19.6271319 151.066462,18.7006434 151.124157,17.7813301 C151.137482,17.5697328 151.451291,17.2179981 151.646048,17.2043797 C152.540321,17.1418524 153.443234,17.1459525 154.338385,17.2008653 C154.523039,17.2122872 154.827768,17.5353208 154.838458,17.7278816 C154.890296,18.6722351 154.856762,19.6209817 154.863205,20.5682639 C154.865841,20.9536784 154.678552,21.0822475 154.314956,21.0478355 C153.880047,21.0065411 153.443234,20.9851617 152.990752,20.9541177" id="Fill-4" fill="#49BBE4"></path>
                            <path d="M165.873439,21.1537074 C165.199256,22.3106832 164.579401,23.3745269 163.958959,24.4395422 C162.952079,23.8775281 162.011093,23.3759913 161.103641,22.819981 C160.971264,22.739003 160.889408,22.3408486 160.969947,22.1862142 C161.407492,21.3459754 161.883695,20.523455 162.396215,19.7267071 C162.494179,19.5742692 162.881644,19.4360354 163.019877,19.5092524 C163.961009,20.0087392 164.871244,20.5666531 165.873439,21.1537074" id="Fill-5" fill="#49BBE4"></path>
                            <path d="M168.265147,28.7556872 C169.327966,28.1364174 170.389759,27.5178798 171.55186,26.8407685 C172.133204,27.8428171 172.702686,28.7900993 173.221795,29.7641789 C173.284176,29.8813262 173.128223,30.2310108 172.979739,30.3250215 C172.180063,30.8319763 171.361203,31.3124266 170.521989,31.7501181 C170.369112,31.8297783 169.972276,31.7419178 169.88954,31.6073449 C169.332652,30.7020893 168.829943,29.7633003 168.265147,28.7556872" id="Fill-6" fill="#49BBE4"></path>
                            <path d="M140.096937,21.1542931 C141.111433,20.5618208 142.023863,20.0072748 142.963677,19.5038344 C143.101326,19.4300316 143.475172,19.531364 143.558932,19.6650583 C144.087998,20.5096902 144.584557,21.376873 145.040845,22.2627993 C145.107619,22.3921006 144.96221,22.7586251 144.813287,22.85 C143.945079,23.3830201 143.046559,23.866692 142.012588,24.4489139 C141.402397,23.3992743 140.778149,22.3260588 140.096937,21.1542931" id="Fill-7" fill="#49BBE4"></path>
                            <path d="M135.828969,31.9829484 C134.818866,31.4002871 133.862652,30.8687313 132.935431,30.2909023 C132.805544,30.2099243 132.709337,29.8432533 132.781968,29.7069232 C133.282626,28.765059 133.83234,27.8492602 134.414562,26.8413543 C135.461712,27.4493486 136.446481,28.0113627 137.416461,28.5981242 C137.522626,28.6624087 137.634355,28.920572 137.588667,29.0011108 C137.028557,29.9883695 136.439453,30.9592276 135.828969,31.9829484" id="Fill-8" fill="#49BBE4"></path>
                            <path d="M171.730363,39.7357553 C171.730363,39.6140686 171.734757,39.4922354 171.729631,39.3708416 C171.665786,37.8622775 171.665493,37.862131 173.151214,37.8619846 C173.711031,37.8619846 174.271434,37.8782388 174.830666,37.858763 C175.32166,37.8416303 175.544093,38.0289195 175.527839,38.5408531 C175.503238,39.3190039 175.506167,40.0987655 175.524325,40.8773556 C175.536332,41.3895821 175.363394,41.6407165 174.80753,41.6212408 C173.956748,41.5915147 173.10333,41.5941505 172.252255,41.621973 C171.759211,41.6382272 171.596816,41.4497665 171.660954,40.9738557 C171.716159,40.5648652 171.723042,40.1492852 171.751304,39.7366339 C171.744421,39.7363411 171.737392,39.7360482 171.730363,39.7357553" id="Fill-9" fill="#49BBE4"></path>
                            <path d="M132.409586,41.6140655 C132.045112,41.6147977 131.677416,41.584193 131.316748,41.6215337 C130.669363,41.6883076 130.377959,41.4761246 130.425258,40.7770482 C130.477681,40.0029976 130.447809,39.2225038 130.435362,38.4450852 C130.428919,38.0429771 130.609911,37.8653526 131.000158,37.8659383 C131.947879,37.8672562 132.895747,37.8725279 133.843322,37.8613989 C134.277353,37.8564201 134.352474,38.0642101 134.335927,38.4584107 C134.300343,39.3020175 134.287164,40.1500174 134.334902,40.9923063 C134.363456,41.4947217 134.187735,41.6446703 133.721636,41.618605 C133.285555,41.5941505 132.846985,41.6133334 132.409586,41.6140655" id="Fill-10" fill="#49BBE4"></path>
                            <path d="M171.546296,52.6081913 C170.480695,51.9925824 169.520087,51.4374507 168.528435,50.864454 C168.988678,49.8093964 169.40909,48.8061763 169.877386,47.8259465 C169.932592,47.7102635 170.303802,47.6177172 170.43779,47.6880056 C171.318591,48.1498587 172.185188,48.6426095 173.028062,49.1703579 C173.16205,49.2542647 173.265871,49.6265002 173.192654,49.7625374 C172.688482,50.6988371 172.133643,51.6076071 171.546296,52.6081913" id="Fill-11" fill="#49BBE4"></path>
                            <path d="M135.892521,47.4557611 C136.370189,48.5282444 136.838193,49.5339538 137.251283,50.5619212 C137.30561,50.6972263 137.130914,51.0291924 136.973351,51.1275961 C136.17221,51.6275221 135.341783,52.0805892 134.400211,52.6196132 C133.823554,51.6071678 133.254072,50.6307452 132.721198,49.6348469 C132.670385,49.5396647 132.803201,49.2481145 132.926791,49.1735795 C133.877734,48.5989721 134.847421,48.0554087 135.892521,47.4557611" id="Fill-12" fill="#49BBE4"></path>
                            <path d="M269.5,160.318346 L261.983352,150.070836" id="Line" stroke="#EDEDED" stroke-width="4" stroke-linecap="square"></path>
                            <path d="M269.5,160.318346 L277.016648,150.070836" id="Line-Copy" stroke="#EDEDED" stroke-width="4" stroke-linecap="square"></path>
                            <path d="M83.0305759,55.7383909 L70,54" id="Line-Copy-3" stroke="#EDEDED" stroke-width="4" stroke-linecap="square"></path>
                            <path d="M83.0305759,55.7383909 L80,68.0000002" id="Line-Copy-6" stroke="#EDEDED" stroke-width="4" stroke-linecap="square"></path>
                            <path d="M97.2677244,270.242847 L108,266" id="Line-Copy-5" stroke="#EDEDED" stroke-width="4" stroke-linecap="square"></path>
                            <path d="M96.2677244,282.242847 L103,271.309451" id="Line-Copy-7" stroke="#EDEDED" stroke-width="4" stroke-linecap="square" transform="translate(99.767724, 276.654725) scale(1, -1) translate(-99.767724, -276.654725) "></path>
                            <g id="paintbrush" transform="translate(232.000000, 196.000000)" fill="#49BBE4">
                                <g id="Group">
                                    <g transform="translate(0.000000, 2.525943)" id="Shape">
                                        <path d="M43.7998419,12.9017972 C43.8659907,12.8426179 43.9315349,12.7822358 43.9952651,12.7188467 L46.6519814,10.0765896 C48.2238326,8.51291038 48.4580744,6.21081368 47.1747628,4.93449057 L43.1475442,0.928945755 C41.8644744,-0.347377358 39.5499907,-0.114629717 37.9780186,1.44880896 L35.3214233,4.0913066 C35.2575721,4.15469575 35.1967442,4.21976887 35.1373674,4.28580425 L43.7998419,12.9017972 L43.7998419,12.9017972 Z"></path>
                                        <path d="M7.11577674,40.7735377 L11.3985209,45.0334811 L5.6992,46.4423561 L0,47.8512311 L1.41633488,42.1821722 L2.8327907,36.5134741 L7.11577674,40.7735377 Z"></path>
                                        <path d="M36.1869209,8.16048113 L8.10329302,36.0938066 L6.86412093,34.8613868 L34.9476279,6.92806132 L33.7085767,5.69564151 L4.10691163,35.1386392 L12.7809953,43.766059 L42.3825395,14.3231816 L36.1869209,8.16048113 Z"></path>
                                    </g>
                                    <path d="M50.8919163,49.9099953 C46.1884558,49.873309 45.602186,48.7463774 44.0696372,44.0499269 C41.2424093,36.6382075 28.5077302,45.9894906 36.3993953,49.2368915 C44.2904558,52.4842925 55.5952558,49.9465613 50.8919163,49.9099953 L50.8919163,49.9099953 Z" id="Shape"></path>
                                    <g transform="translate(0.967442, 0.000000)" id="Shape">
                                        <path d="M34.271507,37.1714222 L29.8648093,30.94425 L25.5115628,35.2744387 L30.2456186,40.3980142 C32.6280651,43.3388137 32.0783163,43.2077052 34.3601488,41.3783208 C36.6421023,39.549658 36.6538326,40.1116203 34.271507,37.1714222 L34.271507,37.1714222 Z"></path>
                                        <path d="M20.5327442,17.7575024 L10.1395163,3.07154717 C7.75706977,0.130747642 3.97594419,-0.770412736 1.6939907,1.05873113 C-0.587962791,2.887875 -0.506213953,6.75437264 1.8759907,9.69469104 L14.6930233,23.5660896 L20.5327442,17.7575024 L20.5327442,17.7575024 Z M7.89819535,5.14077594 C7.89819535,5.14077594 7.48691163,3.38753066 4.19627907,1.45879245 C4.19627907,1.45879245 7.66298605,0.932794811 9.42590698,3.79661321 C8.25058605,4.73145283 7.89819535,5.14077594 7.89819535,5.14077594 L7.89819535,5.14077594 Z"></path>
                                    </g>
                                </g>
                            </g>
                            <path d="M201.477489,50.2509567 C201.477489,50.2509567 271.720527,65.5140901 269.314661,169.245454" id="Path-1272" stroke="#EDEDED" stroke-width="4" stroke-dasharray="15"></path>
                            <path d="M222.059626,252.554102 C222.059626,252.554102 168.85514,306.773113 88.7603536,266.994751" id="Path-1273" stroke="#EDEDED" stroke-width="4" stroke-dasharray="15"></path>
                            <path d="M26.7675595,197.871309 C26.7675595,197.871309 -0.514050895,94.261328 91.5267406,51.970211" id="Path-1274" stroke="#EDEDED" stroke-width="4" stroke-dasharray="15"></path>
                            <circle id="Oval-47-Copy-2" stroke="#EDEDED" stroke-width="4" fill="#FFFFFF" cx="47.3287547" cy="221.4" r="46.8504009"></circle>
                            <path d="M53.5477015,243.320271 L53.5477015,239.3778 C53.5477015,239.158082 53.4641493,238.937824 53.2973134,238.769788 C53.1310149,238.601753 52.9131343,238.518141 52.6944478,238.518141 L41.0366269,238.518141 C40.818209,238.518141 40.6000597,238.601753 40.4332239,238.769788 C40.2666567,238.937824 40.1833731,239.158353 40.1833731,239.3778 L40.1833731,243.320271 L35.6092239,245.865424 C35.5646269,245.891671 35.5251343,245.927659 35.497194,245.976906 C35.4692537,246.024259 35.4552836,246.077565 35.4552836,246.129788 L35.4552836,246.688282 C35.4552836,246.765671 35.4842985,246.843059 35.5431343,246.901506 C35.6011642,246.961035 35.6774627,246.989988 35.7545672,246.989988 L57.9765075,246.989988 C58.0533433,246.989988 58.1296418,246.961035 58.1876716,246.901506 C58.2467761,246.843059 58.2755224,246.765671 58.2755224,246.688282 L58.2755224,246.129788 C58.2755224,246.077565 58.2620896,246.023988 58.2336119,245.976906 C58.2056716,245.927659 58.1661791,245.891671 58.1207761,245.865424 L53.5477015,243.320271 L53.5477015,243.320271 Z" id="Shape" fill="#49BBE4"></path>
                            <path d="M73.1373433,201.6072 C72.7416119,201.208082 72.2239104,201.009471 71.7056716,201.009471 L22.0259403,201.009471 C21.5074328,201.009471 20.989194,201.208353 20.594,201.6072 C20.1974627,202.005506 20,202.527471 20,203.049165 L20,235.439118 C20,235.961353 20.197194,236.483588 20.594,236.882165 C20.989194,237.280741 21.5071642,237.479894 22.0259403,237.479894 L71.7056716,237.479894 C72.2239104,237.479894 72.7416119,237.280741 73.1373433,236.882165 C73.5336119,236.483588 73.7313433,235.961353 73.7313433,235.439118 L73.7313433,203.049165 C73.7313433,202.527471 73.5336119,202.005506 73.1373433,201.6072 L73.1373433,201.6072 Z M46.8656716,236.615365 C46.3710746,236.615365 45.9699701,236.211918 45.9699701,235.713765 C45.9699701,235.215612 46.3710746,234.811082 46.8656716,234.811082 C47.360806,234.811082 47.7611045,235.215612 47.7611045,235.713765 C47.7611045,236.211918 47.360806,236.615365 46.8656716,236.615365 L46.8656716,236.615365 Z M70.2275224,233.950612 L23.5040896,233.950612 L23.5040896,204.538482 L70.2275224,204.538482 L70.2275224,233.950612 L70.2275224,233.950612 Z" id="Shape" fill="#49BBE4"></path>
                            <path d="M31.0170746,231.182224 C30.908806,231.182224 30.8013433,231.223353 30.7188657,231.305882 C30.6358507,231.390576 30.5955522,231.498271 30.5955522,231.606776 L30.5955522,231.928776 L35.1081791,231.928776 L35.1081791,231.606776 C35.1081791,231.498271 35.066806,231.390306 34.983791,231.305882 C34.9023881,231.223353 34.7938507,231.182224 34.687194,231.182224 L31.0170746,231.182224 L31.0170746,231.182224 Z" id="Shape" fill="#49BBE4"></path>
                            <path d="M36.5258806,225.934165 C36.4189552,225.934165 36.3106866,225.975294 36.2287463,226.057824 C36.1462687,226.141435 36.1057015,226.250212 36.1057015,226.358718 L36.1057015,231.928776 L40.6169851,231.928776 L40.6169851,226.358718 C40.6169851,226.250212 40.5766866,226.141165 40.4939403,226.057824 C40.4109254,225.975294 40.304,225.934165 40.1957313,225.934165 L36.5258806,225.934165 L36.5258806,225.934165 Z" id="Shape" fill="#49BBE4"></path>
                            <path d="M42.0357612,223.776494 C41.9277612,223.776494 41.8202985,223.817082 41.7375522,223.899882 C41.6550746,223.983494 41.6145075,224.092 41.6145075,224.200776 L41.6145075,231.929318 L46.1268657,231.929318 L46.1268657,224.200776 C46.1268657,224.092 46.0857612,223.983494 46.0035522,223.899882 C45.9226866,223.817353 45.8136119,223.776494 45.7058806,223.776494 L42.0357612,223.776494 L42.0357612,223.776494 Z" id="Shape" fill="#49BBE4"></path>
                            <path d="M47.5459104,224.669435 C47.4376418,224.669435 47.3299104,224.709482 47.2482388,224.793094 C47.1652239,224.876706 47.1243881,224.9844 47.1243881,225.093988 L47.1243881,231.929047 L51.6370149,231.929047 L51.6370149,225.093988 C51.6370149,224.9844 51.5967164,224.876435 51.5126269,224.793094 C51.4312239,224.709482 51.3237612,224.669435 51.2160299,224.669435 L47.5459104,224.669435 L47.5459104,224.669435 Z" id="Shape" fill="#49BBE4"></path>
                            <path d="M53.0552537,221.201306 C52.9464478,221.201306 52.8387164,221.242976 52.7565075,221.325235 C52.6745672,221.408847 52.6326567,221.516812 52.6326567,221.625588 L52.6326567,231.929318 L57.1468955,231.929318 L57.1468955,221.625318 C57.1468955,221.516812 57.1049851,221.408576 57.0219701,221.324965 C56.9408358,221.242976 56.8331045,221.201035 56.7248358,221.201035 L53.0552537,221.201035 L53.0552537,221.201306 Z" id="Shape" fill="#49BBE4"></path>
                            <path d="M58.564597,216.872435 C58.456597,216.872435 58.3491343,216.913565 58.2663881,216.996635 C58.1849851,217.079165 58.1436119,217.188212 58.1436119,217.296447 L58.1436119,231.928776 L62.6557015,231.928776 L62.6557015,217.296718 C62.6557015,217.188482 62.615403,217.079165 62.5321194,216.996906 C62.4501791,216.913835 62.3419104,216.872706 62.2347164,216.872706 L58.564597,216.872706 L58.564597,216.872435 Z" id="Shape" fill="#49BBE4"></path>
                            <path d="M66.0442687,208.772106 C66.1012239,208.674965 66.0966567,208.549141 66.0241194,208.454706 C65.9513134,208.361082 65.8304179,208.325906 65.7234925,208.357565 L61.2154328,209.688047 C61.1297313,209.713753 61.0566567,209.779506 61.0265672,209.872588 C60.9967463,209.965671 61.0177015,210.062271 61.0722388,210.133165 L61.6192239,210.839671 L47.9650149,221.567141 L40.3980299,218.337671 L27.7789552,230.405365 C27.7010448,230.480859 27.6510746,230.584494 27.6475821,230.7022 C27.6462388,230.819094 27.6889552,230.926788 27.7641791,231.006341 L28.3447463,231.620847 C28.4191642,231.699318 28.5231343,231.750729 28.6389254,231.753706 C28.7552537,231.755871 28.8621791,231.711494 28.9400896,231.635729 L40.7569552,220.334612 L48.2202388,223.518624 L62.6557015,212.177188 L63.2026866,212.882612 C63.2574925,212.952965 63.3453433,212.997341 63.4415224,212.990847 C63.5382388,212.984353 63.6199104,212.930506 63.6653134,212.851494 L66.0442687,208.772106 L66.0442687,208.772106 Z" id="Shape" fill="#49BBE4"></path>
                        </g>
                        <path d="M122.752,0.992 L122.752,17 L131.416,17 L131.416,13.88 L126.448,13.88 L126.448,0.992 L122.752,0.992 Z M136.392,10.184 C136.488,9.704 136.728,9.32 136.992,9.032 C137.328,8.696 137.856,8.336 138.744,8.336 C139.44,8.336 139.992,8.576 140.376,8.936 C140.88,9.416 141.048,10.088 141.072,10.184 L136.392,10.184 Z M144.264,11.888 C144.264,10.568 144.024,8.888 142.752,7.544 C141.432,6.152 139.704,5.936 138.504,5.936 C137.304,5.936 135.696,6.176 134.4,7.472 C133.32,8.576 132.768,10.16 132.768,11.696 C132.768,13.472 133.44,14.888 134.376,15.824 C135.624,17.072 137.04,17.36 138.648,17.36 C139.848,17.36 141,17.192 142.032,16.568 C142.656,16.184 143.616,15.392 144.096,13.88 L140.832,13.544 C140.544,14.144 140.136,14.408 140.088,14.432 C139.728,14.648 139.2,14.744 138.696,14.744 C138.168,14.744 137.448,14.648 136.92,14.072 C136.488,13.592 136.272,12.824 136.272,12.248 L144.264,12.248 L144.264,11.888 Z M154.832,7.496 C153.848,6.152 152.384,5.936 151.472,5.936 C149.984,5.936 148.688,6.464 147.752,7.4 C146.768,8.384 146.096,9.92 146.096,11.72 C146.096,13.136 146.528,14.528 147.656,15.728 C148.832,16.976 150.128,17.36 151.664,17.36 C152.552,17.36 153.896,17.144 154.832,15.704 L154.832,17 L158.288,17 L158.288,6.296 L154.832,6.296 L154.832,7.496 Z M152.336,8.912 C152.96,8.912 153.728,9.152 154.256,9.656 C154.76,10.136 155.048,10.856 155.048,11.624 C155.048,12.536 154.664,13.208 154.208,13.64 C153.752,14.096 153.104,14.384 152.408,14.384 C151.592,14.384 150.848,14.048 150.368,13.544 C150.056,13.208 149.648,12.584 149.648,11.624 C149.648,10.664 150.08,10.04 150.44,9.68 C150.896,9.224 151.592,8.912 152.336,8.912 L152.336,8.912 Z M161.176,17 L164.632,17 L164.632,12.656 C164.632,11.744 164.704,10.592 165.472,9.776 C165.904,9.32 166.456,9.056 167.2,9.056 C167.8,9.056 168.304,9.2 168.76,9.44 L168.952,6.2 C168.568,6.08 168.256,6.032 167.824,6.032 C167.152,6.032 166.552,6.128 165.976,6.488 C165.424,6.824 164.944,7.376 164.632,7.976 L164.632,6.296 L161.176,6.296 L161.176,17 Z M170.592,17 L174.048,17 L174.048,11.504 C174.048,10.808 174.144,10.04 174.72,9.464 C174.984,9.176 175.44,8.888 176.16,8.888 C176.784,8.888 177.216,9.104 177.48,9.368 C178.032,9.92 178.056,10.808 178.056,11.504 L178.056,17 L181.512,17 L181.512,10.232 C181.512,9.368 181.44,8.096 180.432,7.088 C179.52,6.176 178.296,6.008 177.36,6.008 C176.352,6.008 175.104,6.224 174.048,7.568 L174.048,6.296 L170.592,6.296 L170.592,17 Z" id="Learn-Copy" fill="#494949"></path>
                        <path d="M235.32,325.248 C233.904,326.64 232.608,326.904 231.648,326.904 C229.68,326.904 228.528,325.896 228.192,325.56 C227.472,324.864 226.8,323.688 226.8,322.032 C226.8,320.496 227.424,319.2 228.312,318.336 C229.152,317.52 230.232,317.088 231.576,317.088 C233.28,317.088 234.504,317.928 235.32,318.792 L235.32,314.52 C233.76,313.848 232.536,313.632 231.48,313.632 C228.984,313.632 226.92,314.568 225.504,315.936 C224.064,317.328 223.008,319.44 223.008,321.96 C223.008,324.528 224.064,326.64 225.504,328.032 C226.848,329.352 228.84,330.36 231.792,330.36 C232.752,330.36 233.904,330.216 235.32,329.496 L235.32,325.248 Z M238.064,330 L241.52,330 L241.52,325.656 C241.52,324.744 241.592,323.592 242.36,322.776 C242.792,322.32 243.344,322.056 244.088,322.056 C244.688,322.056 245.192,322.2 245.648,322.44 L245.84,319.2 C245.456,319.08 245.144,319.032 244.712,319.032 C244.04,319.032 243.44,319.128 242.864,319.488 C242.312,319.824 241.832,320.376 241.52,320.976 L241.52,319.296 L238.064,319.296 L238.064,330 Z M250.416,323.184 C250.512,322.704 250.752,322.32 251.016,322.032 C251.352,321.696 251.88,321.336 252.768,321.336 C253.464,321.336 254.016,321.576 254.4,321.936 C254.904,322.416 255.072,323.088 255.096,323.184 L250.416,323.184 Z M258.288,324.888 C258.288,323.568 258.048,321.888 256.776,320.544 C255.456,319.152 253.728,318.936 252.528,318.936 C251.328,318.936 249.72,319.176 248.424,320.472 C247.344,321.576 246.792,323.16 246.792,324.696 C246.792,326.472 247.464,327.888 248.4,328.824 C249.648,330.072 251.064,330.36 252.672,330.36 C253.872,330.36 255.024,330.192 256.056,329.568 C256.68,329.184 257.64,328.392 258.12,326.88 L254.856,326.544 C254.568,327.144 254.16,327.408 254.112,327.432 C253.752,327.648 253.224,327.744 252.72,327.744 C252.192,327.744 251.472,327.648 250.944,327.072 C250.512,326.592 250.296,325.824 250.296,325.248 L258.288,325.248 L258.288,324.888 Z M269.056,320.496 C268.072,319.152 266.608,318.936 265.696,318.936 C264.208,318.936 262.912,319.464 261.976,320.4 C260.992,321.384 260.32,322.92 260.32,324.72 C260.32,326.136 260.752,327.528 261.88,328.728 C263.056,329.976 264.352,330.36 265.888,330.36 C266.776,330.36 268.12,330.144 269.056,328.704 L269.056,330 L272.512,330 L272.512,319.296 L269.056,319.296 L269.056,320.496 Z M266.56,321.912 C267.184,321.912 267.952,322.152 268.48,322.656 C268.984,323.136 269.272,323.856 269.272,324.624 C269.272,325.536 268.888,326.208 268.432,326.64 C267.976,327.096 267.328,327.384 266.632,327.384 C265.816,327.384 265.072,327.048 264.592,326.544 C264.28,326.208 263.872,325.584 263.872,324.624 C263.872,323.664 264.304,323.04 264.664,322.68 C265.12,322.224 265.816,321.912 266.56,321.912 L266.56,321.912 Z M281.088,322.08 L281.088,319.296 L278.952,319.296 L278.952,315.84 L275.496,315.84 L275.496,319.296 L274.296,319.296 L274.296,322.08 L275.496,322.08 L275.496,330 L278.952,330 L278.952,322.08 L281.088,322.08 Z M285.872,323.184 C285.968,322.704 286.208,322.32 286.472,322.032 C286.808,321.696 287.336,321.336 288.224,321.336 C288.92,321.336 289.472,321.576 289.856,321.936 C290.36,322.416 290.528,323.088 290.552,323.184 L285.872,323.184 Z M293.744,324.888 C293.744,323.568 293.504,321.888 292.232,320.544 C290.912,319.152 289.184,318.936 287.984,318.936 C286.784,318.936 285.176,319.176 283.88,320.472 C282.8,321.576 282.248,323.16 282.248,324.696 C282.248,326.472 282.92,327.888 283.856,328.824 C285.104,330.072 286.52,330.36 288.128,330.36 C289.328,330.36 290.48,330.192 291.512,329.568 C292.136,329.184 293.096,328.392 293.576,326.88 L290.312,326.544 C290.024,327.144 289.616,327.408 289.568,327.432 C289.208,327.648 288.68,327.744 288.176,327.744 C287.648,327.744 286.928,327.648 286.4,327.072 C285.968,326.592 285.752,325.824 285.752,325.248 L293.744,325.248 L293.744,324.888 Z" id="Create" fill="#494949"></path>
                        <path d="M4.704,330 L5.976,320.448 L9.984,330 L11.28,330 L15.288,320.448 L16.56,330 L20.256,330 L17.688,313.992 L14.616,313.992 L10.632,323.568 L6.648,313.992 L3.576,313.992 L1.008,330 L4.704,330 Z M25.904,323.184 C26,322.704 26.24,322.32 26.504,322.032 C26.84,321.696 27.368,321.336 28.256,321.336 C28.952,321.336 29.504,321.576 29.888,321.936 C30.392,322.416 30.56,323.088 30.584,323.184 L25.904,323.184 Z M33.776,324.888 C33.776,323.568 33.536,321.888 32.264,320.544 C30.944,319.152 29.216,318.936 28.016,318.936 C26.816,318.936 25.208,319.176 23.912,320.472 C22.832,321.576 22.28,323.16 22.28,324.696 C22.28,326.472 22.952,327.888 23.888,328.824 C25.136,330.072 26.552,330.36 28.16,330.36 C29.36,330.36 30.512,330.192 31.544,329.568 C32.168,329.184 33.128,328.392 33.608,326.88 L30.344,326.544 C30.056,327.144 29.648,327.408 29.6,327.432 C29.24,327.648 28.712,327.744 28.208,327.744 C27.68,327.744 26.96,327.648 26.432,327.072 C26,326.592 25.784,325.824 25.784,325.248 L33.776,325.248 L33.776,324.888 Z M44.344,320.496 C43.36,319.152 41.896,318.936 40.984,318.936 C39.496,318.936 38.2,319.464 37.264,320.4 C36.28,321.384 35.608,322.92 35.608,324.72 C35.608,326.136 36.04,327.528 37.168,328.728 C38.344,329.976 39.64,330.36 41.176,330.36 C42.064,330.36 43.408,330.144 44.344,328.704 L44.344,330 L47.8,330 L47.8,319.296 L44.344,319.296 L44.344,320.496 Z M41.848,321.912 C42.472,321.912 43.24,322.152 43.768,322.656 C44.272,323.136 44.56,323.856 44.56,324.624 C44.56,325.536 44.176,326.208 43.72,326.64 C43.264,327.096 42.616,327.384 41.92,327.384 C41.104,327.384 40.36,327.048 39.88,326.544 C39.568,326.208 39.16,325.584 39.16,324.624 C39.16,323.664 39.592,323.04 39.952,322.68 C40.408,322.224 41.104,321.912 41.848,321.912 L41.848,321.912 Z M58.608,319.848 C57.744,319.344 56.64,318.936 55.056,318.936 C54.072,318.936 52.776,319.128 51.816,320.016 C51.192,320.592 50.784,321.456 50.784,322.488 C50.784,323.304 51.048,323.904 51.552,324.432 C52.008,324.888 52.656,325.224 53.28,325.416 L54.144,325.68 C54.648,325.824 54.96,325.92 55.2,326.064 C55.512,326.256 55.584,326.496 55.584,326.688 C55.584,326.952 55.44,327.216 55.224,327.384 C54.912,327.624 54.36,327.624 54.144,327.624 C53.688,327.624 53.184,327.528 52.704,327.288 C52.344,327.12 51.864,326.784 51.528,326.496 L50.064,328.824 C51.456,330.048 53.016,330.36 54.456,330.36 C55.584,330.36 56.88,330.192 57.936,329.136 C58.416,328.656 59.04,327.744 59.04,326.328 C59.04,325.512 58.824,324.864 58.2,324.288 C57.648,323.784 57.024,323.544 56.424,323.352 L55.512,323.064 C55.08,322.92 54.72,322.848 54.48,322.704 C54.312,322.608 54.144,322.464 54.144,322.224 C54.144,322.056 54.24,321.864 54.36,321.744 C54.576,321.528 54.984,321.432 55.344,321.432 C56.016,321.432 56.712,321.72 57.24,322.032 L58.608,319.848 Z M61.304,319.296 L61.304,325.752 C61.304,326.928 61.496,328.008 62.48,328.968 C63.704,330.168 65.48,330.36 66.8,330.36 C68.072,330.36 69.872,330.168 71.096,328.968 C72.176,327.912 72.296,326.76 72.296,325.536 L72.296,319.296 L68.84,319.296 L68.84,325.2 C68.84,325.728 68.768,326.448 68.264,326.928 C67.952,327.216 67.448,327.432 66.8,327.432 C66.032,327.432 65.6,327.144 65.36,326.928 C64.808,326.424 64.76,325.68 64.76,325.2 L64.76,319.296 L61.304,319.296 Z M75.184,330 L78.64,330 L78.64,325.656 C78.64,324.744 78.712,323.592 79.48,322.776 C79.912,322.32 80.464,322.056 81.208,322.056 C81.808,322.056 82.312,322.2 82.768,322.44 L82.96,319.2 C82.576,319.08 82.264,319.032 81.832,319.032 C81.16,319.032 80.56,319.128 79.984,319.488 C79.432,319.824 78.952,320.376 78.64,320.976 L78.64,319.296 L75.184,319.296 L75.184,330 Z M87.696,323.184 C87.792,322.704 88.032,322.32 88.296,322.032 C88.632,321.696 89.16,321.336 90.048,321.336 C90.744,321.336 91.296,321.576 91.68,321.936 C92.184,322.416 92.352,323.088 92.376,323.184 L87.696,323.184 Z M95.568,324.888 C95.568,323.568 95.328,321.888 94.056,320.544 C92.736,319.152 91.008,318.936 89.808,318.936 C88.608,318.936 87,319.176 85.704,320.472 C84.624,321.576 84.072,323.16 84.072,324.696 C84.072,326.472 84.744,327.888 85.68,328.824 C86.928,330.072 88.344,330.36 89.952,330.36 C91.152,330.36 92.304,330.192 93.336,329.568 C93.96,329.184 94.92,328.392 95.4,326.88 L92.136,326.544 C91.848,327.144 91.44,327.408 91.392,327.432 C91.032,327.648 90.504,327.744 90,327.744 C89.472,327.744 88.752,327.648 88.224,327.072 C87.792,326.592 87.576,325.824 87.576,325.248 L95.568,325.248 L95.568,324.888 Z" id="Measure" fill="#494949"></path>
                    </g>
                </g>
            </g>
        </g>
    </g>
</svg>