<?xml version="1.0" encoding="UTF-8" standalone="no"?>
<svg width="330px" height="211px" viewBox="0 0 330 211" version="1.1" xmlns="http://www.w3.org/2000/svg" xmlns:xlink="http://www.w3.org/1999/xlink">
    <!-- Generator: sketchtool 39.1 (31720) - http://www.bohemiancoding.com/sketch -->
    <title>45F8083A-D487-4C5E-9ACC-F9C83758CDF1</title>
    <desc>Created with sketchtool.</desc>
    <defs></defs>
    <g id="Designs" stroke="none" stroke-width="1" fill="none" fill-rule="evenodd">
        <g id="Work" transform="translate(-208.000000, -958.000000)">
            <g id="liftforlifegym_logo" transform="translate(208.000000, 958.000000)">
                <g id="Layer_1" transform="translate(0.000000, 0.000000)">
                    <rect id="Rectangle-path" fill="#629CC8" x="22.7111593" y="5.11338761" width="7.54465869" height="55.7069812"></rect>
                    <ellipse id="Oval" fill="#FFFFFF" cx="162.798684" cy="89.4746352" rx="23.3672166" ry="23.3672166"></ellipse>
                    <path d="M329.668782,28.403421 L317.551018,28.403421 L317.551018,4.99761279 L309.523964,4.99761279 L309.523964,28.403421 L307.169877,28.403421 L307.169877,4.99761279 L299.142823,4.99761279 L299.142823,28.403421 L298.506061,28.403421 L298.506061,26.8211652 L294.37676,26.8211652 L294.37676,29.6576481 L35.330614,29.6576481 L35.330614,26.4738407 L31.2013123,26.4738407 L31.2013123,28.596379 L30.4873676,28.596379 L30.4873676,4.99761279 L22.4603139,4.99761279 L22.4603139,28.596379 L19.6238309,28.596379 L19.6238309,4.63099255 L11.5967772,4.63099255 L11.5967772,28.596379 L0.0385916046,28.596379 L0.0385916046,37.5689271 L11.5967772,37.5689271 L11.5967772,60.8203688 L19.6238309,60.8203688 L19.6238309,37.5689271 L22.4603139,37.5689271 L22.4603139,61.1676933 L30.4873676,61.1676933 L30.4873676,37.5689271 L31.2013123,37.5689271 L31.2013123,38.9775206 L35.330614,38.9775206 L35.330614,35.7937132 L65.3741781,35.7937132 L163.859953,210.324245 L264.294604,35.7937132 L294.37676,35.7937132 L294.37676,39.3441409 L298.506061,39.3441409 L298.506061,37.375969 L299.142823,37.375969 L299.142823,61.1676933 L307.169877,61.1676933 L307.169877,37.375969 L309.523964,37.375969 L309.523964,61.1676933 L317.551018,61.1676933 L317.551018,37.375969 L329.668782,37.375969 L329.668782,28.403421 L329.668782,28.403421 Z M161.891781,127.062858 L66.7634759,35.7937132 L262.770236,35.7937132 L161.891781,127.062858 L161.891781,127.062858 Z" id="Shape" fill="#FFFFFF"></path>
                    <g id="Group" transform="translate(36.854982, 0.000000)" fill="#FFFFFF">
                        <polygon id="Shape" points="0.0964790114 0.347324441 4.88183798 0.347324441 4.88183798 17.4048137 13.2562162 17.4048137 13.2562162 21.3990447 0.115774814 21.3990447 0.115774814 0.347324441"></polygon>
                        <polygon id="Shape" points="20.8201707 0.347324441 20.8201707 21.3990447 16.0348117 21.3990447 16.0348117 0.347324441"></polygon>
                        <polygon id="Shape" points="24.9494724 0.347324441 37.8197725 0.347324441 37.8197725 4.2450765 29.7155355 4.2450765 29.7155355 9.04973127 37.27949 9.04973127 37.27949 12.9281875 29.7155355 12.9281875 29.7155355 21.3990447 24.9301766 21.3990447 24.9301766 0.347324441"></polygon>
                        <polygon id="Shape" points="45.4609102 4.34155551 39.8072401 4.34155551 39.8072401 0.347324441 55.9771224 0.347324441 55.9771224 4.34155551 50.2269734 4.34155551 50.2269734 21.3990447 45.4416144 21.3990447 45.4416144 4.34155551"></polygon>
                        <polygon id="Shape" points="64.8145999 0.347324441 77.6849 0.347324441 77.6849 4.2450765 69.5999589 4.2450765 69.5999589 9.04973127 77.1639133 9.04973127 77.1639133 12.9281875 69.5999589 12.9281875 69.5999589 21.3990447 64.8145999 21.3990447 64.8145999 0.347324441"></polygon>
                        <path d="M100.550426,10.6512829 C100.550426,17.5591801 96.3632366,21.7463692 90.2078757,21.7463692 C83.9560358,21.7463692 80.3091291,17.0381934 80.3091291,11.0371989 C80.3091291,4.72747156 84.3419518,0.0192958023 90.5552001,0.0192958023 C97.0192939,2.48828735e-14 100.550426,4.84324637 100.550426,10.6512829 L100.550426,10.6512829 Z M85.3453335,10.9214241 C85.3453335,15.0507258 87.2749137,17.9450961 90.4587211,17.9450961 C93.6811201,17.9450961 95.5142213,14.8770636 95.5142213,10.7863535 C95.5142213,7.00437623 93.7004159,3.76268145 90.4201295,3.76268145 C87.2170263,3.78197725 85.3453335,6.83071401 85.3453335,10.9214241 L85.3453335,10.9214241 Z" id="Shape"></path>
                        <path d="M103.676346,0.617465673 C105.200714,0.366620243 107.477619,0.192958023 110.005369,0.192958023 C113.131289,0.192958023 115.311714,0.656057278 116.816787,1.85239702 C118.071014,2.85577874 118.746367,4.32225971 118.746367,6.25183994 C118.746367,8.93395646 116.836083,10.7863535 115.022277,11.4424108 L115.022277,11.5388898 C116.488758,12.1370596 117.299182,13.5456532 117.839465,15.4752334 C118.495522,17.8486171 119.151579,20.588621 119.556791,21.3990447 L114.694249,21.3990447 C114.346924,20.8008749 113.845233,19.0835485 113.227768,16.497911 C112.66819,13.8736818 111.761287,13.1597372 109.831707,13.1211456 L108.403817,13.1211456 L108.403817,21.3990447 L103.695641,21.3990447 L103.695641,0.617465673 L103.676346,0.617465673 Z M108.384521,9.68649275 L110.256214,9.68649275 C112.629598,9.68649275 114.038192,8.50944881 114.038192,6.65705179 C114.038192,4.72747156 112.726077,3.74338564 110.545651,3.72408984 C109.387903,3.72408984 108.731846,3.82056885 108.384521,3.87845626 L108.384521,9.68649275 L108.384521,9.68649275 Z" id="Shape"></path>
                        <polygon id="Shape" points="128.490747 0.347324441 133.276106 0.347324441 133.276106 17.4048137 141.631189 17.4048137 141.631189 21.3990447 128.490747 21.3990447"></polygon>
                        <polygon id="Shape" points="149.233735 0.347324441 149.233735 21.3990447 144.448376 21.3990447 144.448376 0.347324441"></polygon>
                        <polygon id="Shape" points="153.343741 0.347324441 166.214041 0.347324441 166.214041 4.2450765 158.1291 4.2450765 158.1291 9.04973127 165.693054 9.04973127 165.693054 12.9281875 158.1291 12.9281875 158.1291 21.3990447 153.343741 21.3990447"></polygon>
                        <polygon id="Shape" points="182.326036 12.4843841 174.588419 12.4843841 174.588419 17.4819969 183.232939 17.4819969 183.232939 21.3797489 169.80306 21.3797489 169.80306 0.347324441 182.789135 0.347324441 182.789135 4.2450765 174.569123 4.2450765 174.569123 8.62522362 182.30674 8.62522362 182.30674 12.4843841"></polygon>
                        <path d="M210.362837,20.4149588 C208.896356,20.9166497 206.11776,21.5920028 203.339165,21.5920028 C199.4993,21.5920028 196.720704,20.6272126 194.791124,18.7555198 C192.861544,16.9417144 191.800275,14.2017105 191.819571,11.1143821 C191.858162,4.11000589 196.932958,0.115774814 203.840855,0.115774814 C206.561563,0.115774814 208.64551,0.656057278 209.687483,1.13845233 L208.684102,4.93972539 C207.526354,4.43803453 206.098464,4.03282268 203.782968,4.03282268 C199.808033,4.03282268 196.817183,6.29043155 196.817183,10.8442409 C196.817183,15.1857964 199.537891,17.7521381 203.435644,17.7521381 C204.535504,17.7521381 205.403815,17.6363633 205.770436,17.4434053 L205.770436,13.0439623 L202.528741,13.0439623 L202.528741,9.33916831 L210.362837,9.33916831 L210.362837,20.4149588 L210.362837,20.4149588 Z" id="Shape"></path>
                        <path d="M218.949469,21.3990447 L218.949469,12.7738211 L212.292417,0.347324441 L217.733833,0.347324441 L219.894963,5.40282464 C220.55102,6.92719302 220.994824,8.06564536 221.51581,9.43564732 L221.573698,9.43564732 C222.036797,8.12353276 222.538488,6.90789722 223.175249,5.40282464 L225.297788,0.347324441 L230.642725,0.347324441 L223.715532,12.6194547 L223.715532,21.3990447 L218.949469,21.3990447 L218.949469,21.3990447 Z" id="Shape"></path>
                        <path d="M250.054302,13.3333994 C249.957823,10.8056493 249.861344,7.73761672 249.861344,4.68887996 L249.764865,4.68887996 C249.108808,7.37099647 248.240496,10.3811416 247.430073,12.8317085 L244.863731,21.0517203 L241.139641,21.0517203 L238.882032,12.9088917 C238.187383,10.439029 237.473439,7.44817968 236.971748,4.68887996 L236.91386,4.68887996 C236.798086,7.52536289 236.701607,10.7863535 236.54724,13.4105826 L236.18062,21.3990447 L231.781177,21.3990447 L233.131883,0.347324441 L239.480202,0.347324441 L241.544853,7.37099647 C242.20091,9.80226756 242.856968,12.4264967 243.320067,14.8963594 L243.416546,14.8963594 C244.014716,12.4650883 244.72866,9.68649275 245.423309,7.33240487 L247.680918,0.328028639 L253.894166,0.328028639 L255.051915,21.3797489 L250.401626,21.3797489 L250.054302,13.3333994 L250.054302,13.3333994 Z" id="Shape"></path>
                    </g>
                </g>
            </g>
        </g>
    </g>
</svg>